<?xml version="1.0" encoding="utf-8"?>
<!-- Generator: Adobe Illustrator 18.0.0, SVG Export Plug-In . SVG Version: 6.00 Build 0)  -->
<!DOCTYPE svg PUBLIC "-//W3C//DTD SVG 1.1//EN" "http://www.w3.org/Graphics/SVG/1.1/DTD/svg11.dtd">
<svg version="1.1" id="Слой_1" xmlns="http://www.w3.org/2000/svg" xmlns:xlink="http://www.w3.org/1999/xlink" x="0px" y="0px"
	 width="250px" height="200px" viewBox="0 0 250 200" enable-background="new 0 0 250 200" xml:space="preserve">
<g>
	<path d="M188.1,108.5h-61.8c-0.4,0-0.4,0-0.9,0c-2.4,0-4.9,0-7,0c-0.6,0-0.6,0-1,0h-1.9c2.3,1.3,4.5,2.5,6.9,3.3c9,3.1,18,6,27,9
		c0.9,0.3,1.8,0.4,2.7,0.3c4.3-0.6,8.5-1.2,12.8-1.8c3.1-0.5,6.2-0.8,9.3-1.5c3.3-0.8,6.6-2.1,9.9-3.1c1.6-0.5,3.3-1,4.9-1.5
		C188.4,110.5,188.5,111.2,188.1,108.5z"/>
	<path d="M196,152.3c-5.8-1.4-11.6-2.8-17.5-4.2c-2.8-0.7-5.7-1.3-8.5-2c-0.4-0.1-1-0.4-1.2-0.8c-4.6-6.6-9.1-13.1-13.6-19.7
		c-0.1-0.1-0.1-0.2-0.2-0.5c3.6-0.5,7.1-1,10.7-1.4c3.1-0.4,6.2-0.9,9.3-1.2c1-0.1,2.1-0.1,3.1,0.2c6,1.9,11.9,3.8,17.9,5.7
		C196,136.4,196,144.4,196,152.3z"/>
	<path d="M57,111.8c6.3,0,9.6-3.3,16.2-3.3c-0.2,0.6-0.4,1.2-0.7,1.7c-1.1,2.5-2.2,5-3.3,7.5c-0.2,0.5-0.6,1.1-1.1,1.3
		c-4.7,2.5-9.4,5-14.2,7.5C54,120.5,57,117.8,57,111.8z"/>
	<path d="M105.5,130.9c4.2-5.2,8.2-10.3,12.4-15.4c0.2-0.3,0.9-0.4,1.3-0.3c9.2,3,18.4,6.1,27.5,9.1c0.4,0.1,0.8,0.4,1.1,0.8
		c4.9,6.9,9.7,13.7,14.6,20.6c0,0.1,0.1,0.2,0.1,0.4c-2.5,0.5-4.9,1-7.4,1.4c-4.3,0.8-8.5,1.6-12.8,2.4c-0.7,0.1-1.6,0.1-2.2-0.2
		c-11.4-6.1-22.7-12.3-34.1-18.5C105.9,131.2,105.8,131.1,105.5,130.9z"/>
	<path d="M113,112.6c-2.6,3.3-5.1,6.4-7.6,9.5c-0.7,0.9-1.4,1.7-2.1,2.6c-2.4,3.5-5.5,6.1-9.3,8.1c-2.7,1.4-5.1,3.1-7.8,4.6
		c-3.2-4-6.3-7.9-9.4-11.8c-1.2-1.5-2.5-3-3.6-4.6c-0.3-0.4-0.4-1.1-0.2-1.5c1.7-3.4,3.4-6.9,5.2-10.3c0.2-0.4,0.8-0.8,1.2-0.8
		c9.5,0,19,0,28.4,0c0.3,0,0.8,0.1,1,0.3C110.3,110,111.7,111.3,113,112.6z"/>
</g>
<g>
	<path d="M74.4,76.6c0,0.3,0,0.6,0,0.9c-3.6,5.2-7.2,10.4-10.8,15.6c-0.3-0.4-0.4-0.6-0.6-0.8c-3.4-4.9-6.8-9.9-10.2-14.8
		c0-0.3,0-0.6,0-0.9c0.9-1.3,1.2-1.4,2.6-0.9c1.4,0.4,2.7,0.8,4.2,1.3c0-10.3,0-20.5,0-30.7c2.7,0,5.3,0,8,0c0,10.2,0,20.4,0,30.7
		c1.5-0.5,2.9-0.8,4.2-1.3C72.9,75.2,73.8,75.5,74.4,76.6z"/>
</g>
<g>
	<path d="M104.4,76.6c0,0.3,0,0.6,0,0.9c-3.6,5.2-7.2,10.4-10.8,15.6c-0.3-0.4-0.4-0.6-0.6-0.8c-3.4-4.9-6.8-9.9-10.2-14.8
		c0-0.3,0-0.6,0-0.9c0.9-1.3,1.2-1.4,2.6-0.9c1.4,0.4,2.7,0.8,4.2,1.3c0-10.3,0-20.5,0-30.7c2.7,0,5.3,0,8,0c0,10.2,0,20.4,0,30.7
		c1.5-0.5,2.9-0.8,4.2-1.3C102.9,75.2,103.8,75.5,104.4,76.6z"/>
</g>
<g>
	<path d="M134.4,76.6c0,0.3,0,0.6,0,0.9c-3.6,5.2-7.2,10.4-10.8,15.6c-0.3-0.4-0.4-0.6-0.6-0.8c-3.4-4.9-6.8-9.9-10.2-14.8
		c0-0.3,0-0.6,0-0.9c0.9-1.3,1.2-1.4,2.6-0.9c1.4,0.4,2.7,0.8,4.2,1.3c0-10.3,0-20.5,0-30.7c2.7,0,5.3,0,8,0c0,10.2,0,20.4,0,30.7
		c1.5-0.5,2.9-0.8,4.2-1.3C133,75.2,133.8,75.5,134.4,76.6z"/>
</g>
<g>
	<path d="M164.4,76.6c0,0.3,0,0.6,0,0.9c-3.6,5.2-7.2,10.4-10.8,15.6c-0.3-0.4-0.4-0.6-0.6-0.8c-3.4-4.9-6.8-9.9-10.2-14.8
		c0-0.3,0-0.6,0-0.9c0.9-1.3,1.2-1.4,2.6-0.9c1.4,0.4,2.7,0.8,4.2,1.3c0-10.3,0-20.5,0-30.7c2.7,0,5.3,0,8,0c0,10.2,0,20.4,0,30.7
		c1.5-0.5,2.9-0.8,4.2-1.3C163,75.2,163.8,75.5,164.4,76.6z"/>
</g>
<g>
	<path d="M194.4,76.6c0,0.3,0,0.6,0,0.9c-3.6,5.2-7.2,10.4-10.8,15.6c-0.3-0.4-0.4-0.6-0.6-0.8c-3.4-4.9-6.8-9.9-10.2-14.8
		c0-0.3,0-0.6,0-0.9c0.9-1.3,1.2-1.4,2.6-0.9c1.4,0.4,2.7,0.8,4.2,1.3c0-10.3,0-20.5,0-30.7c2.7,0,5.3,0,8,0c0,10.2,0,20.4,0,30.7
		c1.5-0.5,2.9-0.8,4.2-1.3C193,75.2,193.8,75.5,194.4,76.6z"/>
</g>
</svg>
