<?xml version="1.0" encoding="utf-8"?>
<!-- Generator: Adobe Illustrator 18.0.0, SVG Export Plug-In . SVG Version: 6.00 Build 0)  -->
<!DOCTYPE svg PUBLIC "-//W3C//DTD SVG 1.1//EN" "http://www.w3.org/Graphics/SVG/1.1/DTD/svg11.dtd">
<svg version="1.1" id="Слой_1" xmlns="http://www.w3.org/2000/svg" xmlns:xlink="http://www.w3.org/1999/xlink" x="0px" y="0px"
	 width="250px" height="200px" viewBox="0 0 250 200" enable-background="new 0 0 250 200" xml:space="preserve">
<g>
	<path d="M160.2,112.7c-5.5,5.6-13.1,4.7-17.5-0.5c-3.1,2.4-6.5,3.3-10.3,2.2c-2-0.6-3.7-1.6-5.1-3.2c-0.5-0.5-0.9-0.8-1.7-0.7
		c-6,0.8-11.5-2.9-12.6-8.5c-1.2-5.9,2.1-11.5,7.9-13.1c1.2-0.3,2.5-0.4,3.8-0.4c0.7,0,1-0.1,1.2-0.9c0.9-4.4,3.5-7.4,7.8-8.6
		c4.3-1.2,8.1-0.1,11.3,3.1c0.6,0.6,1.1,1.2,1.9,1.7c-0.5-0.8-0.9-1.6-1.4-2.4c4.2-4.6,11.4-3.8,16.6,1.8c0.4-0.2,0.7-0.5,1.1-0.7
		c5.8-3.8,13.6-1.5,16.3,4.9c0.4,0.9,0.9,1.3,1.8,1.5c5.3,1.2,8.8,6.6,7.8,12c-1.1,5.4-6.2,9-11.5,8.4c-0.4,0-1,0.1-1.2,0.4
		c-4.2,5.5-9.9,6.6-15.7,3C160.5,112.8,160.3,112.7,160.2,112.7z"/>
	<path d="M90.9,111.4c-5.3,4-11,3.5-15.6-1.1c-0.4-0.4-1.1-0.6-1.6-0.5c-6,0.8-11.5-3.1-12.6-9C60,94.9,64,89.1,69.8,88
		c1.2-0.2,2.5-0.1,3.9-0.2c0.9-4.9,3.6-8.5,8.7-9.7c5.2-1.2,9.1,1.1,12.4,4.9c-0.4-0.7-0.9-1.5-1.3-2.2c4-4.7,11.5-3.9,16.6,1.8
		c2.8-2.1,5.8-3.1,9.4-2.4c2.4,0.5,4.4,1.6,6,3.4c-0.4,1.1-0.8,2.2-1.2,3.2c-7.7,1.1-12.2,4.9-13,10.8c-0.8,6.2,2.7,12.4,10,14.3
		c-3.1,2.8-8,2.8-13,0C103.4,117.3,95.5,117,90.9,111.4z"/>
	<path d="M109.5,46.1c7,10.9,22.4,10.6,29,0.3c-2.7,12.3,7.9,23.1,19.9,20.6c-1.3,1.3-2.9,2.6-4.1,4.2c-1.1,1.5-1.8,3.3-2.7,5
		c-0.2,0.4-0.5,0.8-0.9,1c-1.9,0.8-3.9,1.5-6.3,2.4c-0.6-0.3-1.4-0.9-1.6-2.3c-1.4-7.8-8.1-14.1-15.9-15.2
		c-8.3-1.2-16.4,2.9-20.1,10.2c-0.7,1.4-1.2,2.9-1.8,4.3c-2.7,0-5.4,0-8.3,0c-0.8-1.6-1.6-3.7-2.9-5.5c-1.3-1.8-3-3.2-4.3-4.6
		C101.8,69.1,112,58.3,109.5,46.1z"/>
	<path d="M140.3,77.5c-5.7-1.3-10.3,0.3-13.9,4.8c-4.9-4.3-10.2-4.9-15.9-1.8c-1-0.7-2-1.4-2.8-2.2c-0.3-0.3-0.4-1.1-0.3-1.6
		c1.9-6.2,6-10.3,12.4-11.9c8.7-2.2,17.7,3,20.3,11.6C140.2,76.6,140.2,77,140.3,77.5z"/>
	<path d="M107.9,138.7c-0.3-0.6-0.6-1.2-1.1-2.1c3.5-1.1,6.9-2.3,10.3-3.2c10.2-2.5,20-0.9,29.5,3.4c6.4,2.9,13.1,4.6,20.1,4.5
		c5.9-0.1,11.4-1.6,16.8-3.9c0.3-0.1,0.7-0.3,1.1-0.5c0.3,0.6,0.6,1.1,0.9,1.8c-0.4,0.2-0.7,0.4-1.1,0.6
		c-12.8,5.5-25.6,5.5-38.3-0.3c-7-3.2-14.3-5-22-4.5c-5.2,0.3-10.2,1.7-15,3.6C108.9,138.3,108.5,138.5,107.9,138.7z"/>
	<path d="M146.7,125.3c-0.2,0.5-0.4,0.9-0.6,1.3c-0.1,0.2-0.2,0.4-0.2,0.3c-3.8-1.1-7.5-2.4-11.3-3.2c-9.2-2-18-0.3-26.5,3.4
		c-7.1,3.2-14.5,5.1-22.4,4.7c-6.2-0.3-12-1.9-17.7-4.5c0.2-0.4,0.3-0.7,0.4-1c0.1-0.3,0.3-0.5,0.4-0.6c3.6,1.1,7.1,2.3,10.6,3.1
		c9.5,2.2,18.5,0.6,27.3-3.4c6.5-2.9,13.3-4.8,20.5-4.7C134,120.7,140.5,122.4,146.7,125.3z"/>
	<path d="M68,149.2c0.4-0.7,0.7-1.3,0.8-1.5c4.2,1.2,8.2,2.5,12.3,3.3c8.7,1.7,17,0.1,25-3.4c4.4-1.9,8.9-3.5,13.7-4.3
		c9.4-1.6,18.3,0.2,26.9,4c-0.3,0.7-0.6,1.2-0.9,1.8c-2.6-0.9-5.1-1.8-7.7-2.6c-10.3-3-20.3-1.7-30,2.6c-7.1,3.2-14.5,5.1-22.4,4.7
		C79.6,153.5,73.8,151.9,68,149.2z"/>
</g>
</svg>
