<?xml version="1.0" encoding="utf-8"?>
<!-- Generator: Adobe Illustrator 18.0.0, SVG Export Plug-In . SVG Version: 6.00 Build 0)  -->
<!DOCTYPE svg PUBLIC "-//W3C//DTD SVG 1.1//EN" "http://www.w3.org/Graphics/SVG/1.1/DTD/svg11.dtd">
<svg version="1.1" id="Слой_1" xmlns="http://www.w3.org/2000/svg" xmlns:xlink="http://www.w3.org/1999/xlink" x="0px" y="0px"
	 width="250px" height="200px" viewBox="0 0 250 200" enable-background="new 0 0 250 200" xml:space="preserve">
<g>
	<g>
		<path d="M92.4,98.8C79.6,99.3,68.6,87.7,68.3,75C68,60.8,79.7,49.7,92.7,49.9c13.4,0.1,24,11.1,24,24.8
			C116.7,88.8,104.5,99.4,92.4,98.8z"/>
		<path d="M134.6,74.6c-4.8,1.7-9.7,3.5-14.7,5.3c0-3.7,0-7.2,0-10.9c5,1.8,9.9,3.5,14.8,5.3C134.6,74.3,134.6,74.5,134.6,74.6z"/>
		<path d="M69.2,58.3c-2-4.3-4.3-9.1-6.5-13.9c0.1-0.1,0.2-0.2,0.3-0.3c4.7,2.3,9.4,4.6,13.9,6.8C74.3,53.4,71.7,55.9,69.2,58.3z"/>
		<path d="M115.8,58.4c-2.5-2.6-5-5-7.5-7.6c4.3-2.1,9-4.4,13.8-6.7c0.1,0.1,0.2,0.2,0.3,0.3C120.2,49.2,118,53.9,115.8,58.4z"/>
		<path d="M98,46.9c-3.8,0-7.2,0-10.9,0c1.8-5.1,3.5-10,5.2-14.9c0.1,0,0.3,0,0.4,0C94.4,36.8,96.2,41.8,98,46.9z"/>
		<path d="M98,101.9c-1.7,5-3.5,10-5.2,14.9c-0.2,0-0.3,0-0.5,0c-1.7-4.9-3.5-9.9-5.2-14.9C90.7,101.9,94.2,101.9,98,101.9z"/>
		<path d="M65.3,68.8c0,3.7,0,7.2,0,11c-5-1.8-9.9-3.5-14.8-5.2c0-0.2,0-0.3-0.1-0.5C55.3,72.4,60.2,70.6,65.3,68.8z"/>
		<path d="M77,97.9c-4.6,2.2-9.2,4.4-13.9,6.7c-0.1-0.1-0.2-0.2-0.3-0.3c2.2-4.8,4.4-9.5,6.5-14C71.8,92.9,74.3,95.3,77,97.9z"/>
		<path d="M115.9,90.5c2,4.2,4.2,8.9,6.4,13.6c-0.1,0.1-0.2,0.2-0.3,0.3c-4.7-2.3-9.4-4.5-13.8-6.6C110.8,95.5,113.3,93,115.9,90.5z
			"/>
	</g>
	<g>
		<path d="M159.5,120.4c-4.5-3.5-8.8-6.3-14.8-5.4c0.3,5.8,3.6,9.8,7.5,13.9c-5.7,0.6-10.3-1-14.2-4.6c-5.5-5.1-8.1-11.9-10-18.9
			c-0.4-1.4-0.6-2.8-0.9-4.4c8.3-0.1,16.2,0.6,23.4,4.5c5,2.8,8.3,6.9,8.9,12.8C159.6,118.8,159.5,119.4,159.5,120.4z"/>
		<path d="M191.6,88.4c-0.3,6.2-1.2,11.7-3.8,16.8c-2.2,4.4-5.5,7.5-10.6,8.3c-0.8,0.1-1.7,0.1-3,0.2c2.9-3.6,5.6-6.9,5.2-11.7
			c-4.7-0.2-8,2.4-11.6,5.2c-0.4-3.5,0.6-6.4,2.5-8.9c3.6-4.9,8.8-7,14.4-8.5C186.9,89,189.1,88.8,191.6,88.4z"/>
		<path d="M172.1,109.4c-1.5,3.2-3,6.4-4.4,9.7c-0.4,1-0.4,2.3-0.3,3.4c0.7,8-0.1,15.9-2.6,23.6c-2.1,0-4.1,0-6.4,0
			c1.1-2.2,2.1-4.4,3.1-6.5c0.4-0.9,0.8-1.9,1.1-2.9c1.4-4.1,1.3-4-2.1-6.5c-2.7-2.1-5.1-4.5-7.4-7c3.5,2.3,7,4.6,11.3,5.5
			c1.3-11.2-1.7-21.2-7.3-30.6c1.3,1.7,2.6,3.4,4.3,5.6c1.4-3.1,2.7-5.8,4-8.5c0.1,0,0.2,0,0.4,0.1c-0.9,3.1-1.9,6.3-2.7,9.4
			c-0.2,0.6-0.3,1.4-0.1,2c1.2,3.1,2.5,6.2,3.6,9.1c1.7-2.1,3.5-4.4,5.3-6.7C172,109.2,172,109.3,172.1,109.4z"/>
		<path d="M140.6,81.8c10.9-0.1,20,5.3,19,13.2c-2.7-1.8-5.1-4.4-8.9-3.6c-0.1,3.4,1.7,6,3.6,8.5C147.7,101.4,141.2,92.9,140.6,81.8
			z"/>
		<path d="M166.7,88.1c-1.3,2-2.5,3.8-3.7,5.6c-3.1-4-0.4-10.8,6-15.1c4.3,5.9,4.6,14.7-0.7,16.5C168.5,90.5,168.5,90.2,166.7,88.1z
			"/>
	</g>
</g>
</svg>
