<?xml version="1.0" encoding="utf-8"?>
<!-- Generator: Adobe Illustrator 18.0.0, SVG Export Plug-In . SVG Version: 6.00 Build 0)  -->
<!DOCTYPE svg PUBLIC "-//W3C//DTD SVG 1.1//EN" "http://www.w3.org/Graphics/SVG/1.1/DTD/svg11.dtd">
<svg version="1.1" id="Слой_1" xmlns="http://www.w3.org/2000/svg" xmlns:xlink="http://www.w3.org/1999/xlink" x="0px" y="0px"
	 width="250px" height="200px" viewBox="0 0 250 200" enable-background="new 0 0 250 200" xml:space="preserve">
<g>
	<path fill="#FFFFFF" d="M125.1,131.9c0,0-0.1,0-0.1,0c-0.1-0.3-0.2-0.6-0.2-0.9c-0.8-6.2-1.5-12.5-2.5-18.7
		c-1.4-8.8-3.7-17.4-6.8-25.8C111.4,75.4,106,65,98.3,55.9c-2.1-2.5-4.4-4.8-6.6-7.2c-0.1,0.1-0.2,0.1-0.2,0.2c0,0.1,0,0.3,0.1,0.4
		c1.9,4.6,3.1,9.5,3.9,14.4c1,5.8,1.9,11.7,2.5,17.6c0.7,6.5,1.2,13,1.6,19.6c0.5,7.1,0.5,14.3,1.6,21.4c1.2,7.3,2.9,14.3,6.3,20.9
		c1.8,3.5,4.5,5.9,8.1,7.4c5.5,2.3,11.1,2.5,16.7,0.8c4.1-1.2,7.5-3.4,9.6-7.2c1-1.8,1.9-3.8,2.7-5.7c3.5-9.2,4.8-18.8,5.3-28.6
		c0.3-6.4,0.5-12.7,1.1-19.1c0.7-7.8,1.7-15.6,2.8-23.4c0.9-6.1,2.2-12.2,4.5-18c0-0.1,0-0.3,0.1-0.6c-0.4,0.3-0.6,0.6-0.9,0.8
		c-6.2,5.9-11.3,12.8-15.5,20.2c-9.4,16.7-14,34.9-16.1,53.8C125.7,126.3,125.4,129.1,125.1,131.9z M130.3,83.6c-3.7,0-7.1,0-10.7,0
		c0.2,3.6,0.3,7.3,0.6,10.9c0,0.2,0.5,0.7,0.8,0.7c2.7,0,5.4,0,8,0c0.7,0,0.8-0.4,0.8-0.9c0.1-0.9,0.1-1.8,0.2-2.8
		C130.1,88.9,130.2,86.2,130.3,83.6z M119.7,70.7c0,2.7,0,5.4,0,8.2c0,0.6,0.2,0.9,0.8,0.9c2.5,0.1,5,0.3,7.5,0.2
		c2.3-0.1,2.4-0.2,2.3-2.5c0-2.3-0.1-4.6-0.2-6.8C126.7,70.7,123.3,70.7,119.7,70.7z M121,58.6c-0.3,2.6-0.6,5.3-0.9,8
		c2.7,0.7,5.4,0.5,8,0.4c1.7-0.1,1.7-0.2,1.6-1.9c0-0.2,0-0.3,0-0.5c-0.2-2-0.5-4-0.7-6C126.3,58.6,123.7,58.6,121,58.6z M116.3,66
		c0.3-2.6,0.6-5.1,0.9-7.6c0-0.2-0.3-0.7-0.5-0.7c-1.5-0.5-3-0.9-4.5-1.4c-0.3-0.1-0.7,0-0.8,0.2c-1.2,1.9-2.4,3.7-3.7,5.6
		C110.2,64.4,113.2,65.2,116.3,66z M133.7,66c3.1-0.8,6.1-1.6,8.7-3.9c-1.2-1.9-2.4-3.8-3.6-5.6c-0.1-0.2-0.5-0.3-0.7-0.3
		c-1.7,0.5-3.4,1.1-5.2,1.7C133.1,60.5,133.4,63.2,133.7,66z M125,116.1c1.1-5.6,2.2-11.2,3.4-16.8c-2.3,0-4.5,0-6.7,0
		C122.8,104.9,123.9,110.5,125,116.1z M134,78.7c1.9-0.4,1.9-0.4,2.6-1.8c0.3-0.6,0.6-1.2,0.9-1.8c1.3-2.5,2.5-4.9,3.8-7.3
		c-2.2,0.7-4.5,1.3-6.8,2c-0.2,0.1-0.4,0.5-0.4,0.7C134,73.2,134,75.8,134,78.7z M108.9,67.8c1.5,3.1,3.2,6.1,4.6,9.3
		c0.5,1.1,1.2,1.4,2.5,1.6c0-2.8,0-5.5,0-8.2c0-0.2-0.2-0.7-0.4-0.7C113.4,69.1,111.1,68.4,108.9,67.8z M119,49.5
		c-0.1-0.1-0.1-0.2-0.2-0.2c-1.5,1.2-3,2.3-4.5,3.5c0,0.1,0.1,0.2,0.1,0.3c1.2,0.3,2.3,0.6,3.5,0.9C118.3,52.4,118.6,51,119,49.5z
		 M131.2,49.3c-0.1,0.1-0.1,0.2-0.2,0.3c0.4,1.4,0.7,2.9,1.1,4.5c1.2-0.3,2.4-0.7,3.5-1c0-0.1,0-0.2,0.1-0.3
		C134.2,51.6,132.7,50.4,131.2,49.3z"/>
	<path d="M126.2,47.6c0.7,2.3,1.4,4.5,2.1,6.9c-2.3,0.5-4.4,0.3-6.7,0.1c0.7-2.5,1.4-4.7,2.1-7C124.6,47.6,125.4,47.6,126.2,47.6z"
		/>
	<path d="M125.1,131.9c0.3-2.8,0.6-5.6,0.9-8.4c2.2-18.9,6.8-37.1,16.1-53.8c4.2-7.5,9.3-14.3,15.5-20.2c0.2-0.2,0.5-0.5,0.9-0.8
		c-0.1,0.3-0.1,0.4-0.1,0.6c-2.3,5.8-3.7,11.8-4.5,18c-1.1,7.8-2.1,15.6-2.8,23.4c-0.6,6.3-0.8,12.7-1.1,19.1
		c-0.5,9.8-1.8,19.4-5.3,28.6c-0.8,2-1.6,3.9-2.7,5.7c-2.1,3.8-5.6,6-9.6,7.2c-5.6,1.7-11.2,1.5-16.7-0.8c-3.6-1.5-6.3-3.9-8.1-7.4
		c-3.3-6.6-5.1-13.7-6.3-20.9c-1.1-7.1-1.2-14.3-1.6-21.4c-0.4-6.5-0.9-13.1-1.6-19.6c-0.6-5.9-1.5-11.7-2.5-17.6
		c-0.8-4.9-2-9.8-3.9-14.4c0-0.1-0.1-0.2-0.1-0.4c0.1-0.1,0.2-0.1,0.2-0.2c2.2,2.4,4.5,4.8,6.6,7.2c7.7,9.1,13.1,19.5,17.2,30.6
		c3.1,8.4,5.4,17,6.8,25.8c1,6.2,1.7,12.5,2.5,18.7c0,0.3,0.1,0.6,0.2,0.9C125,131.9,125.1,131.9,125.1,131.9z"/>
	<path d="M130.3,83.6c-0.1,2.6-0.2,5.3-0.3,7.9c0,0.9-0.1,1.8-0.2,2.8c0,0.5-0.2,0.9-0.8,0.9c-2.7,0-5.4,0-8,0
		c-0.3,0-0.8-0.4-0.8-0.7c-0.2-3.7-0.4-7.3-0.6-10.9C123.2,83.6,126.7,83.6,130.3,83.6z"/>
	<path d="M119.7,70.7c3.6,0,7,0,10.5,0c0.1,2.2,0.1,4.5,0.2,6.8c0,2.3,0,2.4-2.3,2.5c-2.5,0.1-5-0.1-7.5-0.2c-0.6,0-0.8-0.3-0.8-0.9
		C119.7,76.1,119.7,73.4,119.7,70.7z"/>
	<path d="M121,58.6c2.7,0,5.3,0,8,0c0.2,2,0.5,4,0.7,6c0,0.2,0,0.3,0,0.5c0.1,1.7,0.1,1.8-1.6,1.9c-2.6,0.1-5.3,0.3-8-0.4
		C120.4,63.9,120.7,61.2,121,58.6z"/>
	<path d="M116.3,66c-3.1-0.8-6.1-1.6-8.6-3.8c1.2-1.9,2.4-3.8,3.7-5.6c0.1-0.2,0.6-0.3,0.8-0.2c1.5,0.4,3,0.9,4.5,1.4
		c0.2,0.1,0.6,0.5,0.5,0.7C116.9,60.9,116.6,63.4,116.3,66z"/>
	<path d="M133.7,66c-0.3-2.8-0.6-5.5-0.9-8.1c1.8-0.6,3.5-1.1,5.2-1.7c0.2-0.1,0.6,0.1,0.7,0.3c1.2,1.8,2.4,3.7,3.6,5.6
		C139.8,64.4,136.8,65.2,133.7,66z"/>
	<path d="M125,116.1c-1.1-5.6-2.2-11.2-3.4-16.8c2.2,0,4.5,0,6.7,0C127.3,104.9,126.1,110.5,125,116.1z"/>
	<path d="M134,78.7c0-2.8,0-5.5,0-8.2c0-0.2,0.2-0.6,0.4-0.7c2.3-0.7,4.6-1.4,6.8-2c-1.2,2.4-2.5,4.8-3.8,7.3
		c-0.3,0.6-0.6,1.2-0.9,1.8C135.9,78.3,135.9,78.3,134,78.7z"/>
	<path d="M108.9,67.8c2.3,0.7,4.5,1.3,6.8,2c0.2,0.1,0.4,0.5,0.4,0.7c0,2.7,0,5.4,0,8.2c-1.3-0.2-2-0.5-2.5-1.6
		C112,73.9,110.4,70.8,108.9,67.8z"/>
	<path d="M119,49.5c-0.4,1.4-0.7,2.9-1.1,4.5c-1.2-0.3-2.3-0.6-3.5-0.9c0-0.1-0.1-0.2-0.1-0.3c1.5-1.2,3-2.3,4.5-3.5
		C118.9,49.4,118.9,49.4,119,49.5z"/>
	<path d="M131.2,49.3c1.5,1.1,3,2.3,4.5,3.4c0,0.1,0,0.2-0.1,0.3c-1.2,0.3-2.3,0.6-3.5,1c-0.4-1.6-0.7-3-1.1-4.5
		C131.1,49.5,131.2,49.4,131.2,49.3z"/>
</g>
</svg>
