<?xml version="1.0" encoding="utf-8"?>
<!-- Generator: Adobe Illustrator 18.0.0, SVG Export Plug-In . SVG Version: 6.00 Build 0)  -->
<!DOCTYPE svg PUBLIC "-//W3C//DTD SVG 1.1//EN" "http://www.w3.org/Graphics/SVG/1.1/DTD/svg11.dtd">
<svg version="1.1" id="Слой_1" xmlns="http://www.w3.org/2000/svg" xmlns:xlink="http://www.w3.org/1999/xlink" x="0px" y="0px"
	 width="250px" height="200px" viewBox="0 0 250 200" enable-background="new 0 0 250 200" xml:space="preserve">
<g>
	<path d="M169.4,125c0.8,2.8,1.6,5.5,2.4,8.3c0.8,2.8,1.7,5.6,2.4,8.5c0.7,2.6-0.9,5.2-3.4,5.9c-2.5,0.7-5.2-0.7-5.9-3.2
		c-1.3-4.2-2.5-8.4-3.7-12.6c-0.4-1.4-0.8-2.8-1.2-4.1c-1.1-0.1-2.2-0.1-3.2-0.3c-5.6-0.8-10-3.7-13.2-8.4c-0.2-0.3-0.4-0.4-0.8-0.4
		c-4.9,0-9.8,0-14.7,0c-0.1,0-0.3,0-0.4,0c0,0-0.1,0.1-0.1,0.1c0.2,0.2,0.4,0.3,0.6,0.5c3.1,3.1,6.2,6.2,9.3,9.3
		c0.6,0.6,1.2,1.2,1.4,2c0.2,0.7-0.1,1.3-0.7,1.6c-0.4,0.2-0.9,0.3-1.4,0.4c-0.3,0.1-0.7,0-1,0c-10.1,0-20.2,0-30.2,0
		c-0.7,0-1.3-0.1-2-0.2c-1.2-0.3-1.5-1.3-1-2.3c0.3-0.6,0.7-1.1,1.2-1.5c3.1-3.1,6.2-6.2,9.2-9.3c0.2-0.2,0.4-0.3,0.6-0.5
		c0,0,0-0.1-0.1-0.1c-0.2,0-0.4,0-0.6,0c-12.5,0-25,0-37.5,0c-2.2,0-3.8-1.7-3.8-3.8c0-19.7,0-39.3,0-59c0-2.1,1.6-3.8,3.8-3.8
		c30.1,0,60.3,0,90.4,0c2.4,0,3.9,1.5,3.9,3.9c0,11.8,0,23.7,0,35.5c0,0.5,0.1,0.8,0.6,1.1c4.5,3.1,7.2,7.3,8.2,12.6
		c1.4,7.5-2.1,15.3-8.6,19.5C169.6,124.8,169.5,124.9,169.4,125z M78.4,59.3c0,17.6,0,35.1,0,52.5c20.7,0,41.4,0,62.1,0
		c-0.9-6.5,0.8-12.1,5.3-16.7c4.6-4.6,10.2-6.3,16.6-5.5c0-10.1,0-20.3,0-30.3C134.4,59.3,106.5,59.3,78.4,59.3z M146.4,108.6
		c0,7.2,5.8,13,13,13c7.2,0,13-5.8,13-13c0-7.2-5.8-13-13-13C152.3,95.6,146.5,101.4,146.4,108.6z"/>
	<path fill="#FFFFFF" d="M108.2,84.9c0,4.9,0,9.9,0,14.8c0,0.3,0,0.5,0.1,0.8c0.3,1.6,1.7,2.6,3.3,2.4c1.5-0.2,2.6-1.5,2.6-3
		c0-9.9,0-19.9,0-29.8c0-0.2,0-0.4,0-0.6c-0.3-1.6-1.7-2.6-3.3-2.4c-1.5,0.2-2.6,1.4-2.6,3C108.2,74.9,108.2,79.9,108.2,84.9z
		 M130.1,87.9c0-4,0-7.9,0-11.9c0-1.8-1.3-3.1-3-3.1c-1.7,0-3,1.3-3,3.1c0,7.9,0,15.9,0,23.8c0,0.2,0,0.5,0.1,0.7
		c0.4,1.6,1.8,2.6,3.3,2.4c1.5-0.2,2.6-1.5,2.6-3C130.1,95.9,130.1,91.9,130.1,87.9z M100.2,90.9c0,3,0,5.9,0,8.9
		c0,0.2,0,0.5,0.1,0.7c0.4,1.6,1.7,2.6,3.3,2.4c1.5-0.2,2.6-1.5,2.6-3c0-6,0-11.9,0-17.9c0-0.2,0-0.4,0-0.6
		c-0.3-1.6-1.7-2.6-3.3-2.4c-1.5,0.2-2.6,1.4-2.6,3C100.2,84.9,100.2,87.9,100.2,90.9z M116.1,90.9c0,3,0,6,0,8.9
		c0,1.7,1.3,3.1,3,3.1c1.7,0,3-1.3,3-3.1c0-5.9,0-11.9,0-17.8c0-0.2,0-0.5-0.1-0.7c-0.4-1.6-1.7-2.6-3.3-2.4c-1.5,0.2-2.6,1.5-2.6,3
		C116.1,85,116.1,87.9,116.1,90.9z M92.2,93.6c0,2.1,0,4.1,0,6.2c0,1.8,1.3,3.1,3,3.1c1.7,0,3-1.3,3-3.1c0-4.1,0-8.3,0-12.4
		c0-1.7-1.3-3.1-3-3.1c-1.7,0-3,1.3-3,3.1C92.2,89.5,92.2,91.5,92.2,93.6z M132.2,96.9c0,1,0,2.1,0,3.1c0,1.6,1.3,2.9,3,2.9
		c1.7,0,3-1.3,3-2.9c0-2,0-4.1,0-6.1c0-1.7-1.3-3-3-3c-1.7,0-3,1.3-3,3C132.2,94.9,132.2,95.9,132.2,96.9z"/>
	<path d="M108.2,84.9c0-5,0-9.9,0-14.9c0-1.6,1.1-2.9,2.6-3c1.6-0.2,3,0.9,3.3,2.4c0,0.2,0,0.4,0,0.6c0,9.9,0,19.9,0,29.8
		c0,1.6-1.1,2.9-2.6,3c-1.6,0.2-3-0.8-3.3-2.4c-0.1-0.3-0.1-0.5-0.1-0.8C108.2,94.8,108.2,89.8,108.2,84.9z"/>
	<path d="M130.1,87.9c0,4,0,7.9,0,11.9c0,1.6-1.1,2.9-2.6,3c-1.6,0.2-3-0.8-3.3-2.4c-0.1-0.2-0.1-0.5-0.1-0.7c0-7.9,0-15.9,0-23.8
		c0-1.8,1.3-3.1,3-3.1c1.7,0,3,1.3,3,3.1C130.1,80,130.1,84,130.1,87.9z"/>
	<path d="M100.2,90.9c0-3,0-6,0-8.9c0-1.6,1.1-2.9,2.6-3c1.6-0.2,3,0.9,3.3,2.4c0,0.2,0,0.4,0,0.6c0,6,0,11.9,0,17.9
		c0,1.6-1.1,2.9-2.6,3c-1.6,0.2-3-0.8-3.3-2.4c-0.1-0.2-0.1-0.5-0.1-0.7C100.2,96.8,100.2,93.8,100.2,90.9z"/>
	<path d="M116.1,90.9c0-3,0-6,0-8.9c0-1.6,1.1-2.9,2.6-3c1.6-0.2,3,0.8,3.3,2.4c0.1,0.2,0.1,0.5,0.1,0.7c0,5.9,0,11.9,0,17.8
		c0,1.7-1.3,3.1-3,3.1c-1.7,0-3-1.3-3-3.1C116.1,96.9,116.1,93.9,116.1,90.9z"/>
	<path d="M92.2,93.6c0-2.1,0-4.2,0-6.2c0-1.7,1.3-3.1,3-3.1c1.7,0,3,1.3,3,3.1c0,4.1,0,8.3,0,12.4c0,1.7-1.3,3.1-3,3.1
		c-1.7,0-3-1.3-3-3.1C92.2,97.7,92.2,95.7,92.2,93.6z"/>
	<path d="M132.2,96.9c0-1,0-2,0-3c0-1.7,1.3-3,3-3c1.7,0,3,1.3,3,3c0,2,0,4.1,0,6.1c0,1.6-1.4,2.9-3,2.9c-1.6,0-3-1.3-3-2.9
		C132.2,98.9,132.2,97.9,132.2,96.9z"/>
	<path d="M169.5,108.1c0,2.2-0.5,3.9-1.4,5.5c-0.5,0.8-1.1,1.1-1.8,0.7c-0.7-0.4-0.8-1.1-0.3-1.9c1.6-2.9,1.3-6.1-0.7-8.6
		c-0.6-0.7-1.4-1.3-2.2-1.8c-0.7-0.5-1-1.1-0.7-1.8c0.4-0.7,1.1-0.8,1.9-0.4C167.6,101.8,169.3,104.7,169.5,108.1z"/>
</g>
</svg>
