<?xml version="1.0" encoding="utf-8"?>
<!-- Generator: Adobe Illustrator 18.0.0, SVG Export Plug-In . SVG Version: 6.00 Build 0)  -->
<!DOCTYPE svg PUBLIC "-//W3C//DTD SVG 1.1//EN" "http://www.w3.org/Graphics/SVG/1.1/DTD/svg11.dtd">
<svg version="1.1" id="Слой_1" xmlns="http://www.w3.org/2000/svg" xmlns:xlink="http://www.w3.org/1999/xlink" x="0px" y="0px"
	 width="250px" height="200px" viewBox="0 0 250 200" enable-background="new 0 0 250 200" xml:space="preserve">
<g>
	<path fill="#FFFFFF" d="M142,107.7c-6.2,7.7-12.3,15.4-18.5,23.1c-0.2-0.1-0.3-0.2-0.4-0.3c-5.3-4-10.6-7.9-15.9-11.9
		c-0.3-0.2-0.4-0.2-0.7,0c-5.7,4.3-11.4,8.5-17,12.8c-0.4,0.3-0.6,0.3-1,0.1c-4.7-2.4-9.3-4.7-14-7c-0.1-0.1-0.3-0.1-0.4-0.2
		c-1.3,2.6-2.6,5.2-3.9,7.8c0.2,0.1,0.3,0.2,0.4,0.2c6.3,3.2,12.6,6.3,19,9.5c0.3,0.2,0.5,0.1,0.8-0.1c4.3-3.3,8.7-6.5,13-9.8
		c1.2-0.9,2.4-1.8,3.6-2.7c6.1,4.5,12.1,9.1,18.2,13.6c5.4-6.8,10.9-13.6,16.3-20.4c5.8,8.7,11.6,17.4,17.4,26.1
		c7.1-8.8,14.1-17.6,21.1-26.4c-2.3-1.8-4.5-3.6-6.8-5.4c-4.6,5.7-9.1,11.4-13.7,17.1C153.6,125.1,147.8,116.4,142,107.7z
		 M140.2,61.6c-5.7,8.5-11.3,17-17,25.5c-0.1-0.1-0.3-0.2-0.4-0.3c-5.2-3.9-10.4-7.8-15.6-11.7c-0.3-0.2-0.4-0.2-0.7,0
		c-5.9,4.4-11.8,8.8-17.7,13.3c-0.2,0.2-0.5,0.2-0.8,0.2c-4.2-1.1-8.4-2.1-12.6-3.2c-0.8-0.2-1.6-0.4-2.4-0.6
		c-0.7,2.8-1.4,5.6-2.1,8.4c0.2,0,0.3,0.1,0.4,0.1c6.2,1.5,12.4,3.1,18.6,4.7c0.3,0.1,0.5,0,0.8-0.1c4.1-3.1,8.2-6.1,12.3-9.2
		c1.3-1,2.5-1.9,3.8-2.9c6.2,4.6,12.3,9.2,18.5,13.9c6-8.9,11.9-17.8,17.8-26.7c5.7,2.9,11.4,5.7,17.1,8.6
		c6.5-8.2,13.1-16.3,19.6-24.5c-2.3-1.8-4.5-3.6-6.8-5.4c-5.1,6.4-10.2,12.7-15.2,19C152,67.5,146.1,64.5,140.2,61.6z"/>
	<path d="M142,107.7c5.8,8.7,11.6,17.4,17.4,26.1c4.6-5.7,9.1-11.4,13.7-17.1c2.3,1.8,4.5,3.6,6.8,5.4c-7,8.8-14.1,17.6-21.1,26.4
		c-5.8-8.7-11.6-17.4-17.4-26.1c-5.5,6.8-10.9,13.6-16.3,20.4c-6.1-4.6-12.1-9.1-18.2-13.6c-1.2,0.9-2.4,1.8-3.6,2.7
		c-4.3,3.3-8.7,6.5-13,9.8c-0.3,0.2-0.5,0.2-0.8,0.1c-6.3-3.2-12.6-6.3-19-9.5c-0.1-0.1-0.3-0.1-0.4-0.2c1.3-2.6,2.6-5.2,3.9-7.8
		c0.2,0.1,0.3,0.1,0.4,0.2c4.7,2.3,9.4,4.7,14,7c0.4,0.2,0.7,0.2,1-0.1c5.7-4.3,11.4-8.5,17-12.8c0.3-0.2,0.4-0.2,0.7,0
		c5.3,4,10.6,8,15.9,11.9c0.1,0.1,0.2,0.2,0.4,0.3C129.7,123.1,135.8,115.4,142,107.7z"/>
	<path d="M140.2,61.6c5.9,3,11.8,5.9,17.7,8.8c5.1-6.3,10.1-12.7,15.2-19c2.3,1.8,4.5,3.6,6.8,5.4c-6.5,8.2-13.1,16.3-19.6,24.5
		c-5.7-2.9-11.4-5.7-17.1-8.6c-5.9,8.9-11.9,17.8-17.8,26.7c-6.2-4.6-12.3-9.2-18.5-13.9c-1.3,1-2.6,1.9-3.8,2.9
		c-4.1,3.1-8.2,6.1-12.3,9.2C90.5,98,90.3,98,90,98c-6.2-1.6-12.4-3.1-18.6-4.7c-0.1,0-0.2-0.1-0.4-0.1c0.7-2.8,1.4-5.6,2.1-8.4
		c0.8,0.2,1.6,0.4,2.4,0.6c4.2,1.1,8.4,2.1,12.6,3.2c0.3,0.1,0.5,0,0.8-0.2c5.9-4.4,11.8-8.8,17.7-13.3c0.3-0.2,0.4-0.2,0.7,0
		c5.2,3.9,10.4,7.8,15.6,11.7c0.1,0.1,0.2,0.2,0.4,0.3C128.9,78.6,134.5,70.1,140.2,61.6z"/>
</g>
</svg>
