<?xml version="1.0" encoding="utf-8"?>
<!-- Generator: Adobe Illustrator 18.0.0, SVG Export Plug-In . SVG Version: 6.00 Build 0)  -->
<!DOCTYPE svg PUBLIC "-//W3C//DTD SVG 1.1//EN" "http://www.w3.org/Graphics/SVG/1.1/DTD/svg11.dtd">
<svg version="1.1" id="point_x5F_on_x5F_map" xmlns="http://www.w3.org/2000/svg" xmlns:xlink="http://www.w3.org/1999/xlink"
	 x="0px" y="0px" width="250px" height="200px" viewBox="0 0 250 200" enable-background="new 0 0 250 200" xml:space="preserve">
<g>
	<path fill="none" stroke="#000000" stroke-miterlimit="10" d="M21.9,173.7"/>
	<path fill="none" stroke="#000000" stroke-miterlimit="10" d="M22.4,173.2"/>
</g>
<g>
	<path d="M71.3,147.5c15.5-17.5,30.6-34.4,45.8-51.5c5.5,6.1,10.9,11.9,16.5,18c8.2-14.5,16.2-28.8,24.3-43.3
		c-3.7-2.1-7.1-4.1-11.1-6.5c9.7-4.1,18.8-7.9,28.4-11.9c1.2,10,2.3,19.6,3.6,30c-3.5-2-6.6-3.7-10-5.6
		c-10.9,19.4-21.8,38.7-32.8,58.2c-6.2-6.8-12.3-13.5-18.6-20.4c-0.7,0.6-1.3,1.1-1.8,1.7C107,126,98.4,135.6,90,145.2
		c-1.4,1.6-2.8,2.4-5,2.3C80.6,147.4,76.3,147.5,71.3,147.5z"/>
</g>
</svg>
