<?xml version="1.0" encoding="utf-8"?>
<!-- Generator: Adobe Illustrator 18.0.0, SVG Export Plug-In . SVG Version: 6.00 Build 0)  -->
<!DOCTYPE svg PUBLIC "-//W3C//DTD SVG 1.1//EN" "http://www.w3.org/Graphics/SVG/1.1/DTD/svg11.dtd">
<svg version="1.1" id="Слой_1" xmlns="http://www.w3.org/2000/svg" xmlns:xlink="http://www.w3.org/1999/xlink" x="0px" y="0px"
	 width="250px" height="200px" viewBox="0 0 250 200" enable-background="new 0 0 250 200" xml:space="preserve">
<g>
	<path d="M130.7,102.9c-3.8,0.4-7.5,0.7-11.1,1.2c-6.3,1-12.4,2.7-17.6,6.5c-1.3,0.9-2.4,2.2-3.6,3.2c-0.3,0.3-0.7,0.5-1.1,0.5
		c-3.6,0-7.2,0.1-10.7-0.2c-5.7-0.5-9.4-4-10.5-9.9c-2-10.5-0.8-20.7,4.3-30.2c2.2-4.1,5-7.9,8.5-11c0.5-0.4,1.2-0.7,1.8-0.7
		c12.9,0,25.7,0,38.6,0c0.7,0,1.5,0.3,2,0.8c4.8,4.5,8.4,9.9,10.7,16.1c0.1,0.4,0.1,1-0.1,1.3C136.3,87.2,132.7,94.7,130.7,102.9
		C130.7,103,130.7,103,130.7,102.9z M111.4,102.6c1.9-0.8,3.6-1.3,5.1-2.1c2.5-1.4,3.7-3.8,3.6-6.6c-0.1-3.2-1.9-5.2-4.8-6.2
		c-1-0.4-2.1-0.7-3.2-1c-0.2-0.1-0.6-0.4-0.6-0.5c0-2.1,0-4.1,0-6.3c1.5,0.4,2,1.5,2.5,2.7c1.8-0.2,3.5-0.4,5.2-0.6
		c-0.6-3-2.5-5-5.6-5.8c-1.2-0.3-2.6-0.3-2.1-2.1c-1.1,0-2.1,0-3,0c-0.2,1.6-0.2,1.6-1.8,2c-0.2,0-0.4,0.1-0.6,0.1
		c-3.1,0.8-5.3,3.2-5.6,5.9c-0.3,3.5,1.2,6.1,4.4,7.6c0.9,0.4,1.8,0.6,2.7,1c0.3,0.1,0.8,0.4,0.8,0.6c0.1,2.3,0,4.5,0,7
		c-1.5-0.7-2.4-1.8-3-3.1c-0.1-0.3-0.4-0.8-0.6-0.7c-1.7,0.1-3.4,0.3-5.1,0.5c0.6,4.2,3.4,6.9,7.8,7.6c0.7,0.1,1,0.4,0.9,1.1
		c0,0.7,0,1.5,0,2.3c1.1,0,2.1,0,3.1,0C111.4,104.4,111.4,103.4,111.4,102.6z"/>
	<path d="M129.8,107.9c0,1.3,0,2.4,0,3.6c-2.5,0.4-5,0.6-7.5,1.1c-4.3,0.8-8.6,1.8-12.5,4.1c-1.1,0.6-2.1,1.4-3,2.3
		c-2.1,2.2-2.1,4.8,0.2,6.7c1.7,1.4,3.7,2.6,5.8,3.5c4.2,1.8,8.6,2.8,13.1,3.2c4.6,0.4,9.1,0.8,13.7,0.7c7.4-0.1,14.7-1,21.5-3.8
		c2.1-0.9,4.1-2.1,5.9-3.6c2.3-1.9,2.3-4.5,0.1-6.6c-1.6-1.5-3.5-2.6-5.4-3.9c0.6-0.9,1.4-2,2.2-3.2c5.3,2.4,9.3,5.9,10.4,11.8
		c1.3,6.9-0.7,13.1-4.5,18.8c-6.5,9.8-15.7,15.6-27.2,17.5c-17.3,2.9-34.7-6.9-41.7-21.9c-2-4.3-2.9-8.7-2.3-13.4
		c0.8-5.6,4.1-9.5,9-12c4.4-2.3,9.2-3.3,14-4C124.4,108.4,127,108.2,129.8,107.9z"/>
	<path d="M137.5,47.3c-3.2,3-6.3,5.9-9.5,8.8c-0.3,0.2-0.7,0.3-1.1,0.3c-11.3,0-22.6,0-33.9,0c-0.4,0-0.9-0.1-1.2-0.4
		c-3.1-2.8-6.2-5.7-9.4-8.8c1-1,1.9-2,2.9-2.9c3.3-2.9,7.1-4.7,11.5-4.9c2.8-0.1,5.3,0.6,7.7,2c0.9,0.5,1.8,1,2.7,1.5
		c1.9,1,3.7,1,5.6,0c0.7-0.4,1.4-0.7,2.1-1.1c6.7-4.1,14.1-2.3,19.4,2.2c0.8,0.7,1.5,1.4,2.2,2.1C136.8,46.5,137.1,46.9,137.5,47.3z
		"/>
	<path d="M157.7,110.8c-2.6,4.4-5.5,8.6-10.5,10.5c-1,0.4-2.4,0.3-3.5,0.1c-1.4-0.2-2.3-1.2-2.5-2.6c-0.3-1.5,0.3-2.7,1.5-3.5
		c1.5-1.1,3.3-1.2,5-1.3c1.3-0.1,2.7,0.1,4-0.1C154.3,113.5,155.7,112.7,157.7,110.8z"/>
	<path d="M167.5,92c-0.1-0.2-0.1-0.2-0.1-0.2c-2.4,4.4-5.5,8.3-10.4,10.2c-1,0.4-2.4,0.3-3.5,0.1c-1.3-0.2-2.2-1.1-2.5-2.5
		c-0.3-1.5,0.3-2.8,1.5-3.7c1.5-1,3.3-1.2,5-1.3c1.7-0.1,3.4,0.1,5-0.4C164.4,93.8,165.9,92.8,167.5,92z"/>
	<path d="M140.3,90c0.1,1.3-0.1,2.6,0.3,3.8c0.5,1.6,1.4,3.1,2.2,4.6c0.8,1.6,2,3,2.6,4.7c0.9,2.5-0.4,4.6-2.7,5
		c-1.6,0.3-2.8-0.6-3.7-1.8c-1.2-1.7-1.5-3.6-1.4-5.6c0.1-3.6,1-7,2.4-10.2C140.1,90.3,140.2,90.1,140.3,90z"/>
	<path d="M135.3,99.9c-0.6,4,1.4,6.9,3.6,9.8c1.1,1.5,1.9,3.2,1.6,5.2c-0.5,2.7-3.4,3.8-5.5,2.1c-1.4-1.1-2.1-2.7-2.2-4.4
		C132.2,108.2,133.3,104,135.3,99.9z"/>
	<path d="M145.3,80.4c-0.8,4,1.1,6.9,3.3,9.8c1.1,1.5,1.9,3.1,1.8,5.1c-0.1,1.4-0.7,2.4-2,3c-1.2,0.5-2.4,0.3-3.5-0.5
		c-1.3-1-2-2.4-2.2-4c-0.7-4.6,0.5-8.9,2.3-13C145,80.7,145.1,80.6,145.3,80.4z"/>
	<path d="M162.4,101.5c-1.9,3.6-4.3,6.7-7.7,8.8c-1.2,0.8-2.8,1.4-4.2,1.6c-2.7,0.4-4.6-1.4-4.2-3.9c0.1-0.8,0.7-1.8,1.3-2.3
		c1.1-0.7,2.5-1.1,3.8-1.4c1.3-0.2,2.6,0,4-0.1C157.9,104.1,160.3,103.4,162.4,101.5z"/>
	<path d="M160.5,77.9c-0.2,4.3-0.5,8.2-1.9,11.9c-0.2,0.6-0.6,1.2-0.9,1.8c-1.1,1.7-2.5,2.2-4.2,1.4c-1.8-0.8-2.6-2.3-2.1-4.2
		c0.1-0.4,0.2-0.9,0.4-1.2C153.8,83.7,156.9,80.9,160.5,77.9z"/>
	<path d="M140.7,122.2c-1.8,2.8-3.5,5.6-5.2,8.4c-0.4,0.7-1.1,0.9-1.6,0.4c-0.5-0.5-1.4-1.3-1.3-1.8c1.1-3.2,2.3-6.3,3.5-9.3
		C137.7,120.6,139.1,121.4,140.7,122.2z"/>
	<path fill="#FFFFFF" d="M111.5,98.9c2.1-0.4,3.4-1.8,3.4-3.4c0-1.6-1.3-2.8-3.4-3.1C111.5,94.5,111.5,96.7,111.5,98.9z M108.2,80.5
		c-1.5,0.2-2.5,1.3-2.5,2.6c-0.1,1.5,0.9,2.6,2.5,3C108.2,84.2,108.2,82.4,108.2,80.5z"/>
	<path d="M111.5,98.9c0-2.2,0-4.4,0-6.6c2.1,0.3,3.4,1.5,3.4,3.1C114.9,97.2,113.6,98.5,111.5,98.9z"/>
	<path d="M108.2,80.5c0,1.9,0,3.7,0,5.6c-1.6-0.4-2.6-1.5-2.5-3C105.7,81.8,106.7,80.7,108.2,80.5z"/>
</g>
</svg>
