<?xml version="1.0" encoding="utf-8"?>
<!-- Generator: Adobe Illustrator 18.0.0, SVG Export Plug-In . SVG Version: 6.00 Build 0)  -->
<!DOCTYPE svg PUBLIC "-//W3C//DTD SVG 1.1//EN" "http://www.w3.org/Graphics/SVG/1.1/DTD/svg11.dtd">
<svg version="1.1" id="Режим_изоляции"
	 xmlns="http://www.w3.org/2000/svg" xmlns:xlink="http://www.w3.org/1999/xlink" x="0px" y="0px" width="250px" height="200px"
	 viewBox="0 0 250 200" enable-background="new 0 0 250 200" xml:space="preserve">
<g>
	<g>
		<path d="M80.7,108.5C68,109,57.1,97.5,56.8,84.9C56.5,70.9,68.1,59.9,81,60c13.3,0.1,23.8,11,23.8,24.6
			C104.8,98.6,92.6,109.1,80.7,108.5z"/>
		<path d="M122.5,84.6c-4.8,1.7-9.6,3.4-14.6,5.2c0-3.7,0-7.1,0-10.9c5,1.8,9.8,3.5,14.6,5.2C122.5,84.3,122.5,84.4,122.5,84.6z"/>
		<path d="M57.7,68.4c-2-4.3-4.3-9-6.5-13.8c0.1-0.1,0.2-0.2,0.3-0.3c4.7,2.3,9.3,4.5,13.8,6.7C62.7,63.5,60.2,66,57.7,68.4z"/>
		<path d="M103.9,68.5c-2.5-2.5-4.9-5-7.5-7.5c4.3-2.1,9-4.3,13.6-6.6c0.1,0.1,0.2,0.2,0.3,0.3C108.2,59.3,106,64,103.9,68.5z"/>
		<path d="M86.2,57.1c-3.7,0-7.1,0-10.8,0c1.7-5,3.4-9.9,5.2-14.8c0.1,0,0.3,0,0.4,0C82.7,47.1,84.4,52,86.2,57.1z"/>
		<path d="M86.2,111.6c-1.7,5-3.4,9.9-5.1,14.8c-0.2,0-0.3,0-0.5,0c-1.7-4.9-3.4-9.8-5.2-14.8C79,111.6,82.5,111.6,86.2,111.6z"/>
		<path d="M53.8,78.8c0,3.7,0,7.1,0,10.9c-4.9-1.7-9.8-3.5-14.6-5.2c0-0.2,0-0.3-0.1-0.5C43.9,82.3,48.8,80.6,53.8,78.8z"/>
		<path d="M65.4,107.6c-4.5,2.2-9.1,4.4-13.8,6.6c-0.1-0.1-0.2-0.2-0.3-0.3c2.2-4.7,4.4-9.4,6.4-13.9
			C60.3,102.6,62.8,105.1,65.4,107.6z"/>
		<path d="M104,100.3c2,4.2,4.2,8.9,6.4,13.5c-0.1,0.1-0.2,0.2-0.3,0.3c-4.7-2.2-9.3-4.5-13.7-6.6C99,105.2,101.4,102.8,104,100.3z"
			/>
	</g>
	<g>
		<path d="M210.9,131.3c-0.1,0.4-0.1,0.9-0.2,1.3c-0.4,2.7-1.4,5.2-2.9,7.5c-2.3,3.3-5.3,5.6-9.2,6.8c-1.6,0.5-3.3,0.8-4.9,0.8
			c-5.1,0-10.2,0-15.2,0c-15.8,0-31.5,0-47.3,0c-4.5,0-8.6-1.4-12.1-4.3c-3.5-2.8-5.7-6.4-6.6-10.8c-0.2-0.9-0.3-1.7-0.4-2.6
			c0-0.1,0-0.2-0.1-0.3c0-0.8,0-1.6,0-2.4c0.1-0.6,0.1-1.1,0.2-1.7c0.2-1.6,0.7-3.1,1.3-4.6c0.9-2.1,2.1-3.9,3.6-5.5
			c1.7-1.8,3.6-3.2,5.9-4.3c0.5-0.2,0.9-0.4,1.4-0.6c0.1,0,0.2-0.2,0.2-0.3c0.4-3.6,1.8-6.6,4.5-9.1c1.9-1.7,4.1-2.8,6.6-3.4
			c1.7-0.4,3.4-0.4,5.2-0.1c1.9,0.3,3.6,1,5.2,2.1c3.4-6.5,8.4-11,15.4-13.3c5.2-1.7,10.5-1.7,15.7-0.1c3.7,1.1,6.9,3,9.8,5.6
			c2.8,2.6,5,5.7,6.5,9.2c1.5,3.5,2.1,7.2,2,11.1c0.5,0.1,1,0.1,1.4,0.3c5.8,1.3,10,4.6,12.5,9.9c0.9,1.9,1.4,3.9,1.6,6
			c0,0.1,0,0.2,0.1,0.2C210.9,129.8,210.9,130.6,210.9,131.3z M191,116.6c0.1-1,0.2-2,0.3-2.9c0.2-2.2,0.1-4.3-0.3-6.5
			c-0.7-3.4-2.1-6.5-4.3-9.3c-2.4-3-5.3-5.3-8.8-6.8c-4-1.7-8.1-2.1-12.3-1.4c-3.7,0.6-7,2.1-9.9,4.4c-3.3,2.6-5.6,5.8-7.1,9.7
			c-0.3,0.9-0.7,1.7-1,2.6c-0.1-0.1-0.2-0.1-0.3-0.2c-0.8-0.7-1.5-1.4-2.3-2.1c-1.5-1.3-3.1-2.1-5.1-2.5c-1.9-0.3-3.8-0.1-5.5,0.7
			c-3.1,1.4-5,3.7-5.8,7c-0.3,1.2-0.3,2.4-0.1,3.7c0,0.3,0,0.4-0.3,0.5c-0.9,0.3-1.9,0.6-2.8,0.9c-3.4,1.4-5.9,3.6-7.7,6.8
			c-1.7,3.1-2.2,6.4-1.6,9.9c0.6,3.2,2,6,4.4,8.3c3,2.9,6.6,4.3,10.8,4.3c20.6,0,41.1,0,61.7,0c0.5,0,1.1,0,1.6-0.1
			c2.6-0.3,5-1.2,7.1-2.9c4-3.3,5.7-7.5,5.1-12.6c-0.3-2.5-1.3-4.7-2.9-6.6c-2.9-3.5-6.5-5.2-11-5.1
			C192.3,116.5,191.7,116.6,191,116.6z"/>
	</g>
</g>
</svg>
