<?xml version="1.0" encoding="utf-8"?>
<!-- Generator: Adobe Illustrator 18.0.0, SVG Export Plug-In . SVG Version: 6.00 Build 0)  -->
<!DOCTYPE svg PUBLIC "-//W3C//DTD SVG 1.1//EN" "http://www.w3.org/Graphics/SVG/1.1/DTD/svg11.dtd">
<svg version="1.1" id="Слой_1" xmlns="http://www.w3.org/2000/svg" xmlns:xlink="http://www.w3.org/1999/xlink" x="0px" y="0px"
	 width="250px" height="200px" viewBox="0 0 250 200" enable-background="new 0 0 250 200" xml:space="preserve">
<g>
	<path d="M126.5,46.7c0.1,0,0.2,0,0.3,0c5,1.1,7.7,4.7,9.8,9c0.2,0.3,0.3,0.7,0.5,1c0.8-0.2,1.5-0.5,2.3-0.6c5.1-1,9.2,0.8,12.3,4.7
		c3,3.7,4.6,8,5.1,12.6c0.9,7.6-5,11.8-11.2,9.5c-7.6-2.9-12.7-8.4-15.2-16.2c-0.8-2.7-0.3-5.1,2.1-7c0.7-0.5,0.8-1.1,0.4-1.9
		c-1.2-2.3-2.5-4.6-4.6-6.1c-1.6-1.2-3.2-1.2-4.9-0.1c-2.8,1.7-3.9,4.4-4,7.5c-0.1,2.9-0.1,5.7,0,8.6c0.2,5.5,0.3,11.1,0.9,16.6
		c0.4,3.9,1.5,7.8,2.4,11.6c0.8,3.5,1.6,6.9,2.4,10.6c0.1,0.5,0.6,0.9,1.2,0.9h61.8c0.4,2.7,0.3,2,0.7,4.7c-1.6,0.5-3.3,1-4.9,1.5
		c-3.3,1-6.5,2.3-9.9,3.1c-3,0.7-6.2,1-9.3,1.5c-4.2,0.6-8.5,1.2-12.8,1.8c-0.9,0.1-1.8,0-2.7-0.3c-9-3-18-5.9-27-9
		c-2.4-0.8-4.6-2-6.9-3.3h1.9c0.7,0,1.3-0.6,1.2-1.3c-0.2-1.6-0.4-3-0.5-4.5c-0.8-8.5-1.7-17.1-2.4-25.7c-0.2-1.9-1.2-3.6-2.7-4.7
		c-1.4-1-2.8-2-4.3-2.9c-2.9-1.7-5.8-0.4-6.3,2.9c-0.1,0.3-0.1,0.7-0.2,1c-0.1,0.6,0.2,1.1,0.8,1.3c4.4,1.6,6.6,6,5.9,11.2
		c-0.5,4.1-2,7.7-5.4,10.2c-3.4,2.4-8.2,2.6-9.6-3.5c-0.2-0.8-0.4-1.6-0.4-2.4c-0.3-4.8,0.3-9.4,3.2-13.3c0.9-1.3,1.3-2.5,1.4-4
		c0.1-1.2,0.3-2.4,0.7-3.5c1.6-4.8,5.3-6.6,10-4.6c2,0.8,3.8,2.1,5.6,3.2c0.3,0.2,0.6,0.4,1.1,0.7c0-1.1-0.1-1.9-0.1-2.8
		c-0.2-3.4-0.3-6.8,0.9-10c1.4-3.9,4-6.7,8.1-7.8c0.1,0,0.2-0.1,0.3-0.2C125.1,46.7,125.8,46.7,126.5,46.7z M137.4,59.3
		c-0.4,0.2-0.8,0.5-1.1,0.7c-0.6,0.4-0.7,1.3-0.2,1.8c3.8,4.2,7.6,8.3,11.4,12.4c0.9,1,2.5,0,2-1.3c-2.3-5.3-6-9.8-10.6-13.6
		C138.4,59.1,137.8,59.1,137.4,59.3z M100,81.8c0.2-1.2,0.4-2.4,0.6-3.5c0.2-0.9-0.7-1.6-1.6-1.3c-1.2,0.4-1.1,0.7-1.3,3
		c0,0.5-0.1,1-0.2,1.5c0,0,0,0.1,0,0.1C97.6,83,99.7,83.2,100,81.8z"/>
	<path d="M196,151.3c-5.8-1.4-11.6-2.8-17.5-4.2c-2.8-0.7-5.7-1.3-8.5-2c-0.4-0.1-1-0.4-1.2-0.8c-4.6-6.6-9.1-13.1-13.6-19.7
		c-0.1-0.1-0.1-0.2-0.2-0.5c3.6-0.5,7.1-1,10.7-1.4c3.1-0.4,6.2-0.9,9.3-1.2c1-0.1,2.1-0.1,3.1,0.2c6,1.9,11.9,3.8,17.9,5.7
		C196,135.4,196,143.4,196,151.3z"/>
	<path d="M57,110.8c6.3,0,9.6-3.3,16.2-3.3c-0.2,0.6-0.4,1.2-0.7,1.7c-1.1,2.5-2.2,5-3.3,7.5c-0.2,0.5-0.6,1.1-1.1,1.3
		c-4.7,2.5-9.4,5-14.2,7.5C54,119.5,57,116.8,57,110.8z"/>
	<path d="M105.5,129.9c4.2-5.2,8.2-10.3,12.4-15.4c0.2-0.3,0.9-0.4,1.3-0.3c9.2,3,18.4,6.1,27.5,9.1c0.4,0.1,0.8,0.4,1.1,0.8
		c4.9,6.9,9.7,13.7,14.6,20.6c0,0.1,0.1,0.2,0.1,0.4c-2.5,0.5-4.9,1-7.4,1.4c-4.3,0.8-8.5,1.6-12.8,2.4c-0.7,0.1-1.6,0.1-2.2-0.2
		c-11.4-6.1-22.7-12.3-34.1-18.5C105.9,130.2,105.8,130.1,105.5,129.9z"/>
	<path d="M113,111.6c-2.6,3.3-5.1,6.4-7.6,9.5c-0.7,0.9-1.4,1.7-2.1,2.6c-2.4,3.5-5.5,6.1-9.3,8.1c-2.7,1.4-5.1,3.1-7.8,4.6
		c-3.2-4-6.3-7.9-9.4-11.8c-1.2-1.5-2.5-3-3.6-4.6c-0.3-0.4-0.4-1.1-0.2-1.5c1.7-3.4,3.4-6.9,5.2-10.3c0.2-0.4,0.8-0.8,1.2-0.8
		c9.5,0,19,0,28.4,0c0.3,0,0.8,0.1,1,0.3C110.3,109,111.7,110.3,113,111.6z"/>
</g>
</svg>
