<?xml version="1.0" encoding="utf-8"?>
<!-- Generator: Adobe Illustrator 18.0.0, SVG Export Plug-In . SVG Version: 6.00 Build 0)  -->
<!DOCTYPE svg PUBLIC "-//W3C//DTD SVG 1.1//EN" "http://www.w3.org/Graphics/SVG/1.1/DTD/svg11.dtd">
<svg version="1.1" id="Слой_1" xmlns="http://www.w3.org/2000/svg" xmlns:xlink="http://www.w3.org/1999/xlink" x="0px" y="0px"
	 width="250px" height="200px" viewBox="0 0 250 200" enable-background="new 0 0 250 200" xml:space="preserve">
<g>
	<g>
		<path d="M121.5,163.4c-7.2,0-14.5,0-21.7,0c-3.6,0-5.8-3.4-4.2-6.5c0.2-0.4,0.5-0.8,0.9-1.2c7.2-7.5,14.4-14.9,21.6-22.4
			c2-2,4.8-2.1,6.8,0c7.3,7.5,14.6,15,21.8,22.5c1.3,1.4,1.7,3.1,0.9,4.9c-0.8,1.8-2.4,2.7-4.3,2.7c-7,0-14.1,0-21.1,0
			C121.9,163.4,121.7,163.4,121.5,163.4z"/>
		<path d="M77,130.7c-2.8,0-4.7-1.6-5-3.8c-0.3-2.5,1.3-4.7,3.8-5.1c5.7-1,11.4-2,17.1-3c9.8-1.7,19.6-3.5,29.3-5.2
			c8.9-1.6,17.7-3.1,26.6-4.7c7.6-1.3,15.2-2.7,22.8-4c1-0.2,2.1-0.2,3.1,0c2,0.5,3.3,2.4,3.2,4.5c-0.1,1.9-1.5,3.7-3.5,4.1
			c-3.8,0.8-7.7,1.4-11.5,2.1c-9.7,1.7-19.5,3.5-29.2,5.2c-8.9,1.6-17.7,3.1-26.6,4.7c-9.7,1.7-19.4,3.5-29.1,5.2
			C77.5,130.6,77.1,130.6,77,130.7z"/>
	</g>
	<g>
		<path d="M86.3,96.4c0.9,5.9-2.4,9.6-6.5,10.2c-4.3,0.7-8.2-2.1-9-7.4c-0.8-5,1.7-9.3,6.6-10.1C82.3,88.4,85.6,91.6,86.3,96.4z
			 M75.7,98.3c0.4,3,1.8,4.9,3.7,4.7c1.9-0.3,2.5-2.3,2-5.5c-0.4-2.9-1.6-5-3.6-4.7C75.9,93.1,75.3,95.5,75.7,98.3z M82,118.4
			l11.8-31.7l3.6-0.5l-11.9,31.7L82,118.4z M108.4,105.1c0.9,5.9-2.4,9.6-6.5,10.2c-4.3,0.6-8.1-2.1-9-7.4c-0.8-5,1.7-9.3,6.6-10.1
			C104.4,97.1,107.7,100.3,108.4,105.1z M97.9,107c0.4,3,1.7,4.9,3.6,4.7c1.9-0.3,2.5-2.3,2-5.5c-0.4-2.9-1.5-5-3.6-4.7
			C98,101.8,97.5,104.2,97.9,107z"/>
	</g>
</g>
</svg>
