<?xml version="1.0" encoding="utf-8"?>
<!-- Generator: Adobe Illustrator 18.0.0, SVG Export Plug-In . SVG Version: 6.00 Build 0)  -->
<!DOCTYPE svg PUBLIC "-//W3C//DTD SVG 1.1//EN" "http://www.w3.org/Graphics/SVG/1.1/DTD/svg11.dtd">
<svg version="1.1" id="Режим_изоляции"
	 xmlns="http://www.w3.org/2000/svg" xmlns:xlink="http://www.w3.org/1999/xlink" x="0px" y="0px" width="250px" height="200px"
	 viewBox="0 0 250 200" enable-background="new 0 0 250 200" xml:space="preserve">
<g>
	<path d="M189,125.2c0,0.3,0,0.8,0,1.4c1.2,0,2.4,0,3.6,0c0.9,0,1.5,0.3,1.9,1c0.2,0.3,0.5,0.6,0.7,0.9c0.6,1,0.6,2,0.2,3
		c-0.4,1-0.7,2-1.2,3c-0.3,0.6-0.9,1.1-1.5,1.3c-1.4,0.5-2.7,1-4.2,1.1c-0.8,0-1.6,0.5-2.5,0.8c-0.5,0.2-0.7,0.6-0.6,1.1
		c0.1,0.5,0.5,0.9,1.1,0.9c2.3,0.1,4.5,0.2,6.8,0.3c1.7,0.1,3.5,0.2,5.2,0.3c0.4,0,0.5,0.3,0.5,0.6c-0.1,1-0.2,2-0.3,3
		c0,1.4,0,2.8,0,4.2c0,1.4,0.1,1.2-1.2,1.2c-0.1,0-0.2,0-0.5,0c0,0.5,0,1,0,1.5c0,1.5,0,3.1,0,4.6c0,0.4-0.1,0.6-0.6,0.6
		c-1.4,0-2.8,0.1-4.2,0.1c-1.2,0-2.4-0.1-3.6-0.1c-0.5,0-0.7-0.3-0.7-0.8c0-1,0-2,0-3c-1.5,0-3,0-4.6,0c0.1,1,0.2,1.9,0.3,2.9
		c0.1,0.5,0.2,1,0.2,1.5c0,2.2,0,4.5,0,6.7c0,1-0.3,1.2-1.3,1.1c-0.1,0-0.2-0.1-0.3-0.1c-1.3-0.4-1.7-0.2-2.3,0.9
		c-0.2,0.3-0.3,0.6-0.5,0.9c0,0.1-0.1,0.2-0.1,0.2c-1.1,0.2-2,1.3-3.2,0.9c-0.3-0.1-0.6-0.6-0.8-1c-0.6,0-0.6-0.4-0.6-0.9
		c0-0.2-0.2-0.4-0.3-0.7c-0.1-0.2-0.2-0.5-0.2-0.7c-0.2-1.2-0.3-2.3-0.4-3.5c-0.1-0.7-0.8-1.3-1.5-1.3c-0.3,0-0.7,0-1,0
		c-0.6,0.1-1.1-0.1-1-1.1c-0.4,0.3-0.6,0.4-0.9,0.6c-0.2,0.1-0.4,0.2-0.6,0.2c-0.5,0-1.1-0.1-1.6,0c-0.4,0.1-0.7,0.3-1,0.5
		c-0.1,0.1-0.2,0.2-0.3,0.2c-1-0.2-1.9,0.4-2.9,0.5c-0.2,0-0.3,0.2-0.5,0.3c-0.2,0.1-0.4,0.2-0.6,0.2c-1,0.1-2,0.1-2.9,0.1
		c-0.4,0-0.8-0.3-1.2-0.3c-0.5-0.1-0.9-0.1-1.4,0c-0.5,0-0.7-0.2-0.6-0.7c0-1.1,0-2.3,0-3.4c0-0.4-0.1-0.9,0.1-1.1
		c0.3-0.2,0.8-0.2,1.2-0.2c0,0,0.1,0,0.3,0c0.1-0.6,0.3-1.3,0.4-1.9c0-0.1,0.2-0.3,0.3-0.3c0.6-0.1,1.2-0.1,1.8-0.1c0-1,0-1.9,0-2.8
		c-0.2,0-0.5,0-0.8,0c-0.1,0.6-0.1,1.1-0.2,1.6c0,0.2-0.3,0.4-0.4,0.5c-0.5,0.1-1,0-1.5,0.5c-0.3,0.3-1,0.2-1.5,0.2
		c0,0-0.1,0-0.2,0.1c0,0.5,0,1,0,1.5c0,0.4,0,0.7-0.5,0.7c-0.4,0-0.9,0-1.3,0c-0.1,0-0.3,0-0.3-0.1c-0.3-0.8-1-0.4-1.6-0.5
		c-0.2,0-0.4,0-0.6,0c-0.8,0-1-0.1-1-1c0-0.4,0-0.8,0-1.4c-0.9,0.1-1.7,0.3-2.6,0.3c-0.8,0-1.8,0.5-2.5-0.5
		c-0.1-0.2-0.6-0.3-0.8-0.3c-0.7,0.1-1-0.2-0.9-0.9c0-0.1,0-0.2,0-0.3c-1.1-0.3-2.3,0.6-2.4,1.8c0,0.6-0.2,0.8-0.8,0.8
		c-1.5,0-2.4,0.9-2.3,2.4c0,0.9,0,1.8-0.7,2.5c-0.2,0.3-0.3,0.8-0.3,1.2c-0.1,0.6-0.4,0.9-1,0.8c-0.9-0.1-1.7-0.2-2.6-0.3
		c-0.6-0.1-1.2-0.3-1.8-0.4c-0.6-0.1-1.3-0.1-1.9-0.1c-0.8,0-1.4-0.2-1.9-0.7c-0.1-0.1-0.4-0.2-0.6-0.3c0,0,0,0-0.1,0
		c-1.7-0.3-3,0.6-4.2,1.6c-0.3,0.2-0.6,0.5-0.9,0.7c-0.4,0.3-1.3-0.1-1.2-0.6c0.1-1-0.6-1.6-1-2.5c-0.4-1-1.1-1.9-1.1-3
		c0-0.3-0.5-0.7-0.9-0.9c-0.4-0.2-0.8-0.2-1.3-0.3c-0.5-0.1-0.8,0-0.8,0.6c0,0.6,0,1.3,0,1.9c0,0.5-0.1,0.7-0.7,0.7
		c-1.8,0-3.6,0-5.4,0c-0.7,0-1.3,0.2-1.8,0.8c-0.2,0.2-0.6,0.3-0.9,0.3c-1,0-1.6,0.5-1.6,1.6c0,0.5,0,1-0.2,1.5
		c0,0.2-0.4,0.4-0.6,0.4c-1.2,0.1-2.4,0-3.6-0.4c-0.8-0.2-1.6-0.2-2.4-0.1c-1.3,0-1.9-1.3-1.5-2.4c0.1-0.2,0.1-0.6,0-0.8
		c-0.3-0.5-0.5-0.9-0.1-1.5c0.4-0.6,0.1-1.3-0.5-1.8c-0.2-0.2-0.3-0.5-0.3-0.7c0-0.5-0.2-0.7-0.6-0.8c-0.5,0-0.7-0.4-0.7-0.8
		c0-0.6,0.1-1.2,0.1-1.9c-1,0.2-2-0.4-2.9,0.6c-0.3,0.4-0.4,0.7-0.2,1.1c0.1,0.3,0.1,0.7-0.1,0.9c-0.1,0.2-0.6,0.2-0.9,0.1
		c-0.6-0.1-1.2-0.3-1.8-0.4c-0.3,0-0.5,0-0.8,0.1c-0.7,0.2-1,0.1-1-0.7c0,0,0-0.1,0-0.1c0-1.6-0.2-1.7-1.7-1.8
		c-0.4,0-0.7-0.1-1.1-0.2c0.1-0.4,0.2-0.9,0.3-1.3c0.1-0.2,0.2-0.5,0.3-0.7c0.2-0.4,0.2-1,0.5-1.2c0.5-0.5,0.5-1,0.5-1.6
		c0-0.3,0.1-0.6,0.2-0.7c0.5-0.5,1.1-1,1.7-1.4c0.4-0.3,0.8-0.4,1.4-0.6c0.8-1.8,2.5-2.3,4.4-2.5c0-0.5,0-0.9,0-1.3
		c0-0.8,0.3-1.2,1.1-1c0.8,0.2,0.9-0.2,0.9-0.8c0-0.2,0-0.5,0-0.8c-0.8,0.1-1.1-0.3-1-1c0-0.2-0.2-0.5-0.3-0.5
		c-0.6-0.1-0.8-0.4-0.6-1c-0.9-0.1-1.6,0.3-1.8,1.2c-0.1,0.4-0.3,0.7-0.7,0.7c-0.5,0-1.1,0.1-1.6,0.2c0.1,0.8-0.3,0.9-1,0.8
		c-1.6-0.1-3.1-0.6-4.6-1.2c-1-0.4-2.1-0.7-3.2-0.9c-1.5-0.2-3.1-0.3-4.6-0.3c-0.9,0-1.4-0.4-2-0.9c-0.3-0.2-0.7-0.6-1-0.7
		c-1.1-0.4-1.6-1.1-1.6-2.2c0-1.1,0-2.2,0-3.6c-0.5,0.2-0.9,0.4-1.3,0.5c-0.2,0.1-0.5,0.1-0.7,0.2c-0.3,0.1-0.5,0.3-0.8,0.3
		c-1,0.2-2,0.3-3.1,0.4c-0.1,0-0.2-0.1-0.3-0.2c-0.5-0.8-1.3-0.8-2.1-0.7c-1.1,0.1-1.4-0.3-1.6-1.4c-0.5,0-0.9,0-1.4,0
		c-0.4,0-0.6-0.2-0.7-0.7c-0.2-0.9-0.5-1.8-0.7-2.8c-0.1-0.5-0.1-1-0.2-1.6c-0.2,0.2-0.5,0.3-0.6,0.5c-0.2,0.5-0.5,0.6-1,0.4
		c-0.5-0.1-0.8-0.3-0.9-0.9c-0.1-0.8-0.3-1.8-1.3-2.2c-0.1,0-0.2-0.3-0.2-0.5c0-0.7,0-1.4,0-2.1c0-0.2,0.2-0.6,0.5-0.6
		c0.9-0.3,1.8-0.5,2.7-0.8c0.5-0.2,0.9-0.5,1.3-0.8c0.4-0.4,0.9-0.8,1.2-1.4c0.3-0.5,0.3-1.1,0.4-1.6c0.2-0.6,0.4-1.1,0.6-1.7
		c0.3-0.7,0.5-1.5,0.8-2.2c0.4-1.4,0.7-2.7,0.4-4.2c-1.5,0-3,0-4.5,0c-0.8,0-1.5-0.1-2.3,0c-1.5,0.2-1.8-0.7-1.9-1.9
		c0-0.4,0-0.7,0-1.1c-0.1-0.1-0.1-0.1-0.2-0.1c-1.4-0.1-1.4-0.1-1.4-1.5c0-1.2,0-2.4,0-3.7c0-1.2,0-2.3,0-3.4
		c-0.7-0.2-1.4-0.2-1.8-0.6c-0.3-0.3-0.3-1-0.5-1.5c-0.1,0.3-0.4,0.6-0.4,0.9c0,0.6-0.4,0.5-0.8,0.6c-1.8,0.5-3.7,0.2-5.6,0.2
		c-0.8,0-1.5-0.1-2.3-0.1c-0.2,0-0.4-0.3-0.4-0.5c-0.1-0.9-0.1-1.9-0.2-2.8c-0.1-0.8-0.3-1.7-0.5-2.5c-0.1-0.4-0.1-0.8-0.1-1.2
		c-0.2-1-0.4-1.9-0.7-2.8c0-0.2-0.3-0.4-0.5-0.4c-1-0.3-1.2-0.4-1.1-1.5c0-0.7,0.1-1.3,0.1-2c0-0.4-0.1-0.6-0.5-0.6
		c-0.5,0-0.9,0-1.4,0c-0.4,0-0.6-0.2-0.6-0.6c0-1.7,0-3.5,0-5.2c0-1,0.1-2,0.1-2.9c0-0.4,0.2-0.6,0.6-0.6c1.1,0,2.3,0,3.4,0
		c0.1-0.8,0.6-1,1.3-1c0.7,0,1.5,0,1.8,0.9c0.3,0.8,0.8,1.4,1.8,1.2c0.7-0.1,1.4,0,2.4,0c0-1.2,0-2.4,0-3.5c0-0.6,0.2-0.9,0.8-0.8
		c0.8,0.1,1.5,0.1,2.3,0.1c0.1-0.5,0.3-1,0.3-1.5c0.1-0.4,0-0.7-0.4-0.9c-0.8-0.4-0.9-0.7-0.5-1.6c0.2-0.3,0.3-0.7,0.4-1.2
		c-0.7,0-1.3,0-1.8,0c-1,0-1.4-0.7-1.3-1.6c0.1-0.5,0.1-1.1,0.1-1.7c0-0.5,0.1-0.8,0.6-0.8c0.6,0,1.2,0,1.8,0c0.1,0,0.3,0,0.4,0
		c1.8,0,3.5,0,5.4,0c0-0.5,0.1-0.9,0.1-1.4c0-0.6,0.3-0.8,0.8-0.9c0.7,0,1.4,0.1,2-0.4c0.2-0.1,0.6,0,0.8,0.1
		c1.6,1.1,3.4,1.5,5.4,1.4c0.7-0.1,1.4,0,2.1,0c1.7,0.1,3.3,0.3,5,0.4c1.5,0.1,3,0,4.5,0c0.9,0,1.9,0.2,2.8,0.3
		c0.1,0,0.3,0.3,0.3,0.4c0.1,0.4,0,0.7,0,1.1c0.4-0.1,0.8-0.1,1.1-0.2c0.6-0.1,0.8-0.6,0.8-1.1c0-1.5,0.3-2.9,0.9-4.2
		c0.1-0.3,0-0.6,0-0.9c0-0.7,0.1-1.5,0.2-2.2c0.1-0.6,0.6-0.5,1-0.5c0.3,0,0.6-0.1,0.9-0.1c0.2,0,0.4-0.1,0.6-0.2
		c0.6-0.1,1.1-0.2,1.7-0.3C86.1,45,86.6,45,87,45c0.1,0,0.3,0.2,0.3,0.3c0,0.6-0.1,1.1-0.1,1.7c-0.1,0.6-0.2,1.1-0.3,1.7
		c0,1.3,0,2.5,0,3.8c0,0.5,1,0.7,1.6,0.5c0.9-0.4,1.9-0.8,2.9-0.9c1.8,0,3.2-0.8,4.4-1.9c0.9-0.8,1.6-1.6,2.5-2.4
		c0.2-0.2,0.6-0.4,0.9-0.4c1,0,1.8-0.3,2.5-1.1c0.7-0.8,1.6-1.4,2.4-2.2c0.2-0.2,0.4-0.6,0.4-1c-0.1-0.7,0.4-1.2,1.1-1.5
		c0.4-0.1,0.7-0.3,0.7-0.8c0.1-0.6,1.3-1,1.8-0.6c0.1,0.1,0.1,0.2,0.1,0.3c0.1,1.1,0.7,1.9,1.6,2.4c0.9,0.5,1.8,1,2.7,1.4
		c1.1,0.5,2.2,1,3.4,1.3c0.8,0.2,1.7,0.2,2.5,0.4c1.4,0.3,2.5,1.1,3.2,2.5c0.6,1.1,1.5,2,2.3,3.1c0.1,0.1,0.2,0.1,0.3,0.1
		c1.4,0.6,2.9,0.5,4.4,0.6c1.1,0,2.1,0.4,3.2,0.6c0.2,0,0.4,0.1,0.6,0.1c0.5,0,0.9,0,1.4,0c0.9,0,1.8,0,2.7,0.4
		c1.4,0.6,2.9,0.9,4.3,1.3c0.8,0.2,1.2,0.7,1.1,1.5c0,0.7,0.3,1,0.9,1.2c1.1,0.4,2.2,0.6,2.9,1.6c0.4,0.6,0.6,1.2,1,1.8
		c0.5,0.7,1,1.4,1.5,2.1c0.1,0.2,0.2,0.5,0.2,0.8c0,0.6,0.1,1.2,0.4,1.8c0.3,0.5,0.1,1.1,0.3,1.7c0.2,0.9,0.6,1.7,1.4,2.3
		c0.9,0.7,1.7,1.5,2.6,2.3c0.4,0.3,0.9,0.3,1.3,0.5c0.8,0.3,1.6,0.7,2.3,1.1c0,0,0.1,0.1,0.1,0c1.2-0.3,1.7,0.7,2.2,1.5
		c0.5,0.8,1.1,0.9,1.8,0.9c0.9,0,1.8,0,2.7,0c0.6,0,1,0.2,1.4,0.8c0.6,0.9,1.7,1.4,2.8,1.5c0.3,0,0.7,0,1.1,0
		c0.4,0.1,0.7,0.2,1.1,0.4c0.7,0.2,1.3,0.7,2,0.7c1,0.1,2,0.3,2.8,0.9c1.1,0.7,2.3,1.3,3.4,1.9c1.5,0.8,3,1.5,4.5,2.4
		c2.1,1.2,4.4,2.1,6.5,3.3c1.8,1,3.6,2.1,5.4,3c0.5,0.3,1.1,0.4,1.6,0.7c1.2,0.7,2.5,1.3,3.7,2.1c0.4,0.3,0.8,0.7,1.1,1.1
		c1.2,1.6,2.3,3.2,3.4,4.8c0.3,0.5,0.6,0.9,0.2,1.5c-0.1,0.1,0,0.4,0,0.6c0,1.2-0.9,1.8-1.5,2.6c-0.5,0.8-1,1.5-0.9,2.5
		c0,0.3,0.1,0.6,0.3,0.9c0.7,0.8,0.8,1.8,0.5,2.7c-0.3,0.7-0.8,1.3-1.3,1.9c-0.9,1.1-1.7,2.3-2.6,3.4c-1.1,1.3-2,2.8-3.3,4
		c-0.7,0.7-1.3,0.8-2.1,0.8c-0.7,0-1.3-0.1-1.8,0.6c-0.1,0.1-0.6,0.1-0.8,0.1c-1-0.2-2.1,0.6-2,1.6c0,0.3,0.3,0.5,0.5,0.7
		c0.3,0.3,0.7,0.7,0.5,1.1C189.9,124.5,189.5,124.8,189,125.2z M120,153.5c-0.1,0.1-0.2,0.3-0.4,0.3c-0.5,0-0.7,0.3-0.6,0.8
		c0.1,0.5,0.3,1,0.5,1.5c0.5,1.2,1.5,2.3,1.6,3.7c0,0,0.1,0,0.1,0.1c1-0.7,2.1-1.5,3.1-2.2c0.2-0.1,0.4-0.2,0.6-0.2
		c0.8,0,1.5,0,2.3,0c0.2,0,0.4,0.1,0.5,0.2c0.6,0.7,1.4,0.8,2.3,0.8c0.9,0,1.7,0.2,2.6,0.3c1.2,0.2,2.4,0.3,3.4,0.4
		c0.1-0.6,0.1-1,0.4-1.3c0.8-1,0.9-2.1,0.8-3.3c0-0.3,0.1-0.6,0.3-0.8c0.6-0.9,1.4-1.6,2.6-1.4c0,0,0.1,0,0,0
		c0.2-0.6,0.4-1.1,0.6-1.6c0.4-0.8,1.5-1.2,2.5-1.1c0.8,0.1,0.6,0.8,0.6,1c0.7,0.3,1.2,0.5,1.8,0.7c0.2,0.1,0.5,0.3,0.7,0.3
		c0.9,0,1.7-0.2,2.6-0.3c0.2,0,0.4,0,0.6-0.1c-0.1-0.5,0.1-0.9-0.4-1.4c-0.3-0.3-0.1-1.2-0.1-1.9c1,0,2,0,2.9,0
		c0.2,0,0.5-0.2,0.7-0.3c-0.1-0.2-0.3-0.5-0.4-0.7c-0.1-0.1-0.2-0.2-0.3-0.3c-0.1-0.9,0-1.8,0.7-2.6c0.1-0.1,0.3-0.5,0.2-0.6
		c-0.3-0.3-0.2-0.8-0.8-0.8c-1.4,0.1-2.7,0-4.1,0c-0.4,0-0.9,0.3-1.3,0.6c-0.6,0.5-0.5,1.4-0.7,2.1c-0.2,0.7-0.1,1.6-0.2,2.6
		c-0.5-0.2-0.9-0.3-1.2-0.6c-0.8-0.6-1.6-1.2-2.4-1.8c-0.1-0.1-0.3-0.4-0.3-0.5c0.3-0.7-0.1-1-0.6-1.4c-0.1-0.1-0.2-0.3-0.3-0.5
		c-0.1-0.1-0.3-0.4-0.4-0.3c-0.4,0.1-0.8,0.2-1.1-0.1c-0.1-0.1-0.4,0-0.5,0c-1,0.7-1.9,1.5-2.5,2.5c-0.7,1.3-0.9,1.4-2.3,0.9
		c-0.2-0.1-0.5,0-0.7,0.1c-0.7,0.5-1.4,0.7-2.2,0.3c-0.8-0.4-1.8,0-2.3,0.6c-0.4,0.5-0.7,1-1,1.4c-0.1,0.1-0.3,0.2-0.4,0.3
		c-0.6,0.4-1.2,0.9-1.7,1.4c-0.1,0.1,0,0.4,0.1,0.6c0.5,0.8,0.9,1.7,0.2,2.6c-0.3,0-0.7,0-1,0c-0.3-0.7-0.5-1.3-0.8-1.9
		c-0.6,0.2-1.2,0.4-1.8,0.6C121.7,152.7,120.8,153.1,120,153.5c0.5-0.3,1-0.6,1.6-0.8c1-0.4,1.9-0.8,2.9-1.2c0.1-0.9,0.3-1.8-0.9-2
		c0,0-0.1-0.1-0.1-0.1c-0.8-0.3-1.5-0.7-2.5-0.6c-0.9,0.2-1.9,0-2.9,0c0-0.6,0-1.1,0-1.7c0-0.1,0-0.4,0.1-0.4
		c0.6-0.3,0.4-0.7,0.4-1.3c-0.6,0-1.2-0.1-1.6,0.1c-0.6,0.3-1,0.2-1.4-0.3c-0.2-0.2-0.4-0.3-0.6-0.4c-0.6-0.2-1.3-0.4-1.9-0.6
		c-0.3-0.2-0.6-0.5-0.8-0.8c-0.5-0.5-1-1.1-1.4-1.6c0-0.2-0.1-0.2-0.1-0.2c-1,0.3-1.1,0.4-1.8-0.9c-0.2-0.4-0.7-0.6-1-0.9
		c0,0-0.1,0-0.2,0c0,0.2,0,0.3,0,0.5c0.1,0.5-0.1,0.7-0.7,0.8c-0.8,0-1.7,0.5-2.2-0.4c-0.2,0.2-0.3,0.4-0.5,0.4
		c-0.5,0-0.5,0.4-0.6,0.7c-0.2,0.7-0.4,0.8-1,0.5c-0.4-0.2-0.9-0.4-1.3-0.6c-0.2-0.1-0.4-0.4-0.5-0.6c-0.2-0.6-0.2-1.3-0.4-2
		c-0.9,0-1.9,0-2.9,0c0-1.2,0-2.4,0-3.6c-0.5,0-0.9,0-1.4,0c0,0.4,0,0.7,0,1c0,0.7-0.5,1.2-1.1,1c-0.8-0.2-0.8,0.2-0.8,0.8
		c0,1.5,0,1.4-1.5,1.7c-1.3,0.2-2.5,0.8-2.9,2.2c0,0.1-0.3,0.3-0.5,0.3c-0.5,0-0.9,0.1-1.3,0.5c-0.3,0.3-0.6,0.6-1,0.8
		c-0.5,0.3-0.6,0.6-0.6,1.1c0,0.4,0,0.8-0.2,1c-0.9,0.8-0.7,2.1-1.4,3c0.7,0,1.2,0,1.8,0c0.6,0,0.9,0.3,0.9,0.9
		c0.1,0.6,0.1,1.1,0.2,1.6c0.5,0,1-0.1,1.5,0c0.6,0.1,1.2,0.3,1.8,0.5c0-0.2,0-0.3,0-0.4c-0.4-1.4,0.4-2.5,1.8-2.5
		c0.4,0,0.7,0,1.1,0c1.6,0,1.5,0,1.3,1.5c-0.1,0.6-0.1,1.2,0.7,1.3c0.1,0,0.3,0.1,0.4,0.3c0.2,0.6,0.3,1.1,0.8,1.7
		c0.3,0.3,0.2,1.2,0.2,1.8c0,0.5-0.3,1,0.2,1.5c0.2,0.1,0.1,0.7,0,1c-0.4,1.1,0,1.8,1.2,1.7c1.2,0,2.5,0,3.6,0.5
		c0.2,0.1,0.4,0,0.6,0c1.6,0,1.6,0,1.6-1.6c0-1.2,0.7-2,1.9-2c0.4,0,0.6-0.1,0.9-0.4c0.4-0.5,1-0.8,1.6-0.7c0.5,0,1,0,1.5,0
		c1.5,0,3,0,4.4,0c0-0.9,0.1-1.7,0.2-2.5c0-0.2,0.3-0.6,0.5-0.7c1.1-0.1,2.3,0,3.1,0.7C119,153.7,119.5,153.7,120,153.5z
		 M162.9,92.3c-0.3,0.4-0.6,0.7-0.6,1c0,0.9-0.5,1.5-0.8,2.2c-0.4,0.9-0.3,1.2,0.7,1.5c0.1,0,0.3,0.2,0.3,0.4c0.2,1,0,2-0.6,2.8
		c-0.5,0.7-0.7,1.3-0.7,2c0,0.2,0,0.5-0.2,0.7c-0.8,1-1.7,2-2.6,2.9c-0.5,0.5-0.2,0.7,0.3,1c0.5,0.3,0.6,0.6,0.2,1.1
		c-0.1,0.1-0.2,0.2-0.2,0.2c-0.5,0.5-0.5,0.9,0,1.4c0.6,0.6,0.6,1.2,0.5,2c-0.1,0.5-0.3,1.1-0.1,1.4c0.6,0.8,1.3,1.6,2.1,2.3
		c1.2,1,2.5,1.8,3.8,2.7c0.4,0.3,0.9,0.6,1.4,0.6c1.8,0.1,3.6,0.3,5.4,0.7c0.7,0.2,1.5,0.3,2-0.6c0.3-0.5,0.8-1,1.2-1.5
		c0.4-0.5,0.8-1,1.2-1.5c0.3-0.4,0.5-0.8,0.8-1.1c0.8-0.8,1.5-1.6,1.3-2.9c0-0.2,0.2-0.7,0.3-0.8c0.4,0,0.8,0.1,1.2,0.2
		c0.2,0.1,0.4,0.3,0.6,0.3c0.7,0.1,1.3-0.4,1.8-0.8c0.7-0.5,0.8-1.1,0.7-1.8c-0.1-0.9,0.1-1.6,0.6-2.4c0.1-0.1,0.1-0.4,0.1-0.5
		c0.1-0.3,0.2-0.8,0.4-1c0.5-0.5,1.1-1,1.7-1.4c0.1-0.1,0.3,0,0.5-0.1c1.3-0.2,2.7-0.3,3.7-1.3c0.6-0.6,1.2-0.4,1.9-0.4
		c0.3,0,0.6,0.1,0.9,0.2c0.1,1.1,0.2,2.3,0.4,3.4c0,0.1,0.1,0.1,0.1,0.2c2-0.2,4-0.4,6.1-0.5c0-1.4,0-2.8,0-4.4
		c1.7,0.1,3.3,0.2,4.9,0.3c0.3-0.5,0.3-0.9-0.1-1.3c-0.5-0.5-0.8-1.1-1.2-1.7c-0.7-1-1.4-2.2-2.2-3c-0.9-0.9-2-1.6-3.1-2.2
		c-1.6-0.9-3.2-1.6-4.8-2.4c-1.6-0.8-3.1-1.7-4.6-2.6c-1.6-0.8-3.3-1.6-4.9-2.4c-0.8-0.4-1.6-0.8-2.5-1.2c-0.4-0.2-0.8-0.3-1.2-0.6
		c-1.9-1.1-3.8-2.3-5.7-3.4c-0.1,0.3-0.2,0.4-0.2,0.5c-0.4,0.8-0.9,1.6-1.4,2.5c-0.3,0.6-0.7,1.1-0.9,1.7c-0.5,1.1-0.8,2.3-1.3,3.5
		c-0.5,1.1-1,2.2-1.5,3.4c-0.1,0.1,0,0.3-0.1,0.5c-0.2,0.5-0.3,1-0.5,1.5c-0.1,0.2-0.5,0.4-0.8,0.3c-0.7-0.2-1.4-0.5-2.1-0.7
		C164.1,92.7,163.4,92.5,162.9,92.3z M112.3,60.5c0.1,0,0.1,0.1,0.2,0.1c0-0.2,0.1-0.5-0.1-0.6c-0.8-0.9-0.5-2.3-1.4-3.2
		c-0.4-0.4-0.5-1.3-1.4-0.9c-0.2,0.3-0.5,0.7-0.7,0.7c-1.2,0-2,0.7-2.9,1.4c-0.8,0.6-1.6,0.5-2-0.4c-0.2-0.5-0.5-1-0.8-1.5
		c-0.8-1.3-1.6-2.6-2.5-4c-0.3-0.4-0.6-0.9-0.9-1.3c-0.6-0.8-0.7-1.2-0.1-2.1c0.1-0.2,0.1-0.5,0.1-0.7c-0.7-0.2-1.2,0-1.6,0.5
		c-0.9,0.9-1.8,1.8-2.8,2.7c-1,0.9-2.2,1.4-3.7,1.5c-1,0-1.9,0.4-2.9,0.7c-0.6,0.1-1.3,0.2-2,0.2c-0.2,0-0.6-0.4-0.6-0.6
		c0-1.5,0-3.1,0-4.6c0-0.9,0.2-1.8,0.4-2.7c-1.6,0.3-3.1,0.7-4.7,1c0,0.5-0.1,1.2-0.1,1.9c0,0.5,0.1,1-0.1,1.4
		c-0.5,1.3-0.8,2.5-0.8,3.9c0,0.9-0.6,1.5-1.5,1.6c-0.2,0-0.3,0.1-0.5,0.1c-0.4,0.3-0.8,0.3-1.2-0.1c-0.3-0.2-0.7-0.3-1.1-0.4
		c0,1,0,1.9,0,2.9c-1.1,0-2.1,0-3,0c-0.1,1,0.1,1.1,0.9,1.3c0.7,0.2,1.5,0.5,1.7,1.3c0.1,0.4,0.3,0.9,0.4,1.4c0.6,0,1.2,0,1.8,0
		c-0.1,0.7,0.4,0.5,0.8,0.5c0.2-0.7,1.7-0.9,3.1-0.6c0,0.5,0,1,0,1.5c-0.3,0-0.6,0.1-0.9,0.1c-0.1,1-0.2,2-0.3,2.9
		c-0.6,0-1.1,0-1.6,0c0,0.3-0.1,0.6,0,0.9c0.1,0.3,0.3,0.8,0.5,0.9c1.1,0.5,2.3,0.9,3.5,1.4c-0.1,0.6-0.2,1.3-0.3,2.3
		c1.3,0,2.4,0,3.4,0c0.3,0,0.7,0.3,0.9,0.5c0.5,1.1,0.5,1.2,1.7,1.2c0.1,0,0.2,0,0.4,0c0.5,0,0.9,0,0.8,0.7c0.6,0,1.1,0,1.6,0
		c0.3-1.4,0.5-1.6,2.4-1.5c0,0.2,0.1,0.3,0.2,0.7c0.3-0.2,0.5-0.3,0.7-0.5c0.2-0.1,0.4-0.3,0.6-0.4c0.3-0.1,0.6,0,0.9,0
		c0-0.4,0.1-0.7,0.1-1c1.1,0,2.1,0,3.1,0c0.1,0,0.3,0,0.4,0.1c0.7,1,1.9,1.1,2.9,1.6c0,0.4-0.1,0.8-0.1,1.3c0.5,0.1,0.6,0,0.8-0.4
		c0.4-1.2,1.3-1.4,2.3-0.6c0.4,0.3,0.9,0.6,1.4,0.9c0.4,0.3,0.7,0.6,1.1,1c2.1-0.1,4.5-0.2,6.9-0.3c0-0.6,0-1.2,0-1.8
		c2.2,0,4.3,0,6.4,0c0-0.8,0-1.6,0-2.4c0-1.8,0-1.8-1.7-2.4c0,0-0.1-0.1-0.1-0.1c0-0.5,0-1,0-1.5c0.5,0,0.9,0,1.4,0
		c0-1.9,0-3.8,0-5.6c0-0.2-0.2-0.6-0.4-0.7c-0.2-0.1-0.6,0.1-0.8,0.2c-0.7,0.3-1.4,0.7-2.1,0.9c-0.8,0.2-1.6,0.5-1.9,1.2
		c-0.4,0.7-0.9,0.5-1.3,0.4c-0.3,0-0.5-0.4-0.8-0.6c-0.2-0.1-0.5-0.2-0.7-0.1c-1,0.5-1.5,0.4-2.1-0.4c-0.3-0.4-0.4-0.8-0.1-1.2
		C111.7,60.8,112,60.7,112.3,60.5z M189.7,123.8c-0.3-0.2-0.6-0.4-0.8-0.7c-0.2-0.2-0.3-0.5-0.3-0.7c0.1-1.6,0.9-2.6,2.7-2.3
		c0.2,0,0.5,0,0.5-0.1c0.3-0.6,0.8-0.5,1.2-0.5c0.5,0,1,0,1.5,0c0.2,0,0.4-0.1,0.5-0.2c1.4-1.4,2.5-2.9,3.7-4.5
		c0.7-1,1.5-1.9,2.2-2.9c0.4-0.6,0.8-1.2,1.3-1.7c0.5-0.6,0.6-1.6,0.1-2.2c-0.8-0.9-0.8-2-0.4-3c0.5-1,1.3-2,1.9-2.9
		c0.2-0.3,0.3-0.7,0.4-1.2c-1.8-0.1-3.3-0.2-4.9-0.4c0,1.6,0,3,0,4.4c-2.2,0.2-4.3,0.4-6.4,0.5c-0.1-1.2-0.2-2.3-0.3-3.4
		c0-0.1,0-0.2-0.1-0.2c-0.3-0.1-0.6-0.2-0.9-0.2c-0.5,0-1.1-0.2-1.5,0.4c-0.3,0.4-0.9,0.7-1.4,1c-0.1,0-0.1,0-0.2,0
		c-0.7,0.1-1.3,0.2-2,0.3c-1,0-1.5,0.9-2.2,1.3c-0.5,0.3-0.7,0.8-0.6,1.4c0,0.1,0,0.2-0.1,0.3c-0.7,0.9-0.6,2-0.6,3.1
		c0,0.3-0.1,0.6-0.2,0.7c-0.3,0.3-0.6,0.6-0.9,0.8c-0.7,0.6-1.7,0.6-2.4,0c-0.2-0.1-0.5-0.2-0.7-0.1c-0.2,0-0.3,0.3-0.3,0.5
		c-0.1,0.3,0,0.7,0,1.1c-0.1,0.4-0.1,0.8-0.4,1.1c-0.9,1.2-1.9,2.3-2.9,3.5c-0.6,0.7-1.1,1.4-1.7,2.1c-0.1,0.1-0.2,0.2-0.3,0.2
		c-1.2-0.1-2.3-0.2-3.5-0.3c-1.1-0.1-2.2-0.3-3.3-0.5c-0.2,1.6-0.3,3.2-0.5,4.7c-0.1,1.1-0.1,2.2-0.5,3.3c-0.4,1.3-0.2,2.7-0.2,4
		c0,0.5,0.6,0.8,1,0.5c0.3-0.2,0.6-0.4,0.9-0.6c0.4-0.4,0.8-0.3,1.4-0.1c0.8,0.3,1.6,0.5,2.5,0.7c0.8,0.2,1.8,0.1,2.3,0.5
		c0.7,0.6,1.3,0.4,2,0.6c0.5,0.1,1.1,0.1,1.6,0.2c0.1,0.8,0.1,1.6,0.2,2.4c-0.4,0-0.8,0-1.1,0c-0.1,0.9,0.4,1.3,1.3,1.6
		c1.1,0.3,2.2,0.7,3.3,1.2c0.4,0.2,0.7,0.1,0.9-0.3c0.1-0.3,0.3-0.8,0.5-0.8c0.5-0.1,1.1-0.1,1.6,0.2c1.1,0.5,2.2,0.3,3.3,0.5
		c0.3,0,0.7-0.2,1-0.2c1.5-0.1,2.9-0.6,4.3-1c0.7-0.2,1.3-0.6,1.6-1.3c0.4-1,0.7-2,1.2-3c0.3-0.7,0.4-1.4,0-2.1
		c-0.3-0.4-0.6-0.8-0.8-1.2c-0.3-0.6-0.8-0.7-1.4-0.8c-1,0-2.1,0-3.1,0c-1.1,0-1.1,0-1-1.1c0-0.8-0.2-1.7,0.9-1.9
		C189.4,124.1,189.5,124,189.7,123.8z M198.5,140.8c-1.9-0.1-3.7-0.2-5.4-0.3c-2.3-0.1-4.6-0.2-6.8-0.3c-0.6,0-1.3-0.7-1.4-1.2
		c-0.2-0.6,0.1-1.3,0.6-1.7c0.2-0.1,0.4-0.3,0.4-0.4c-1-0.3-2-0.5-2.9-0.8c-0.8-0.2-1.1,0-1.4,0.6c-0.3,0.7-0.7,0.8-1.3,0.4
		c-0.5-0.3-1.1-0.5-1.7-0.7c-0.1,1.5-0.2,2.9-0.2,4.3c-0.4,0-0.7,0-1.1,0.1c0.2,1.1,0,2.1,0.5,3.1c0.3,0.4,0,1.1-0.5,1.1
		c-1.5,0-3.1,0-4.6,0c0.1-0.1,0.1-0.1,0.2-0.2c-0.2-0.3-0.4-0.7-0.6-0.7c-0.9-0.1-1.8,0-2.8,0c0,0.4-0.1,0.7-0.1,1.1
		c-1.1,0.1-2.3,0.2-3.4,0.2c-0.1-1-0.3-1.8-0.4-2.6c-1.5,0-2.9-0.5-4.4,0.1c0,0.2,0.1,0.4,0.1,0.6c0,0.4,0.3,1-0.6,1.1
		c-0.4,0-0.6,0.3-0.5,0.8c0.1,0.8,0.1,1.6,0.2,2.5c-1.4-0.2-2.8,0.4-4-0.6c0-0.3,0-0.6,0-0.9c-1-0.2-1.9-0.5-3-0.7
		c0-0.4,0-0.9,0-1.4c-0.7,0-0.9,0.6-1.1,1.1c-0.2,0.5-0.1,1.1-0.1,1.7c0,0,0.1,0.1,0.1,0.1c0.6,0.1,0.7,0.6,0.5,1
		c-0.1,0.2-0.6,0.3-0.9,0.3c-0.9,0.1-1.9-0.2-2.7,0.2c0,0.5-0.2,1.3,0,1.5c0.5,0.4,0.3,0.8,0.3,1.2c0,0.1,0,0.2,0.1,0.4
		c0.5,0,0.9,0,0.9,0.6c0,0.5,0,1.3,0.3,1.5c0.4,0.3,1.1,0.1,1.6,0.1c0.3,0,0.7,0,0.8,0.2c0.4,0.5,0.8,0.4,1.3,0.3
		c0.1-0.6,0.2-1.1,0.2-1.6c0-0.4,0.2-0.6,0.6-0.6c0.4,0,1.1,0.1,1.3-0.2c0.5-0.6,1-0.5,1.6-0.5c0.1-0.3,0.1-0.7,0.2-1
		c0.3-1.2,0.3-1.3,1.6-1.1c0.2,0,0.5,0.3,0.5,0.5c0,1,0,2,0,3c0,0.2-0.2,0.4-0.4,0.5c-0.6,0.2-1.2,0.2-1.8,0.4c0,0.1,0,0.2,0,0.3
		c-0.2,0.5-0.3,1.1-0.6,1.5c-0.1,0.2-0.6,0.1-0.9,0.2c-0.2,0.1-0.4,0.3-0.4,0.4c0,1.2,0,2.5,0,3.8c1.8,0.1,3.4,0.2,5.1,0.3
		c0.2,0,0.3-0.1,0.5-0.2c0.2-0.1,0.4-0.3,0.6-0.3c0.3-0.1,0.6,0,0.9-0.1c0.3-0.1,0.6-0.3,0.9-0.3c0.4-0.1,1,0.1,1.2-0.1
		c0.8-0.9,1.8-0.6,2.7-0.6c0.2,0,0.5,0,0.5,0c0.2-0.8,0.9-0.5,1.4-0.5c0.6-0.1,1,0,0.6,0.8c0.3,0,0.5,0,0.8,0
		c0.9-0.2,1.7,0.2,2.5,0.6c0.1,0.1,0.2,0.2,0.3,0.4c0.1,0.9,0.2,1.8,0.3,2.7c0.1,0.6-0.1,1.5,0.3,1.8c0.5,0.5,0.4,0.9,0.4,1.2
		c0.3,0.4,0.6,0.5,0.7,0.8c0.2,0.7,0.9,0.9,1.4,0.4c0.2-0.2,0.5-0.4,0.7-0.4c0.7,0,1-0.5,1.3-1.1c0.8-1.4,1.6-1.7,3.2-1.3
		c0.7,0.2,0.8,0.1,0.8-0.6c0-2.3,0-4.5,0-6.8c0-0.2,0-0.3,0-0.5c-0.5-1.1-0.4-2.3-0.4-3.5c0-0.6,0.3-0.8,0.8-0.8c1.3,0,2.6,0,3.9,0
		c0.7,0,0.9,0.2,0.9,0.9c-0.1,1,0,1.9,0,3c2.7,0,5.3,0,7.9,0c0-1.8,0-3.5,0-5.2c0-1.6-0.1-1.6,1.5-1.6c0,0,0.1,0,0.2-0.1
		c0-1.4,0-2.7,0-4.1C198.2,143.3,198.4,142.1,198.5,140.8z M148,65.2c0-0.5,0.1-0.9,0-1.3c-0.1-0.3-0.2-0.7-0.4-1
		c-0.6-1-1.4-1.8-1.9-2.8c-0.4-0.8-0.8-1.3-1.5-1.6c-0.7-0.3-1.3-0.5-2-0.8c-0.5-0.2-0.7-0.5-0.6-1c0-1-0.1-1.2-1.1-1.5
		c-1.3-0.4-2.7-0.6-4-1.2c-0.9-0.4-1.8-0.4-2.7-0.4c-0.6,0-1.3,0.1-1.9,0c-1.4-0.4-2.9-0.7-4.4-0.7c-1.6,0-3.2,0-4.3-1.5
		c-0.5-0.7-1.3-1.3-1.6-2c-1-2.1-2.7-2.8-4.9-3c-0.5,0-1-0.1-1.5-0.3c-1.6-0.7-3.1-1.4-4.6-2.1c-1.4-0.6-2.5-1.5-2.8-3.3
		c-0.3,0.2-0.7,0.3-0.7,0.5c-0.1,0.7-0.6,0.9-1.1,1.1c-0.6,0.2-0.9,0.6-0.8,1.2c0.1,0.5-0.1,0.8-0.5,1.2c-0.8,0.6-1.7,1.3-2.3,2.1
		c-0.6,0.7-1.2,1.1-2,1.3c-0.1,0.4-0.1,0.8-0.3,0.9c-0.6,0.4-0.4,0.9-0.1,1.3c0.2,0.3,0.5,0.6,0.7,1c0.6,1,1.2,2,1.8,3
		c0.7,1.1,1.3,2.1,2,3.2c0.5,0.8,1,0.9,1.8,0.3c0.7-0.6,1.4-1.2,2.4-1.3c0.7,0,1-0.3,1.1-0.9c0.4,0,0.8,0,1,0
		c1.3,1.5,1.7,3.3,2.2,5.2c-0.4,0-0.6,0-0.9,0.1c-0.4,0.7-0.3,1.5,0.2,1.8c0.5,0.3,1.1,0.4,1.6-0.1c0.1-0.1,0.6,0,0.8,0.1
		c0.3,0.1,0.5,0.4,0.7,0.5c0.4,0.2,0.8,0.4,1.1-0.1c0.5-0.8,1.2-1.2,2.2-1.4c0.7-0.2,1.4-0.6,2-0.9c0.3-0.1,0.7-0.2,1.1-0.2
		c0.5,0,0.4,0.5,0.4,0.8c0,0.4,0,0.8,0,1.2c0,1.5,0,3,0,4.6c-0.5,0-0.9,0-1.4,0c0,0.4,0,0.8,0,1.2c0.3,0.1,0.5,0.1,0.7,0.2
		c0.9,0.2,1.1,0.5,1.1,1.3c0,1,0,2.1,0,3.1c0,0.6,0,1.2,0,1.9c1.7,0,3.2,0,4.8,0c0-1.2,0-2.4,0-3.6c0.3,0,0.5-0.1,0.7-0.1
		c0-0.1-0.1-0.1-0.1-0.2c0.2-0.3,0.4-0.7,0.7-0.7c0.8-0.1,1.6,0,2.4,0c-0.2,0.9,0.3,1,1,1c1.8,0,3.6,0,5.4,0c0.2,0,0.4,0,0.7,0
		c0-1.5,0-2.9,0-4.4c2.1,0,4.1,0,6.2,0c0-0.4,0-0.7,0-1c0.7-0.1,0.7-0.1,1.5,0.6c0.3,0.3,0.5,0.3,0.8,0
		C147,65.9,147.5,65.6,148,65.2z M173.2,79.9c-0.2,0-0.5-0.1-0.7-0.1c-0.7-0.1-1.6-0.1-2-0.5c-0.9-0.7-1.8-0.6-2.8-0.7
		c-0.3,0-0.7-0.1-1-0.3c-0.7-0.4-1.4-0.8-2-1.4c-0.3-0.3-0.5-0.5-0.9-0.5c-0.9,0-1.9,0-2.8,0c-0.9,0-1.7-0.2-2.2-1.2
		c-0.3-0.7-0.8-1.3-1.9-1.3c-0.6,0-1.2-0.5-1.7-0.7c-0.5-0.2-1.1-0.4-1.6-0.7c0,0.4-0.1,0.7-0.1,1.1c-0.6-0.1-1.1-0.3-1.6-0.4
		c-1.3-0.1-2.6-0.4-3.8-0.9c-0.8-0.3-1.8-0.4-2.8-0.5c-0.7,0-1.4,0.1-2.1,0.3c-0.2,0-0.5,0.3-0.5,0.5c0,1.5,0,2.9,0,4.4
		c0,1.5,0,3,0,4.5c-0.2,0-0.4,0.1-0.7,0.1c0,0.7,0,1.4,0,2c0.6,0.1,1.3,0.3,1.9,0.4c0,0.5,0,1.1,0,1.6c0,0.6-0.2,1.1-0.6,1.5
		c-0.4,0.4-1.1,0.6-1.2,1.4c0,0.1-0.2,0.2-0.3,0.3c-0.5,0.1-1.1-0.2-1.4,0.4c-0.3-0.2-0.7-0.3-1-0.6c-0.4-0.4-0.7-0.4-1,0
		c-0.4,0.4-0.7,0.9-1,1.4c-0.3,0.4-0.6,0.9-1,1.3c-0.4,0.5-0.2,0.8,0.2,1c0.9,0.4,1.5,1.1,2.2,1.7c0.5,0.4,0.7,0.3,0.9-0.3
		c0.2-0.6,0.6-0.8,1.1-0.5c0.4,0.2,0.6,0.6,1,0.9c0.5,0.4,1.1,0.8,1.6,1.3c0.2-0.3,0.3-0.4,0.4-0.5c0.3-0.3,0.7-0.5,0.9-0.9
		c0.3-0.5,0.7-0.5,1.1-0.2c0.8,0.6,1.6,1.2,2.4,1.8c1,0.8,1.9,1.6,2.9,2.3c0.4,0.3,0.9,0.6,1.4,0.9c0.7,0.3,0.8,0.9,0.3,1.5
		c-0.5,0.6-0.5,1,0.1,1.5c0.8,0.7,1.7,1.4,2.5,2.1c0.6,0.5,1.1,1.1,1.7,1.5c0.3,0.2,0.9,0.3,1,0.2c0.6-0.6,1.1-1.3,1.6-2
		c0.2-0.3,0.4-0.6,0.8-0.8c0.5-0.2,0.5-0.6,0.5-1c0-0.6,0-1.1,0.4-1.6c0.6-0.7,0.9-1.5,0.9-2.5c0-0.4-0.1-0.7-0.7-0.8
		c-0.2,0-0.6-0.4-0.6-0.6c0-0.4,0.1-0.8,0.3-1.2c0.4-1,0.8-2,1.2-3c0.2,0,0.4-0.1,0.6,0c1,0.4,1.9,0.8,2.9,1.1
		c0.5,0.2,1,0.6,1.4-0.1c0.3-0.4,0.3-1,0.5-1.5c0.1-0.2,0.1-0.5,0.2-0.7c0.3-0.8,0.7-1.6,1-2.4c0.7-1.7,1.3-3.4,2.1-5
		C172,82.5,172.6,81.3,173.2,79.9z M136.3,121.1c1.4,0.5,2.7,0.9,3.9,1.4c1.4,0.6,2.7,1.3,4,2c0.1,0.1,0.2,0.3,0.3,0.4
		c0.1,0.2,0.3,0.5,0.4,0.5c0.3,0,0.6-0.1,0.9-0.2c0.2-0.1,0.3-0.2,0.5-0.3c1-0.4,1.8,0.2,2.6,0.5c0.6,0.3,1.1,0.9,1.7,1.3
		c0.2,0.2,0.5,0.4,0.8,0.6c0.2,0.2,0.5,0.3,0.7,0.5c0.6,0.5,1.1,1,1.7,1.5c0.1,0.1,0.2,0.1,0.3,0c0.3-0.1,0.9-1,0.7-1.3
		c-0.4-0.8,0.2-1.1,0.6-1.4c0.4-0.3,1.3-0.2,1.7,0.1c0.6,0.6,1.5,0.7,2.2,0.2c0.6-0.4,1.2-1,2-1.1c0.3,0,0.7,0,1-0.1
		c1.3-0.4,1.6-0.3,2,0.9c0,0.1,0.1,0.2,0.1,0.2c0.9,0,0.9,0,1-0.8c0.2-1.1,0.3-2.2,0.4-3.3c0.1-0.9,0.2-1.7,0.3-2.6
		c0.1-0.6,0.1-1.1,0.2-1.5c-0.8-0.5-1.4-0.9-2-1.3c-1.7-1.2-3.5-2.2-4.9-3.8c-0.4-0.5-0.8-1-0.4-1.8c0.3-0.8,0.5-1.7-0.3-2.4
		c-0.2-0.2-0.3-0.4-0.3-0.7c-0.1-0.5,0.1-0.8,0.5-1.1c0.4-0.3,0.5-0.6-0.1-0.9c-0.3-0.1-0.5-0.5-0.7-0.7c-0.7-0.6-1.4-1.1-2.1-1.7
		c-0.9-0.8-1.8-1.6-2.8-2.3c-0.7-0.5-0.8-1.2-0.2-1.9c0.4-0.5,0.4-0.8-0.1-1.1c-1.2-0.6-2-1.7-3.2-2.3c-1.1-0.6-2-1.5-2.9-2.3
		c-0.4-0.3-0.8-0.5-1.1-0.8c-0.4,0.4-0.7,0.9-1.1,1.2c-0.5,0.3-0.5,0.6-0.1,1c0.5,0.4,1.1,0.8,1.6,1.3c0.2,0.2,0.2,0.7,0.3,1
		c0,0.1-0.2,0.3-0.4,0.3c-0.8,0-1.1,0.4-1.5,1c-0.2,0.3-0.4,0.7-0.7,1c-0.5,0.6-1,1.2-1.6,1.8c-0.2,0.2-0.5,0.3-0.7,0.4
		c-1,0.2-2,0.3-2.1,1.7c0,0.1-0.1,0.1-0.1,0.2c-0.5,0.3-1.1,0.6-1.5,0.9c-0.5,0.4-0.7,0.2-1.1-0.1c-0.4-0.3-0.7-0.6-1.1-0.9
		c-0.1-0.1-0.3,0-0.4,0.1c-0.5,0.5-1,1-1.5,1.5c-0.3,0.3-0.3,0.6,0.1,0.9c0.3,0.2,0.5,0.5,0.8,0.8c0.7,0.2,1.6,0.3,2.2,1
		c0.2,0.3,0.5,0.5,0.8,0.6c0.3,0.1,0.6,0,0.9,0.1c0.4,0,0.8,0,1.2,0.1c0.2,0.1,0.3,0.4,0.5,0.5c0.4,0.3,0.4,0.9,0,1.3
		c-0.9,1-1.7,2-2.5,3c-0.3,0.3-0.4,0.8,0.1,1.2c0.4,0.4,0.6,1.5,0.3,1.9c-0.5,0.6-1,1.1-1.2,1.9C136.8,120,136.5,120.5,136.3,121.1z
		 M103.5,73.4c-1-0.6-2.2-0.6-2.8-1.5c-0.1-0.1-0.2-0.2-0.3-0.2c-1,0-2,0-3,0c0,0.4-0.1,0.7-0.1,1c-0.3,0-0.6,0-0.8,0
		c-0.2,0-0.6,0.1-0.6,0.2c-0.2,0.7-0.7,0.5-1.1,0.5c-0.2-0.6-0.2-0.6-1-0.5c-0.7,0-1,0.5-1.2,1.5c-0.6,0-1.2,0-1.9,0
		c0.1-0.7-0.3-0.7-0.7-0.7c-0.4,0-0.9,0-1.4,0c0,0.3,0,0.5,0,0.7c0.9,0.1,1.7,0.3,2.6,0.4c0,1.5,0,3.1,0,4.7c0.4,0,0.8,0,1.2,0.1
		c-0.1,0.4-0.2,0.8-0.4,1.2c-0.2,0.7-0.8,1.6-0.1,2.2c0.9,0.7,0.8,1.7,0.8,2.6c0,0.3,0,0.5,0,0.9c0.5,0,0.8,0,1.2,0
		c0,2.2,0,4.4,0,6.6c0.6,0,1.2,0,1.8,0c0.2,0,0.3,0,0.5,0.1c0.2,0.1,0.5,0.3,0.7,0.3c0.3,0.1,0.6,0,1,0c0,0.3,0.1,0.5,0.1,0.7
		c0.6,0,1.1,0,1.6,0c0,0.5,0,1,0,1.4c0,0.4,0,0.9,0,1.4c-0.6,0-1.1,0-1.7,0c0,0.7,0,1.4,0,2.1c0.5,0,0.9,0,1.4,0
		c0.7,0.1,1.3,0.1,2,0.3c0.6,0.2,1.1,0.4,1.7,0.2c0.3-0.1,0.6,0,1,0c0,0.3,0,0.6,0,0.9c0.1,0.5,0.2,0.9,0.3,1.4
		c0.1,0.7,0.7,1.2,0.5,2c0,0,0.1,0.1,0.1,0.1c0.6,0,1.3,0.1,1.9,0.1c0.3,0,0.5-0.2,0.8-0.3c0-0.1,0-0.1-0.1-0.2c0.4,0,0.7,0,1.1,0
		c0.6,0,1.1,0,1.5-0.6c0.3-0.3,0.7-0.5,1.1-0.6c1.1-0.1,2.2-0.1,3.3-0.2c0.2,0,0.5,0,0.8,0c0-0.6,0-1.1,0-1.6c0-0.2,0-0.4-0.1-0.5
		c-0.1-0.2-0.3-0.4-0.3-0.6c-0.1-0.3,0-0.6,0-0.8c-0.1,0-0.2,0-0.2,0.1c-0.1-0.3-0.3-0.6-0.3-0.8c0.1-1-0.3-2.1,0.3-3.2
		c0.4-0.6,0.2-1.5,0.2-2.3c0-1.1,0.8-1.9,1.9-1.9c0.3,0,0.6,0,1,0c0-0.3,0-0.5,0-0.8c-0.1-1.3-0.2-2.5-0.3-3.8c0-1,0-1.9,0-2.8
		c-1.1,0-2.1,0-3.1,0c-0.2,1.3,0.3,2.7-0.6,3.8c-0.9,0-1.9,0-2.9,0c-0.1-1.4-0.1-2.9-0.2-4.3c-0.2,0-0.4,0-0.7-0.1c0-0.5,0-1,0-1.5
		c-0.4,0-0.8,0-1.2,0c0-1.8,0-3.6,0-5.3c0-0.5-0.1-0.7-0.5-0.9c-0.5-0.3-1.1-0.6-1.6-1c-1-0.7-1.7-0.6-2,0.5
		c-0.2,0.6-0.6,0.5-1.1,0.5c0-0.3,0-0.5,0-0.7C103.4,73.7,103.5,73.5,103.5,73.4z M78.5,86.3c-1.1,0.4-1.1,0.4-1.1,1.5
		c0,0,0,0.1,0,0.1c0.1,0.5-0.2,0.6-0.6,0.7c-1,0.1-1.9,0.2-2.9,0.4c-0.3,0.1-0.7,0.2-0.9,0.5c-0.4,0.6-0.8,0.9-1.6,0.8
		c-0.2,0-0.6,0.2-0.6,0.3c0.2,1.2-0.3,1.4-1.5,1.6c-1.6,0.3-2.9,0-4.2-0.9c-0.2-0.1-0.4-0.2-0.6-0.2c-1.1,0.1-1.3,0.4-1.3,1.5
		c0,0.5,0,1,0,1.5c0,0.1,0,0.1-0.1,0.2c-0.2,0-0.4,0.1-0.8,0.1c0.2,0.5,0.5,1,0.6,1.4c0.1,0.4,0.1,0.9,0,1.3
		c-0.1,0.3-0.3,0.8-0.9,0.7c-0.3-0.1-0.7,0-1,0c-0.6,0.1-1.1,0-1.2-0.7c-1.2-0.1-2.4,0.1-3.5-0.5c-0.4-0.2-1.1-0.3-1.6,0.2
		c-0.3,0.3-0.7,0.4-1.1,0.5c-0.4,0.1-0.8,0-1.1,0c-0.3,0.6,0.2,0.6,0.5,0.6c1,0.3,1,0.3,1,1.3c0,0.1,0,0.2,0,0.3
		c0.2,1.2,0.1,1.6,1.6,1.6c2.1-0.1,4.3,0,6.4,0c1.3,0,2.3,0.5,2.1,2.1c0,0.2,0,0.4,0.1,0.6c0.3,0.6,0.5,1.2,0.8,2
		c0.2,0.1,0.6,0.4,0.9,0.4c0.6,0,1,0.2,1.4,0.6c0.2,0.1,0.6,0.2,0.7,0.1c0.7-0.4,1.1-0.5,1.6,0.1c0.3,0.3,0.5,0.7,0.8,1
		c0.1,0.1,0.3,0.2,0.4,0.3c1.1,0.1,1.7,0.8,1.7,1.9c0,0.9,0.8,1.8,1.7,1.7c0.3,0,0.7-0.1,0.9-0.3c0.6-0.6,1.3-0.6,1.7,0.3
		c0.3,0.7,0.8,1.2,1.5,1.6c0.7,0.5,1.5,0.3,1.7-0.6c0.1-0.5,0.3-0.7,0.8-0.7c0.4,0,0.7,0,1.1,0c0.1,0.3,0.2,0.6,0.4,0.7
		c0.7,0.4,1.4,0.9,2.1,0.9c1.3,0.2,2.7,0,4.1,0c-0.9-3.4-0.3-6.9-0.6-10.3c-1.3,0-2.6,0-3.9,0c0-0.5,0-1,0-1.4
		c0.1-0.7-0.3-0.9-0.9-1.1c-0.6-0.2-1.3-0.7-1.4-1.2c-0.2-1.2-1-1.7-1.7-2.4c-0.1-0.1-0.3-0.3-0.3-0.4c0-0.2,0.2-0.5,0.4-0.7
		c0.1-0.1,0.4-0.1,0.6-0.2c0-0.5-0.8-1.1-1.7-1.3c0.2-0.2,0.4-0.5,0.5-0.6c0.4-0.2,0.8-0.4,1.1-0.6c0.7-0.3,0-0.8,0.2-1.2
		c0-0.1,0-0.2,0-0.3c0.8,0.1,1.5,0.1,2.2,0.2c0.9,0.1,1.9,0.1,2.5-0.9c0.3-0.6,0.8-1.1,1.3-1.6c0.1-0.1,0.2-0.3,0.2-0.5
		c0-0.9,0-1.9,0-2.8c0-0.1-0.1-0.2-0.1-0.3c-0.7,1.1-1.6,0.8-2.5,0.7c0-0.4,0-0.8-0.1-1.2c-0.2,0-0.3,0-0.4,0
		c-0.9-0.1-1.9,0.4-2.5-0.7c0,0-0.1,0-0.2,0c-0.8,0.1-1.2-0.2-1.6-0.8c-0.1-0.2-0.7-0.1-1-0.1c-0.1,0-0.3,0.3-0.3,0.4
		C78.6,85.2,78.6,85.7,78.5,86.3z M153.2,73.5c0.1-0.1,0.1-0.1,0.2-0.2c-0.1-0.3-0.1-0.7-0.3-0.9c-0.9-0.9-1.9-1.7-2.9-2.5
		c-0.8-0.6-1.3-1.4-1.5-2.4c-0.1-0.4-0.1-0.9-0.1-1.4c-0.1-0.6-0.4-0.9-0.7-0.6c-0.4,0.3-0.8,0.5-1.1,0.9c-0.4,0.4-0.7,0.4-1.1,0
		c-0.3-0.3-0.7-0.5-1.2-0.8c0,0.6-0.1,0.9-0.1,1.3c-2.1,0-4.1,0-6.2,0c0,1.5,0,2.9,0,4.3c-2.1,0-4.2,0-6.3,0c-0.7,0-1.2-0.1-1-1
		c-0.6,0-1.2,0-1.8,0c-0.6,0-0.9,0.2-0.9,0.8c0,0,0,0.1-0.1,0.1c-0.2,0-0.4,0.1-0.6,0.1c0,1.2,0,2.4,0,3.6c-1.7,0-3.4,0-5.1,0
		c0-0.5,0-1,0-1.5c-2.1,0-4.2,0-6.3,0c0,0.6,0,1.2,0,1.8c-2.5,0.1-4.9,0.2-7.3,0.3c0,1.8,0,3.5,0,5.2c0.4,0,0.8,0,1.2,0
		c0,0.5,0,1,0,1.5c0.2,0,0.4,0,0.7,0.1c0.1,1.5,0.1,2.9,0.2,4.3c0.9,0,1.8,0,2.6,0c1-1.2,0.4-2.6,0.7-3.9c1.1,0,2.2,0,3.3,0
		c0,1.7,0,3.4,0,5.1c2,0,3.9,0,5.8,0c0.1-0.6,0.2-1.1,0.2-1.6c1.2,0,2.2,0,3.3,0c0,0.2,0,0.3,0,0.5c0,0.9,0.2,1.1,1.1,1.2
		c0.3,0,0.6,0.3,0.8,0.5c0.4,0.3,0.8,0.7,1.2,1c0.1,0.1,0.4,0,0.5-0.2c0.4-0.5,0.7-1,1-1.5c0.2-0.2,0.4-0.4,0.5-0.7
		c0.3-0.4,0.4-1,0.7-1.4c0.6-0.6,1.4-0.5,2.1-0.5c0.3,0,0.6,0.2,0.9,0.4c0.3,0.2,0.6,0.6,1,0.7c0.4,0.1,0.9,0.2,1.3,0.1
		c0.1,0,0.2-0.4,0.3-0.6c0-0.1,0.1-0.1,0.2-0.2c0.3-0.2,0.5-0.5,0.5-0.9c0-0.3,0.1-0.7,0.2-1.1c0.9,0,1.7,0,2.6,0c0-0.8,0-1.5,0-2.2
		c0.3,0,0.5,0,0.8-0.1c0-0.3,0-0.5,0-0.7c0-2.6-0.1-5.2-0.2-7.9c0-0.5,0.2-0.7,0.5-0.8c0.7-0.2,1.4-0.3,2.2-0.3c0.7,0,1.4,0,2.1,0.1
		c0.7,0.1,1.4,0.3,2,0.7c0.5,0.3,0.9,0.4,1.5,0.4c0.5,0,1.1,0.1,1.6,0.2C152.7,73.3,152.9,73.4,153.2,73.5z M117.7,90.5
		c-0.3,0-0.5,0-0.7,0c-1.4,0-2.1,0.7-2.1,2.1c0,0.5-0.1,1-0.1,1.5c0,0.5-0.3,0.9-0.4,1.2c-0.2,0.9-0.1,1.9-0.1,2.8
		c1.1,0.2,0.2,1.2,0.7,1.6c0.8,0.5,0,1.3,0.4,1.8c0.5,0.3,1.4-0.5,1.6,0.3c0.6,0.4,1.4,0.6,1.5,1c0.2,0.6,0.6,0.8,1,1.1
		c0.8,0.6,1.4,1.3,2.1,2c0.4,0.4,0.7,0.9,1.2,0c0.4-0.7,1.2-1.1,1.6-1.8c0.3-0.6,0.8-0.5,1.1-0.3c0.6,0.4,1.1,0.9,1.6,1.5
		c0.6,0.6,1,1.3,1.6,1.8c0.9,0.8,1.9,1.5,2.9,2.2c0.5,0.4,0.9,0.3,1.3-0.2c0.2-0.3,0.4-0.6,0.7-0.9c0.8-0.6,0.8-0.7,0-1.2
		c-0.5-0.3-0.5-0.7-0.3-1c0.3-0.5,0.7-0.9,1.1-1.3c0.5-0.5,1-0.8,1.6-0.1c0.2,0.3,0.5,0.5,0.8,0.7c0.1,0.1,0.3,0.2,0.5,0.1
		c0.3-0.1,0.7-0.2,0.8-0.4c0.3-0.5,1-0.5,1.1-1.3c0-0.3,0.3-0.7,0.7-0.9c0.4-0.2,1-0.2,1.4-0.3c0.2-0.1,0.5-0.2,0.6-0.4
		c0.8-1,1.6-2,2.4-3c0.3-0.3,0.7-0.5,1-0.7c0.2-0.1,0.6-0.2,0.6-0.3c0-0.3-0.1-0.7-0.3-0.8c-1.1-0.5-1.7-1.6-2.8-2.2
		c-0.8-0.4-1.3-1.1-2-1.6c-0.4-0.3-0.8-0.2-0.9,0.3c-0.2,0.8-0.6,0.9-1.2,0.3c-0.6-0.6-1.3-1.1-2-1.6c-0.6-0.4-0.8-0.9-0.2-1.5
		c0.1-0.1,0.2-0.2,0.3-0.4c0.5-0.8,1-1.5,1.6-2.2c0.3-0.3,0.7-0.4,1.1,0c0.2,0.2,0.5,1.2,1,0.2c0,0,0.1,0,0.2,0
		c0.6,0,1.3,0.1,1.3-0.8c0-0.1,0.2-0.1,0.3-0.2c0.5-0.5,1.2-0.9,1.3-1.7c0.1-0.6,0-1.3,0-2c-1.5-0.1-3-0.2-4.5-0.3
		c0,0.3-0.1,0.4,0,0.5c0.1,1-0.7,1.5-1,2.3c0,0.1-0.2,0.1-0.4,0.1c-0.9,0.1-1.7-0.2-2.3-0.9c-0.7-0.7-2.5-0.4-3,0.5
		c-0.3,0.7-0.6,1.4-1.2,2c-0.2,0.2-0.3,0.4-0.3,0.7c-0.2,0.4-0.9,0.9-1.3,0.7c-0.4-0.2-0.8-0.7-1.2-1c-0.3-0.2-0.7-0.5-1-0.5
		c-0.7,0-0.8-0.4-0.9-0.9c0-0.2,0-0.5,0-0.8c-1.1,0-2.1,0-3.1,0c-0.1,0.5-0.1,1.1-0.2,1.7c-1.9,0-3.8,0-5.7,0
		C117.7,88.9,117.7,89.7,117.7,90.5z M86.3,114.2c-1.6,0.1-3-0.5-4.3-1.7c-0.5-0.1-1.2-0.1-1.5,1c-0.1,0.5-1.2,0.7-1.7,0.4
		c-0.6-0.5-1.3-0.9-1.6-1.7c-0.3-0.8-0.8-0.8-1.5-0.2c-0.1,0.1-0.4,0.2-0.5,0.2c-1.5,0.1-2.2-0.6-2.3-2.1c0-0.7-0.7-1.6-1.3-1.6
		c-0.6,0-0.8-0.2-1-0.7c-0.5-1-1.1-1.2-2.1-0.7c-0.2,0.1-0.7,0.1-0.8,0c-0.7-0.8-2-0.5-2.7-1.2c-0.1-0.3-0.1-0.7-0.2-1
		c-0.4-0.7-0.6-1.4-0.6-2.2c0-0.6-0.6-1.1-1.2-1.1c-0.1,1.4,0.1,2.8-0.4,4.2c-0.4,1-0.4,2.2-1.1,3.1c-0.2,0.2-0.3,0.5-0.3,0.8
		c-0.1,1.1-0.3,2.2-1.2,3c-0.6,0.6-1.2,1.2-1.9,1.6c-0.8,0.4-1.7,0.5-2.6,0.8c-0.1,0-0.3,0.2-0.3,0.3c0.2,0.8-0.5,1.8,0.6,2.3
		c0.1,0,0.2,0.2,0.2,0.3c0.3,0.8,0.6,1.5,0.9,2.4c0,0,0.2,0,0.4,0.1c0.1-0.1,0.2-0.2,0.2-0.3c0.1-0.8,0.8-0.4,1.2-0.5
		c0.4,0,0.6,0.3,0.5,0.7c0,0.3,0,0.6,0.1,0.9c0.3,1.1,0.7,2.1,1,3.3c0.3,0,0.8,0,1.2,0c0.2,0,0.6,0.3,0.6,0.4c0,1,0.6,1,1.4,1
		c0.5,0,1.1-0.1,1.3,0.1c0.7,0.7,1.3,0.9,2.2,0.6c0.9-0.3,1.8-0.4,2.6-0.8c0.6-0.3,1.1-0.3,1.6-0.4c0.5,0,0.6,0.1,0.6,0.6
		c0,0.9,0,1.9,0,2.8c0,1.5,0.3,1.8,1.7,2.4c0.3,0.1,0.6,0.4,0.8,0.6c0.5,0.4,0.9,0.8,1.7,0.8c1.4,0,2.7,0,4.1,0.2
		c1,0.1,2.1,0.5,3.1,0.7c0.2,0,0.6-0.1,0.7-0.2c0.2-0.3,0.3-0.8,0.4-1.2c0.2-0.7,0.4-1.4,1-2c0.5-0.4,0.4-1.1,0-1.5
		c-0.3-0.2-0.6-0.5-0.8-0.8c-0.3-0.5-0.7-0.6-1.3-0.6c-0.7,0-1.4,0-2,0c0-0.1,0.1-0.1,0.1-0.2c-0.2-0.1-0.4-0.2-0.6-0.4
		c-0.2-0.2-0.3-0.4-0.6-0.7c0,0-0.1,0-0.2,0c-1,0-1,0-1-1c0-0.2-0.1-0.3-0.1-0.5c-0.1-0.4-0.4-0.8-0.4-1.2c-0.1-0.8,0.5-1.5,1.3-1.9
		c0.4-0.2,0.9-0.4,0.9-1c0.1-0.5,0.3-1,0.4-1.6c0.2-1,0.9-1.4,1.7-1.7c0.3-0.1,0.6-0.5,0.8-0.9c0.2-0.3,0.2-0.6,0.2-0.9
		c0.8,0,1.5,0,2.3,0C86.2,115.2,86.2,114.7,86.3,114.2z M98.9,109.1c0.1-0.7,0.2-1.4,0.3-2c-0.5-0.3-1.3,0.4-1.5-0.6
		c-0.9,0-1.9,0-2.7,0c-0.1,0.2-0.2,0.5-0.4,0.5c-1,0-2,0-3,0c0-1.2,0-2.4,0-3.5c-1,0.2-2,1-3.1,0.2c0.1,3.6-0.3,7.1,0.5,10.6
		c-1,0-1.8,0-2.6,0c-0.1,0.6-0.2,1.1-0.2,1.6c-0.8,0-1.5-0.1-2-0.1c-0.5,0.7-0.8,1.3-1.2,1.8c-0.1,0.1-0.5,0.1-0.7,0.2
		c-1.1,0.6-1.4,1.6-1.6,2.7c-0.1,0.5-0.1,1-0.7,1.3c-0.4,0.2-0.9,0.5-1.1,0.8c-0.2,0.4-0.7,0.8-0.4,1.4c0.2,0.4,0.4,0.9,0.4,1.4
		c0,0.6,0.2,0.8,0.8,0.8c0.2,0,0.4,0,0.6,0c0,0.1-0.1,0.1-0.1,0.2c0.3,0.2,0.6,0.5,0.8,0.7c0,0,0.1-0.1,0.1-0.1
		c0,0.2,0.1,0.3,0.1,0.5c0.6,0,1.2,0,1.8,0c0.8-0.1,1.4,0.2,1.7,1c0.1,0.1,0.1,0.2,0.2,0.3c0.8,0.5,0.9,1.3,0.3,2.1
		c-0.2,0.3-0.6,0.5-0.7,0.8c-0.3,0.8-0.5,1.6-0.7,2.5c1.5,0.8,3.1,1.1,4.7,1.3c0-0.6,0.2-0.9,0.8-0.9c0.4,0,0.7,0,1.1-0.1
		c0.2-0.1,0.4-0.2,0.5-0.4c0.3-0.4,0.5-0.9,0.9-1.2c0.9-0.7,2-0.4,2.1,0.6c1,0.1,0.9,0.8,1,1.5c0.3,0.1,0.6,0,0.7,0.2
		c0.4,0.7,1,0.4,1.6,0.4c0.1-0.3,0.1-0.5,0.1-0.7c0.7,0,1.5,0,2.2,0c0.7,0.1,0.9-0.2,0.9-0.9c0-1-0.1-2,0.4-2.9
		c0.1-0.2,0.3-0.4,0.3-0.6c0.1-1.2,0.3-2.3,0.8-3.4c0.1-0.2,0.3-0.7-0.3-0.9c-0.1,0-0.1-0.2-0.1-0.3c-0.1-0.7-0.1-1.3-0.1-2
		c0-0.6-0.2-1-0.6-1.3c-0.2-0.1-0.4-0.4-0.4-0.5c0.1-0.8-0.5-1.1-1-1.3c-0.4-0.2-0.7-0.5-0.7-1c0-0.7,0-1.4-0.4-1.9
		c-0.5-0.7-0.4-1.3-0.2-1.9c0.7-0.2,1.3-0.5,1.9-0.5c0.6,0.1,1.2,0.5,1.8,0.8c0-0.3,0-0.4,0-0.5c0-1,0-1.1-1-1.2
		c-0.3,0-0.6-0.1-0.9-0.1c-0.7-0.1-1-0.6-0.9-1.3c0.1-0.5,0.1-1.1,0.1-1.7c0-0.4-0.2-0.7-0.7-0.7c-0.5,0-0.6-0.2-0.6-0.6
		c0-0.3,0-0.5,0-0.8C98.4,109.1,98.7,109.1,98.9,109.1z M51.8,65.3c-0.2,0.5,0.3,1.1-0.4,1.3c0,0,0,0.4,0.1,0.5
		c0.5,0.2,0.4,0.6,0.4,1c0,0.4-0.1,0.8,0.1,1.1c0.4,1,0.4,2,0.4,3.1c0,0.4,0,0.8,0,1.2c1.2,0,2.2,0,3.3,0c0.2,0,0.4,0,0.6,0
		c0.1-0.3,0.1-0.5,0.1-0.7c0.7,0.1,1.3,0.2,2,0.3c0.2,0,0.4,0.3,0.5,0.5c0.3,0.7,0.8,0.5,1.3,0.4c0.3,0,0.6-0.2,1.1-0.4
		c-0.3-0.2-0.5-0.3-0.8-0.5c0.1-0.4,0-1,0.9-1c0.3,0,0.7-0.1,1-0.1c1.4,0,1.2,0.1,1.2-1.3c0-0.6,0-1.3,0-2c0.8,0,1.6,0.1,2.4,0.1
		c0-0.7,0-1.3,0-1.9c1.8,0,3.4,0,5.2,0c0-0.6,0-1.1,0-1.4c0.5-0.4,1.1-0.7,1.4-1.1c0.5-0.7,1-0.9,1.7-0.4c0.6,0.4,1,0.2,1-0.5
		c0-0.8,0-1.6,0-2.4c0.5-0.2,0.8-0.3,1.2-0.4c-0.4-0.7-1-1.1-1.7-1.3c-1.1-0.3-1.2-0.3-1-1.6c1,0,2,0,3,0c0-1,0-1.9,0-2.9
		c0.5,0.1,0.8,0.2,1.2,0.3c0-0.4,0-0.8,0-1.3c-1.5-0.1-2.9-0.2-4.3-0.2c-1,0-1.9,0-2.9,0c-1.9-0.1-3.9-0.3-5.8-0.4
		c-0.9-0.1-1.8,0-2.7,0c-1.6,0-3-0.7-4.4-1.5C57.5,51.8,57,52,56.6,52c-1.2,0-1.2,0-1.3,1.2c-0.1,1-0.1,1.1-1.1,1.1
		c-1.8,0-3.5,0-5.3,0c-0.6,0-1.2,0-1.9,0c0,0.7,0,1.4,0,2c0,0.7,0.1,1,0.9,1c0.4,0,0.9,0,1.3,0c0.5,0,0.8,0.2,0.7,0.8
		c-0.1,0.6-0.3,1.1-0.4,1.8c0.2,0.2,0.8,0.4,0.8,0.6c0.1,0.9,0,1.9-0.2,2.9c0,0.2-0.5,0.3-0.8,0.4c0,0.4,0,1,0,1.5
		c0.4,0,0.8,0,1.2,0C51,65.3,51.3,65.3,51.8,65.3z M155.9,133.6c-0.4,0.1-0.7,0.4-1,0.3c-0.5,0-1.5-1.7-1.2-2.1
		c0.4-0.6,0.2-1.1,0.2-1.7c-0.1-0.6-0.3-0.8-0.7-1.1c-0.9-0.7-1.8-1.4-2.7-2.2c-0.1-0.1-0.1-0.1-0.2-0.2c-0.8-1.2-2.1-1.4-3.3-1.8
		c-0.3-0.1-0.7,0.3-1.1,0.4c-0.4,0.1-0.8,0.2-1.2,0.2c-0.1,0-0.2-0.3-0.4-0.5c-0.1-0.2-0.2-0.3-0.4-0.4c-1.6-0.8-3.2-1.5-4.8-2.3
		c-1.1-0.5-2.1-1-3.3-1c-0.1,0-0.2-0.1-0.4-0.2c-0.7-0.2-1.4-0.4-2-0.6c-0.1,0.4-0.1,0.7-0.2,0.9c-0.2,0.5-0.6,0.9-0.8,1.3
		c-0.1,0.2,0,0.6,0,0.6c0.6,0.2,0.4,0.8,0.3,1.1c-0.3,0.8-0.7,1.5-1,2.2c-0.3,0.7-0.2,1.1,0.5,1.4c0.2,0.1,0.5,0.2,0.7,0.3
		c0.5,0.3,0.3,0.6,0.2,1c-0.1,0.3-0.3,0.5-0.4,0.9c0.3,0.1,0.5,0.1,0.7,0.2c-0.1,1.2-0.1,2.3-0.2,3.5c0.5,0,0.8,0,1.1,0
		c0.1,1.1,0.1,2.2,0.2,3.2c0,0.6-0.3,0.8-0.8,1c-0.7,0.2-1.4,0.4-2.2,0.6c-0.3,1,0.2,1.6,1,2.2c1.1,0.8,2.1,1.7,3.6,1.4
		c0.1,0,0.2,0.1,0.3,0.1c0.4,0.3,0.7,0.5,1.1,0.8c0.3,0.2,0.4,0.3,0.7,0c0.2-0.3,0.7-0.5,1-0.4c0.5,0,1,0.3,1.5,0.1
		c0.1,0,0.3,0.1,0.4,0.3c0.2,0.3,0.4,0.6,0.6,0.8c0.4,0.3,0.4,0.6,0.4,1c0,0.2,0,0.5,0.2,0.6c0.9,0.7,1.7,1.3,2.6,2
		c0.2,0.1,0.4,0.2,0.7,0.3c0.1-0.9,0.1-1.6,0.2-2.4c0.1-0.5,0.1-1,0.3-1.5c0.1-0.3,0.3-0.7,0.6-0.8c0.6-0.2,1.2-0.6,1.9-0.5
		c1.3,0.1,2.6,0,4,0c0-0.8,0-1.5,0-2.1c-0.1-0.7-0.2-1.3-0.3-1.9c-0.2-0.8,0-1,0.7-1c0.6,0,1.2,0.1,1.9,0.1c0.2,0,0.4-0.2,0.6-0.3
		c0.2-0.2,0.4-0.6,0.7-0.7c0.5-0.2,0.9-1.1,0.7-1.6C156.4,134.7,156.2,134.1,155.9,133.6z M116.5,106.3c0.6-1.1,1-2.2,2-2.9
		c0.1,0,0-0.4,0-0.5c-0.4-0.3-0.9-0.5-1.3-0.8c0,0-0.1,0.1-0.1,0.1c0-0.2-0.1-0.3-0.1-0.5c-0.5,0-1.2-0.2-1.3,0
		c-0.5,0.6-1.1,0.3-1.6,0.4c-0.9,0.1-1.8,0.1-2.6,0.2c-0.2,0-0.4,0.1-0.6,0.3c-0.7,0.6-1.5,1-2.5,0.9c-0.2,0-0.5,0.2-0.8,0.3
		c0,0.1,0,0.2,0.1,0.2c-0.9,0-1.8-0.1-2.7-0.1c0,0.4,0,0.8,0,1.2c-0.6,0-1.2,0-1.8,0c0,0.3-0.1,0.5-0.1,0.7c-1,0-2,0-3,0
		c-0.3,1.1-0.5,2.2-0.8,3.3c-0.2,0-0.4,0-0.7,0.1c0,0.6-0.2,1.1,0.7,1.1c0.2,0,0.5,0.4,0.5,0.7c0,0.6-0.1,1.3-0.1,1.9
		c0,0.2,0.1,0.6,0.3,0.7c0.6,0.2,1.2,0.4,1.8,0.5c0.5,0,0.7,0.3,0.7,0.7c0,0.4,0,0.8,0,1.4c-0.6-0.3-1.1-0.5-1.6-0.7
		c-0.3-0.1-0.9-0.3-0.9-0.2c-0.3,0.6-0.9,0.3-1.4,0.5c0,0.4-0.1,0.9,0.1,1.2c0.5,0.7,0.6,1.5,0.6,2.3c0,0.6,0.2,0.9,0.8,1.1
		c0.5,0.2,1,0.5,1,1.2c0,0.4,0.6,1,1,1.1c1.1,0.5,2.4,0.8,3.6,1.1c0.3,0.1,0.6,0.2,0.8,0.1c1-0.5,1.4-0.4,2.3,0.3
		c1,0.8,2.1,1.4,3.1,2.1c0.1,0.1,0.3,0,0.5,0c1.2-0.1,2.4-0.2,3.7-0.3c0,1,0,1.8,0,2.7c0.9-0.1,1.7-0.1,2.7-0.2c0-0.4,0-0.8,0-1.2
		c1.1,0,2.1,0,3.2,0c0.9,0,1.8-0.9,1.7-1.8c-0.3,0-0.7,0-0.9-0.1c-0.3-0.5-0.4-1-0.7-1.4c-0.2-0.4-0.8-0.6-0.8-0.9
		c-0.1-0.8,0.1-1.7,0.2-2.5c0.1-0.7,0.2-1.5,0.3-2.2c0-0.1,0-0.2-0.1-0.2c-0.6-0.4-1.3-0.8-1.9-1.2c-0.5-0.3-1-0.4-1.5-0.7
		c-0.7-0.4-1.4-0.9-2.2-1.5c-0.2-0.2-0.6-0.5-1-0.8c-0.1-0.1-0.2-0.3-0.3-0.4c-0.2-0.7,0.7-1.3,1.4-1.4c0.2,0,0.4-0.1,0.6-0.2
		c0.3-0.1,0.6-0.2,0.9-0.4c0.4-0.2,1-0.1,0.7-0.9c-0.6,0.1-1.3,0.1-1.9,0.3c-0.6,0.2-1.1,0.5-1.7,0.2c-0.2-0.1-0.5-0.4-0.7-0.4
		c-1.1,0.1-1-0.7-0.9-1.3c0-0.2,0.1-0.3,0.3-0.5c0.4-0.5,0.7-1,1.2-1.4C115,107,115.3,105.9,116.5,106.3z M41.1,89.2
		c0.9,0.1,1.8,0.2,2.7,0.1c1.7,0,3.4,0.3,5.1-0.4c0.1-0.2,0.3-0.4,0.3-0.7c0.1-0.5,0.4-0.8,0.9-0.8c0.5,0.1,0.5,0.5,0.5,0.9
		c0,0.8,0.2,1.1,1,1c0.5,0,1,0.1,1,0.7c1.3,0,2.6,0,3.8,0c0.2-1.5-0.9-2.8,0-4.4c-0.6,0-1,0-1.4,0c0-1.5,0-2.9,0-4.3
		c0-0.1,0-0.2,0-0.2c0.6-0.4,0.5-1,0.5-1.6c0-1,0-2,0-3.1c0.4,0,0.7-0.1,1-0.1c0-0.3,0-0.8-0.1-0.8c-0.5-0.2-0.3-0.6-0.3-0.9
		c0-0.4,0-0.7,0-1.2c-1.4,0-2.7,0-4,0c-0.2-2-0.4-3.9-0.6-5.8c0-0.2-0.3-0.3-0.3-0.5c-0.1-0.3-0.2-0.6-0.1-0.8
		c0.1-0.3,0.3-0.6,0.5-1c-1,0-1.8,0-2.6,0c0-0.6,0-1.2,0-1.8c-0.8-0.1-1.5-0.1-2.2-0.2c-0.1,1.3-0.2,2.5-0.2,3.7
		c0,0.5-0.2,0.7-0.8,0.7c-1.1,0-2.1,0-3.2,0c-0.2,0-0.4-0.1-0.6-0.3c-0.3-0.4-0.4-0.9-0.7-1.2c-0.2-0.3-0.6-0.5-1-0.6
		c-0.4-0.1-0.8,0-0.9,0.6c-0.1,0.5-0.4,0.6-0.9,0.5c-1-0.1-2.1-0.1-3.2-0.2c0,2.8,0,5.5,0,8.2c0.4,0,0.9,0,1.3,0
		c0.9,0,1.2,0.4,1.1,1.3C38.1,76.8,38,77.4,38,78c-0.1,0.6,0.2,0.9,0.8,1c0.3,0,0.7,0.3,0.8,0.6c0.3,1,0.5,2,0.7,3
		c0.1,0.4,0,0.8,0.1,1.2c0.1,0.8,0.4,1.6,0.5,2.4C41,87.1,41.1,88.1,41.1,89.2z M125.5,153.5c0.1,0,0.4,0,0.5-0.2
		c0.4-0.4,0.4-1.1,0.1-1.6c-0.7-0.9-0.6-1.2,0.2-1.9c0.5-0.4,0.7-0.9,1.4-1.1c0.1,0,0.1-0.1,0.1-0.2c0.5-0.6,0.9-1.3,1.4-1.9
		c0.1-0.1,0.3-0.2,0.4-0.2c0.7,0.1,1.4,0.2,2.1,0.2c0.3,0,0.7-0.1,1-0.2c0.7-0.3,1.3-0.7,2.1-0.1c0.1,0.1,0.5-0.1,0.7-0.2
		c0.7-0.7,1.2-1.5,1.9-2.2c0.3-0.3,0.3-0.6,0-0.7c-0.6-0.3-1-1.1-1.9-0.7c-0.1,0.1-0.4,0-0.5-0.1c-0.9-0.4-1.6-0.9-2.4-1.4
		c-1.1-0.7-1.3-1.5-1-2.5c0.8-0.2,1.5-0.4,2.2-0.6c0.3-0.1,0.6-0.5,0.7-0.7c0-1.1-0.1-2.1-0.1-3.2c-0.4,0-0.7,0-1,0
		c0-1.2,0-2.3,0-3.4c-0.5-0.1-0.7-0.8-0.3-1.2c0.5-0.4,0.3-0.7-0.2-0.9c-0.3-0.1-0.6-0.2-0.9-0.4c-0.2-0.1-0.4-0.3-0.4-0.4
		c0.1-0.5,0.2-0.9,0.3-1.4c0.1-0.3,0.3-0.6,0.5-1c-0.8-0.3-1.5-0.5-2.2-0.8c-0.1-0.1-0.3-0.5-0.2-0.6c0.4-0.4,0.1-0.6-0.2-0.7
		c-0.9-0.5-1.9-0.9-2.9-1.3c-0.2-0.1-0.5,0.1-0.7,0.3c-0.5,0.8-1,1.6-1.5,2.4c-0.3,0.4-0.6,0.7-1,1.2c0,0.8-0.8,1.6-1.9,1.6
		c-1,0-2,0-3,0c0,2,0,3.9,0,5.9c-1,0-1.9,0-2.8,0c0,1.3,0,2.5,0,3.8c0.5,0.1,0.9,0.2,1.4,0.3c-0.3,0.7-0.1,1.1,0.5,1.4
		c0.1,0,0.1,0.3,0.1,0.5c-0.1,0.9-0.2,1.7-0.3,2.6c0,1,0.1,2,0.1,3c0,0.2,0,0.3,0.1,0.5c0.3,0,0.6,0,0.9,0.1c0,0.4,0.1,1-0.1,1.2
		c-0.9,0.6-0.3,1.4-0.5,2.2c0.9,0,1.7,0.2,2.4,0c1.5-0.4,2.7,0.4,3.9,0.9c0.1,0,0.2,0.3,0.2,0.4
		C124.6,151.1,124.4,152.4,125.5,153.5z M63.3,94.3c0-0.8,0-1.5,0-2.2c0-0.3,0.2-0.7,0.3-0.7c0.6-0.1,1.3-0.4,1.7-0.1
		c1,0.7,2.1,1.1,3.3,1c0.4,0,0.8-0.2,1.2-0.3c1-0.1,1,0,1-1c0-0.7,0.3-0.9,0.9-0.9c0.6,0.1,0.9-0.1,1.1-0.6c0.1-0.3,0.4-0.6,0.7-0.6
		c1-0.2,2-0.3,3.1-0.4c0.5-0.1,0.7-0.2,0.7-0.7c0-0.5,0.1-0.9,0.1-1.3c0.4-0.1,0.7-0.2,1-0.3c0.1-0.7,0.1-1.3,0.2-1.9
		c-0.7,0-1.2,0-1.8,0c-0.2-1.1-0.2-1.1-1.3-1.1c-1.5-0.1-3-0.2-4.5-0.3c-0.1,0-0.3,0-0.3-0.1C70.6,82,70,82,69.4,82
		c0-0.9-0.1-1.8,0-2.6c0.2-0.7-0.1-1.1-0.5-1.6c-0.4-0.4-0.8-0.8-1.2-1.2c-0.1-0.1-0.2-0.3-0.2-0.4c0-0.8-0.3-1.7,0.6-2.2
		c0.2-0.1,0.3-0.4,0.4-0.6c-0.2-0.1-0.4-0.1-0.6-0.2c-0.5-0.4-1.1-0.8-1.6-1.3c-0.3-0.2-0.5-0.6-0.5-0.9c-0.1-0.7,0-1.3,0-2
		c-0.4-0.1-0.8-0.2-1.1-0.2c-0.4,0-0.7,0-1.1,0c0,0.6,0,1.1,0,1.6c0,1.6,0,1.6-1.6,1.7c-0.2,0-0.4,0.1-0.6,0.1
		c-0.6-0.1-0.8,0.3-0.8,0.8c0.5,0.1,0.9,0.2,0.7,0.8c-0.3,0.1-0.6,0.3-0.8,0.3c-0.5,0-1.3,0.1-1.4-0.1c-0.5-1.2-1.7-0.5-2.5-1.2
		c0,0.9,0,1.6,0,2.4c0,0.1,0,0.2,0.1,0.3c0.7,0.3,0.2,0.9,0.3,1.3c-0.4,0-0.6,0-1,0c0,0.5,0,0.9,0,1.3c0,1,0.1,2-0.2,2.9
		c-0.3,0.7-0.2,1.4-0.4,2.1c0,0,0,0,0,0.1c0,0.9,0,1.8,0,2.7c0.5,0,0.9,0,1.5,0c-1,1.6,0.2,3.1,0,4.6c-1.2,0-2.3,0-3.5,0
		c-0.2,0-0.4,0.1-0.5,0.3c-0.1,0.1,0,0.3,0.1,0.4c0.3,0.3,0.5,0.5,0.1,0.9c-0.1,0.1-0.2,0.3-0.2,0.5c0,1.6,0,3.3,0,4.9
		c0.9,0,1.8,0.3,2.3-0.7c0-0.1,0.2-0.2,0.3-0.1c0.6,0,1.3,0,1.8,0.2c0.6,0.3,1.2,0.3,1.8,0.3c0.4,0,0.8,0,1.3,0
		c0.1,0.6,0.4,0.8,0.9,0.7c0.3,0,0.6-0.1,0.9,0c0.6,0.1,0.8-0.4,1-0.7c0.2-0.3,0.2-0.7-0.2-1.1c-0.3-0.4-0.3-1-0.4-1.6
		C62.9,94.3,63.1,94.3,63.3,94.3z M156,133.5c0.3,0.6,0.5,1.1,0.8,1.6c0.2,0.5-0.1,1.6-0.5,1.8c-0.3,0.2-0.6,0.5-0.9,0.7
		c-0.2,0.2-0.5,0.4-0.8,0.4c-0.6,0-1.2-0.1-1.7-0.1c-0.6,0-0.9,0.2-0.6,0.8c0.4,0.9,0.3,1.9,0.3,2.8c0,0.5-0.1,1.1,0.1,1.6
		c0.4,0.8,1,1.6,0.8,2.5c1,0.3,2,0.5,2.9,0.8c0,0.4,0,0.7,0,0.9c1.1,1,2.4,0.4,3.6,0.6c0-0.9-0.1-1.7-0.1-2.5c0-0.2,0.1-0.6,0.2-0.6
		c1.1-0.1,0.9-0.8,0.7-1.5c0-0.1,0-0.3,0-0.5c0.8-0.1,1.6-0.3,2.4-0.3c0.7,0,1.4,0.2,2.3,0.4c0.1,0.7,0.2,1.5,0.3,2.5
		c1-0.1,2.1-0.2,3.1-0.3c0-0.5,0.1-0.7,0.1-1c0.8,0,1.6,0,2.4,0c0.7,0,1.2,0.1,1,1c1.5,0,2.9,0,4.3,0c0.5,0,0.7-0.5,0.4-1
		c-0.5-1-0.4-2.1-0.4-3.2c0.4,0,0.7,0,1.1,0c0.1-1.5,0.1-2.9,0.2-4.3c-2.3-0.3-2.7-0.7-2.5-2.1c0.3,0,0.7,0,1.1,0
		c-0.1-0.7-0.2-1.4-0.2-2.1c-0.6-0.1-1.2-0.1-1.8-0.2c-0.5-0.1-1.2,0-1.5-0.3c-0.4-0.4-0.9-0.6-1.4-0.6c-0.6,0-1.1-0.1-1.7-0.1
		c-0.6-0.1-1.2-0.1-1.6-0.4c-0.7-0.5-1.3-0.4-1.8,0.1c-0.2,0.1-0.3,0.3-0.5,0.4c-0.3,0.1-0.6,0.2-0.8,0.1c-0.2-0.1-0.4-0.5-0.4-0.7
		c0-1.1,0-2.1,0-3.2c-0.4,0-0.7,0-0.9,0c-0.1-0.3-0.2-0.5-0.3-0.7c-0.4-0.7-0.7-0.8-1.4-0.5c-0.1,0-0.2,0.1-0.3,0.1
		c-1.2-0.1-2,0.5-2.8,1.2c-0.7,0.5-1.8,0.4-2.5-0.2c-0.4-0.4-0.9-0.4-1.3-0.1c-0.3,0.3-1,0.5-0.6,1.2c0.3,0.6-0.2,1.2-0.7,1.5
		c-0.5,0.3-0.4,0.8-0.2,1c0.4,0.5,0.1,0.9,0,1.3c-0.1,0.2-0.2,0.4-0.1,0.6c0.2,0.4,0.4,0.8,0.7,1.1c0.2,0.3,0.5,0.8,0.9,0.1
		C155.6,133.4,155.9,133.5,156,133.5z M99.6,105.7c1,0,2,0,3,0c0-0.3,0.1-0.4,0.1-0.7c0.6,0,1.1,0,1.8,0c0-0.5,0-1,0-1.5
		c0-0.3,0.1-0.7-0.1-0.9c-0.6-0.6-0.6-1.4-0.6-2.2c0-0.3,0-0.6,0-0.9c-0.3,0-0.5-0.1-0.7,0c-0.8,0.3-1.5,0.1-2.3-0.3
		c-0.2-0.1-0.5-0.1-0.8-0.2c-0.8,0-1.5,0-2.3,0c0-0.9,0-1.6,0-2.4c0.6,0,1.1,0,1.6,0c0-0.9,0-1.7,0-2.5c-0.6,0-1.1,0-1.6,0
		c0-0.3-0.1-0.5-0.1-0.7c-0.5,0-1.3,0.2-1.5,0c-0.5-0.6-1-0.3-1.5-0.4c-0.3-0.1-0.7,0-1,0c0-2.3,0-4.4,0-6.7c-0.4,0-0.8,0-1.2,0
		c0-0.5,0-1,0-1.5c0.1-0.7-0.1-1.3-0.7-1.8c-0.6-0.5-0.6-1.2-0.4-1.9c0.2-0.6,0.4-1.1,0.6-1.7c-0.4,0-0.7,0-1.1-0.1
		c0-1.6,0-3.2,0-4.7c-0.9-0.1-1.7-0.3-2.5-0.4c0,2.1,0,4.2,0,6.4c-0.6,0-1.2,0-1.9,0c0,0.4,0,0.7,0,1c0,0.4-0.2,0.7-0.7,0.6
		c-0.3,0-0.5,0-0.8,0c-1.6,0-3.2,0-4.9,0c0,0.5,0,0.9,0,1.3c0,0.9,0.4,1.3,1.3,1.3c0.2,0,0.5,0,0.6,0.1c0.4,0.7,1,0.6,1.6,0.6
		c0.4,0,0.8,0,1.2,0c0,0.5,0,0.8,0,1.3c0.4,0,0.8,0,1.2,0c0.2,0,0.4-0.1,0.6-0.2c0.3-0.1,0.5-0.3,0.9-0.5c0,1.1,0,2,0,2.9
		c0,0.1,0,0.2,0,0.4c-0.1,0.2-0.2,0.5-0.3,0.7c-0.2,0.3-0.5,0.5-0.6,0.8c-0.8,1.4-1.7,1.9-3.1,1.7c-0.7-0.1-1.4-0.2-2.1-0.3
		c-0.2,0.5,0.5,1.2-0.3,1.6c-0.5,0.2-1,0.5-1.6,0.9c1,0.2,1.7,0.8,1.6,1.6c-0.1,0-0.2,0-0.2,0.1c-0.2,0.2-0.5,0.4-0.7,0.6
		c0.2,0.2,0.4,0.3,0.5,0.5c0.7,0.8,1.7,1.3,1.5,2.5c0.2,0.2,0.4,0.3,0.5,0.4c0.3,0.4,0.6,0.7,1.2,0.7c0.4,0,0.7,0.3,0.7,0.8
		c-0.1,0.5,0,1.1,0,1.7c1.1,0,2.1,0,3.1,0c0.5,0,1-0.2,1.4,0.1c0.5,0.3,0.8,0.1,1.2,0c0.5-0.1,1-0.3,1.5-0.4c0,1.3,0,2.4,0,3.6
		c0.8,0,1.6,0,2.3,0c0.3,0,0.5-0.2,0.8-0.3c0-0.1,0-0.1-0.1-0.2c1,0,2.1,0,3.1,0c0.2,1,0.9,0.3,1.4,0.6
		C99.4,106.5,99.5,106.1,99.6,105.7z M79.7,66.1c0.5,0,1,0,1.6,0c0.1-1,0.2-2,0.3-2.9c0.3,0,0.6,0,0.9,0c0-0.5,0-0.9,0-1.4
		c-0.6,0-1.3-0.1-1.8,0c-0.4,0.1-1.1-0.1-1,0.6c-0.4,0-0.7,0-1,0c0-0.2-0.1-0.4-0.1-0.6c-0.6,0-1.2,0-1.9,0c0-0.4,0-0.7-0.1-1.1
		c-0.4,0.1-0.7,0.1-1.2,0.3c0,0.8,0,1.6,0,2.4c0,0.7-0.5,1-1.1,0.7c-0.2-0.1-0.3-0.3-0.5-0.3c-0.3,0-0.7-0.2-0.9,0.3
		c-0.3,0.5-0.9,1-1.4,1.4c-0.1,0-0.1-0.1-0.2-0.1c0,0.5,0,1.1,0,1.6c-1.8,0-3.4,0-5.2,0c0,0.3,0,0.5,0,0.7c0,1.1,0,2.3,0,3.4
		c0,0.2,0.2,0.5,0.4,0.7c0.3,0.3,0.6,0.5,0.9,0.7c0.4,0.3,0.8,0.5,1.4,0.9c-0.3,0.3-0.5,0.7-0.8,1.1c-0.4,0.5-0.4,1.7,0.1,2.2
		c0.4,0.4,0.9,0.8,1.2,1.3c0.2,0.4,0.4,0.9,0.4,1.3c0,0.9-0.1,1.7-0.1,2.6c0.8-0.1,1.3,0.1,1.4,0.8c1.7,0.1,3.3,0.3,4.9,0.3
		c1.2,0,1,0,1.1,1c0,0,0.1,0.1,0.1,0.2c1-0.1,2-0.1,3.1-0.2c0-0.6,0-1.1,0-1.7c1.9,0,3.7,0,5.6,0c0.6,0,0.8-0.2,0.7-0.7
		c0-0.3,0-0.6,0-1c0.7,0,1.3,0,2,0c0-0.3,0-0.5,0-0.7c0-1.6-0.1-3.2-0.1-4.8c0-0.9,0.1-1.7-0.5-2.5c-0.3-0.5-0.6-0.7-1.1-0.7
		c-1,0-2.1,0-3.3,0c0.1-1,0.2-1.7,0.3-2.4c-1-0.3-1.9-0.6-2.8-1c-0.4-0.2-1.1-0.3-1.1-1C79.7,67.1,79.7,66.6,79.7,66.1z
		 M136.3,121.2c0.1-1.3,0.4-2.5,1.4-3.5c0.5-0.5,0.6-1.4,0-1.9c-0.5-0.5-0.5-1.1-0.2-1.5c0.8-1.1,1.7-2.1,2.6-3.1
		c0.3-0.3,0.3-0.5,0-0.8c-0.2-0.2-0.4-0.3-0.6-0.6c-0.3-0.3-0.5-0.4-0.9-0.3c-0.3,0.1-0.7,0.2-1,0c-0.5-0.2-0.9-0.5-1.3-0.9
		c-0.3-0.4-0.7-0.4-1.1-0.5c-0.5-0.1-0.9,0-1.2,0.3c-0.2,0.2-0.4,0.4-0.5,0.7c-0.6,0.8-1.3,0.8-2,0.2c-0.3-0.3-0.7-0.6-1.1-0.9
		c-0.6-0.4-1.2-0.8-1.8-1.3c-1-0.9-1.9-1.9-2.8-2.9c-0.3-0.3-0.7-0.5-1-0.2c-0.6,0.6-1,1.2-1.5,1.9c-0.7,0.9-1,0.9-1.7,0.1
		c-0.7-0.7-1.3-1.3-2-2c-0.6-0.6-1.2-0.5-1.6,0.1c-0.4,0.7-0.9,1.4-1.2,2c-0.5,0.2-1,0.2-1.2,0.5c-0.8,0.8-1.5,1.7-2.2,2.5
		c-0.2,0.3-0.2,1.3,0.1,1.4c0.6,0.2,1.3,0.4,1.9,0.5c0.1,0,0.2,0,0.3,0c0.9-0.6,1.9-0.5,2.8-0.5c0.2,0.6,0,0.9-0.6,1.1
		c-0.8,0.2-1.6,0.4-2.3,0.8c-0.4,0.2-1.2,0.4-0.8,1c0.3,0.6,1,1,1.5,1.5c0.3,0.2,0.6,0.2,0.9,0.4c0.9,0.7,1.8,1.4,3,1.6
		c0.3,0.1,0.6,0.3,0.8,0.5c0.3,0.3,0.8,0.6,0.7,1.3c-0.2,1-0.4,1.9-0.5,2.9c-0.1,0.5-0.1,1.1,0.2,1.4c0.7,0.6,1.1,1.3,1.3,2.2
		c0.7,0,1.4,0.3,1.9-0.6c0.4-0.9,1-1.6,1.5-2.5c0.3-0.5,0.7-0.6,1.2-0.4c0.9,0.3,1.7,0.8,2.6,1.2c0.5,0.2,0.7,0.5,0.4,1
		c0,0.1,0.1,0.4,0.2,0.4c0.3,0.2,0.7,0.3,1.1,0.4c0.3,0.1,0.7,0.2,0.9,0.3c0.2-0.3,0.3-0.5,0.4-0.8c0.1-0.2,0.1-0.6,0-0.7
		c-0.6-0.4-0.3-0.8-0.1-1.2c0.3-0.6,0.6-1.3,1-2.1C134.3,120.6,135.3,120.9,136.3,121.2z M107.4,139.7c0.6,0,1.5,0.5,1.6,1
		c0.3,0.9,0.5,1,1.4,0.8c0.2,0,0.4,0,0.6,0c0,0.1-0.1,0.1-0.1,0.2c0.3,0.4,0.5,0.8,0.9,1.1c0.3,0.4,0.7,0.7,1.1,1
		c0.4,0.3,0.9,0.6,1.3,0.8c0.6,0.3,1.4,0,1.7,0.8c0.1,0.1,0.5,0.2,0.7,0.2c0.3-0.1,0.6-0.2,1-0.4c-0.1-0.9-0.1-1.9-0.2-2.9
		c0-0.7,0-1.5,0.1-2.1c0.2-0.9,0.3-1.2-0.7-1.6c0-0.3,0.1-0.6,0.1-1c-0.4-0.1-0.9-0.1-1.3-0.2c0-1.4,0-2.7,0-4.1c0.9,0,1.8,0,2.7,0
		c0-1.5,0-3,0-4.5c-0.9,0.1-1.8,0.1-2.8,0.2c0-0.9,0-1.7,0-2.7c-1.2,0.1-2.4,0.3-3.5,0.4c-0.2,0-0.5,0-0.7-0.1
		c-1.2-0.8-2.3-1.6-3.4-2.4c-0.4-0.2-0.9-0.2-1.4-0.2c-0.3,0-0.7,0.3-1,0.2c-0.7-0.2-1.3-0.5-2-0.7c-0.6-0.2-1.2-0.4-1.9-0.6
		c0.1,1,0.1,1.9,0.2,2.8c0,0.1,0.1,0.1,0.1,0.2c0.3,0.3,0.4,1,0.1,1.4c-0.1,0.1-0.2,0.3-0.2,0.4c-0.2,0.9-0.1,2-0.5,2.8
		c-0.6,1.2-0.7,2.4-0.6,3.6c0,0.5-0.2,0.6-0.7,0.6c-0.8,0-1.6,0-2.4,0c0,1.5,0,2.8,0,4.3c1,0,1.9,0,2.9,0c0.1,0.5,0.1,1.1,0.2,1.6
		c0.1,0.4,0,0.8,0.6,1c0.5,0.1,0.9,0.4,1.4,0.6c0.2,0.1,0.6-0.1,0.6-0.2c0.1-0.6,0.4-1.1,0.9-1.2c0.2-0.1,0.8-0.1,0.8,0
		c0.1,0.5,0.5,0.3,0.8,0.3c0.3,0,0.7-0.1,1-0.1c0.4,0,0.6-0.2,0.5-0.6C107.4,140.2,107.4,140,107.4,139.7z"/>
</g>
</svg>
