<?xml version="1.0" encoding="utf-8"?>
<!-- Generator: Adobe Illustrator 18.0.0, SVG Export Plug-In . SVG Version: 6.00 Build 0)  -->
<!DOCTYPE svg PUBLIC "-//W3C//DTD SVG 1.1//EN" "http://www.w3.org/Graphics/SVG/1.1/DTD/svg11.dtd">
<svg version="1.1" id="Слой_1" xmlns="http://www.w3.org/2000/svg" xmlns:xlink="http://www.w3.org/1999/xlink" x="0px" y="0px"
	 width="250px" height="200px" viewBox="0 0 250 200" enable-background="new 0 0 250 200" xml:space="preserve">
<g>
	<path d="M79.6,56.3c0.3,1.7,0.5,3.4,0.9,5.1c0.8,3.7,2.7,6.7,6.3,8.3c2.2,1,4.5,1.1,6.9,0.4c0.8-0.2,1.2-0.7,1.4-1.4
		c1.6-4.5-0.9-10-5.6-12.1c-2.3-1-4.7-1.5-7.1-1.8c-0.3,0-0.7-0.1-1-0.2c-0.6,0-1.2,0-1.8,0C79.6,55.1,79.6,55.7,79.6,56.3z"/>
	<path d="M170.4,142.3c-0.2-0.1-0.6-0.3-0.8-0.5c-7.5-7.5-15-15-22.5-22.5c-0.6-0.6-1.2-1-2.1-1.3c-0.9-0.2-1.8-0.6-3-1.1
		c1.1,1.8,1,3.9,2.6,5.5c7.5,7.3,14.8,14.8,22.2,22.2c0.2,0.2,0.4,0.6,0.6,0.9C168.5,144.4,169.3,143.4,170.4,142.3z"/>
	<path d="M91.8,85.3c1.1,2,2.5,3.6,4.4,4.7c2.8,1.7,5.7,2.7,9.1,2.2c2.2-0.4,3.9-1.4,5.3-3.2c0.4-0.6,0.5-1.2,0.3-1.8
		c-0.5-2-1.9-3.3-3.6-4.4c-0.4-0.3-0.9-0.5-1.4-0.7c-1.3-0.6-2.4-0.7-3.7,0.3c-2.6,1.9-5.8,2.6-9.1,2.8
		C92.7,85.2,92.4,85.3,91.8,85.3z"/>
	<path d="M120.1,76.4c-0.3,1.8-0.4,3.4-0.7,5c-0.4,2.3-1.4,4.3-2.8,6.2c-0.2,0.3-0.3,0.9-0.3,1.3c0.6,2.5,1.9,4.6,4.2,6
		c1.7,1,2.7,0.9,4-0.5c2.1-2.1,2.8-4.7,2.4-7.5c-0.6-4-2.3-7.3-5.7-9.7C120.9,76.8,120.5,76.6,120.1,76.4z"/>
	<path d="M110.5,66.7c-0.2,1.8-0.4,3.4-0.7,5.1c-0.4,2.2-1.3,4.2-2.7,6c-0.4,0.5-0.5,1-0.3,1.5c0.8,2.7,2.2,4.9,4.8,6.1
		c1.2,0.6,2.2,0.3,3.2-0.6c2.4-2.3,3.1-5.2,2.5-8.4c-0.7-4-2.7-7.3-6.3-9.5C110.8,66.9,110.6,66.8,110.5,66.7z"/>
	<path d="M101.5,95.1c1.9,3.3,4.6,5.3,8.2,6.4c2.7,0.8,5.4,0.9,7.9-0.6c0.9-0.5,1.6-1.3,2.4-2c0.7-0.7,0.8-1.6,0.4-2.5
		c-0.7-1.8-1.9-3-3.5-4c-0.5-0.3-1.1-0.5-1.6-0.8c-1.2-0.6-2.1-0.5-3.3,0.4c-2.7,1.9-5.8,2.7-9,2.8c-0.4,0-0.8,0-1.2,0.1
		C101.7,94.9,101.7,95,101.5,95.1z"/>
	<path d="M129.8,86.1c-0.3,1.8-0.4,3.5-0.8,5.2c-0.4,2.2-1.3,4.2-2.7,5.9c-0.4,0.5-0.5,0.9-0.3,1.5c0.7,2.4,1.9,4.4,4.1,5.7
		c1.8,1.1,2.7,1,4.2-0.5c2-2,2.7-4.5,2.4-7.3c-0.6-4.4-2.6-7.9-6.4-10.3C130.2,86.2,130,86.2,129.8,86.1z"/>
	<path d="M139.6,95.8c-0.4,2.1-0.6,4.3-1.2,6.2c-0.5,1.7-1.6,3.3-2.4,4.9c-0.1,0.3-0.4,0.7-0.3,0.9c0.6,2.6,1.8,4.8,4.2,6.2
		c1.8,1.1,2.7,1,4.2-0.6c2-2.1,2.7-4.7,2.3-7.5c-0.7-4.2-2.6-7.7-6.3-10C139.8,95.9,139.7,95.8,139.6,95.8z"/>
	<path d="M120.8,114.3c1.9,3.3,4.6,5.3,8,6.4c2.8,0.9,5.6,1,8.2-0.5c0.9-0.5,1.6-1.3,2.3-2c0.7-0.7,0.7-1.5,0.4-2.4
		c-0.9-2.5-2.9-3.9-5.3-4.8c-1.1-0.4-2-0.4-3.1,0.4c-2.4,1.8-5.3,2.6-8.3,2.8C122.4,114.2,121.6,114.3,120.8,114.3z"/>
	<path d="M111.2,104.7c1.3,2.4,3.2,4.3,5.7,5.4c2.8,1.3,5.8,2.1,8.9,1.1c1.6-0.5,2.9-1.4,3.9-2.7c0.6-0.7,0.7-1.5,0.4-2.4
		c-0.7-2-2.2-3.3-4-4.3c-0.4-0.2-0.9-0.4-1.3-0.6c-1.1-0.5-2-0.4-3.1,0.4c-2.5,1.9-5.5,2.6-8.6,2.8c-0.5,0-1.1,0.1-1.6,0.1
		C111.4,104.6,111.3,104.7,111.2,104.7z"/>
	<path d="M97.3,57.2c-0.4,2-0.7,4,0.1,6c1,2.2,1.3,4.5,0.4,6.8c-0.1,0.2-0.1,0.4,0,0.5c0.7,1.8,1.7,3.4,3.6,4.2
		c1,0.4,1.9,0.3,2.8-0.5c3.3-3.1,3.9-8.6,1.1-12.2c-1.8-2.4-4.2-3.9-7-4.8c-0.2-0.1-0.3-0.1-0.5-0.1C97.6,57.2,97.5,57.2,97.3,57.2z
		"/>
	<path d="M82.3,72.3c0.6,4.7,4.9,9.2,9.5,9.6c3,0.3,5.6-0.8,7.7-3c0.6-0.6,0.7-1.3,0.5-2.1c-0.4-1.8-2.6-3.9-4.4-4.1
		c-0.2,0-0.3,0-0.5,0.1c-2.2,0.9-4.3,0.7-6.4-0.3c-2-0.9-4-0.7-6.1-0.3C82.5,72.2,82.4,72.2,82.3,72.3z"/>
</g>
</svg>
