<?xml version="1.0" encoding="utf-8"?>
<!-- Generator: Adobe Illustrator 18.0.0, SVG Export Plug-In . SVG Version: 6.00 Build 0)  -->
<!DOCTYPE svg PUBLIC "-//W3C//DTD SVG 1.1//EN" "http://www.w3.org/Graphics/SVG/1.1/DTD/svg11.dtd">
<svg version="1.1" id="Слой_1" xmlns="http://www.w3.org/2000/svg" xmlns:xlink="http://www.w3.org/1999/xlink" x="0px" y="0px"
	 width="250px" height="200px" viewBox="0 0 250 200" enable-background="new 0 0 250 200" xml:space="preserve">
<g>
	<path d="M133.9,138.4c-1.4,3.9-3,7.6-5.5,10.7c-0.7,0.9-1.5,1.7-2.4,2.4c-0.8,0.6-1.7,0.6-2.4-0.2c-1.1-1.3-2.3-2.7-3.1-4.2
		c-1.3-2.6-2.2-5.3-3.3-7.9c-0.2-0.4-0.3-0.8-0.5-1.4c-0.3,0.3-0.5,0.5-0.7,0.7c-2.3,2.5-4.5,5-6.8,7.5c-0.8,0.9-1.7,1.9-3,1.4
		c-1.3-0.5-1.2-1.9-1.2-3.1c0.1-3.4,0.3-6.8,0.5-10.2c0-0.4,0-0.8,0-1.4c-0.7,0.3-1.3,0.6-2,0.9c-3.7,1.7-7.4,3-11.5,3.2
		c-3.4,0.1-4.5-1-3.7-4.3c0.8-3.2,2.1-6.3,3.1-9.4c0.2-0.5,0.5-1,0.8-1.7c-2.4,0.1-4.5,0.3-6.7,0.4c-1.4,0.1-2.8,0.2-4.1,0
		c-0.7-0.1-1.6-0.5-1.8-1.1c-0.2-0.5,0.1-1.5,0.5-2c0.9-1.1,2-2,3-3c2.2-2.1,4.5-4.1,6.9-6.2c-0.5-0.2-0.8-0.3-1.1-0.4
		c-5.4-1.4-10.5-3.4-14.9-6.9c-2.8-2.2-2.8-3.5,0.2-5.6c3.4-2.4,7.3-3.7,11.2-5c0.4-0.1,0.8-0.2,1.3-0.4c-1.8-1.6-3.5-3.1-5.1-4.7
		c-0.7-0.6-1.3-1.3-1.8-2.1c-0.7-1.1-0.3-2.1,1-2.3c1.2-0.2,2.5-0.2,3.7-0.2c2.8,0.1,5.5,0.3,8.3,0.4c0.4,0,0.7,0,1.3,0
		c-0.4-0.7-0.7-1.2-1-1.8c-2.4-4.4-4.2-8.9-4.6-14c-0.1-0.8,0-1.6,0.1-2.4c0.2-1,0.8-1.5,1.8-1.6c2.8-0.2,5.4,0.6,7.9,1.6
		c2.4,0.9,4.7,2,6.9,3c0-1.5,0-3.1,0-4.7c0-1.1-0.1-2.3-0.1-3.4c0-1.1,0-2.3,1.1-2.7c1.1-0.5,2,0.4,2.7,1.2c2.1,2.2,4.1,4.4,6.1,6.7
		c0.2,0.3,0.5,0.5,0.9,0.9c0.2-0.4,0.3-0.8,0.4-1.2c1.4-5.1,3.4-9.9,6.8-14c0.1-0.1,0.1-0.1,0.2-0.2c2.1-2.5,3.5-2.4,5.4,0.2
		c2.8,3.9,4.4,8.3,5.7,12.8c0.1,0.5,0.3,1,0.5,1.7c1.3-1.5,2.6-2.8,3.8-4.2c1-1.1,1.9-2.2,3-3.2c0.6-0.5,1.7-1,2.2-0.7
		c0.6,0.3,1.1,1.4,1.1,2.2c0,2.8-0.2,5.5-0.3,8.3c0,0.3,0,0.7,0,1c2.3-1,4.4-2.1,6.8-2.8c2.5-0.8,5.2-1.1,7.8-1.6
		c0.5-0.1,1,0.1,1.6,0.2c1.2,0.2,1.7,0.9,1.8,2.1c0.1,3-0.8,5.9-2,8.6c-1,2.3-2.2,4.6-3.4,6.9c-0.2,0.3-0.3,0.6-0.6,1.1
		c3-0.2,5.8-0.3,8.6-0.4c1.3,0,2.7-0.1,4,0.1c1.4,0.2,1.8,1.3,1,2.5c-0.5,0.7-1.1,1.3-1.7,1.9c-1.7,1.6-3.4,3.1-5.2,4.7
		c0.7,0.2,1.2,0.4,1.8,0.6c4,1.4,7.8,3.1,11.1,5.9c2.5,2.1,2.4,3.4-0.3,5.3c-4.6,3.1-9.7,4.8-15,6.1c-0.3,0.1-0.5,0.2-1,0.3
		c0.5,0.4,0.8,0.8,1.1,1.1c2.5,2.3,5,4.5,7.5,6.8c0.6,0.6,1.3,1.3,1.7,2c0.6,1,0.3,1.9-0.9,2.3c-0.5,0.2-1,0.2-1.5,0.2
		c-2.8-0.1-5.5-0.2-8.3-0.3c-0.3,0-0.6,0-1,0c0.8,2.2,1.7,4.4,2.3,6.6c0.5,2.1,0.8,4.2,0.9,6.4c0.1,2.2-0.8,3-3,2.8
		c-2.4-0.3-4.8-0.9-7-1.7c-2.5-0.9-4.8-2.1-7.2-3.2c0,1.3,0,2.7,0,4c0.1,2.4,0.3,4.9,0.4,7.3c0,0.3,0,0.7,0,1c0,1.1,0,2.3-1.1,2.7
		c-1.2,0.5-2-0.4-2.7-1.1c-1.8-1.9-3.5-3.8-5.3-5.8C135.2,139.9,134.6,139.2,133.9,138.4z M153.5,100c0-15.7-12.7-28.5-28.4-28.6
		c-15.8-0.1-28.6,12.7-28.7,28.5c0,15.7,12.7,28.5,28.4,28.6C140.7,128.6,153.5,115.8,153.5,100z"/>
	<path d="M133.5,75c1.4,0.6,2.6,1.1,3.7,1.7c0.3,0.2,0.5,0.7,0.5,1.1c0,2,0,4.1,0,6.3c1.1,0,2.2,0,3.3,0c0.7,0,1.5,0,2.2,0
		c1,0,2.3-0.3,2.8,0.2c1.1,1,1.7,2.4,2.6,3.8c-3.8,0-7.3,0-10.8,0c0,3.4,0,6.6,0,10c4.4,0,8.9,0,13.4,0c0,1.4,0,2.7,0,4
		c-4.5,0-8.9,0-13.4,0c0,3.4,0,6.6,0,10c3.4,0,6.8,0,10.6,0c-1,1.5-1.8,2.7-2.7,3.9c-0.2,0.2-0.7,0.2-1,0.2c-2.3,0-4.5,0-7,0
		c0,1.9,0,3.7,0,5.5c0,0.9-0.2,1.3-1,1.6c-1,0.4-1.9,0.8-3.1,1.3c0-2.9,0-5.7,0-8.5c-5.8,0-11.4,0-17.2,0c0,2.7,0,5.4,0,8.4
		c-1.4-0.7-2.6-1.2-3.8-1.8c-0.2-0.1-0.2-0.6-0.3-1c0-1.9,0-3.7,0-5.7c-2.3,0-4.5-0.1-6.6,0c-0.9,0-1.5-0.3-1.9-1.1
		c-0.5-0.9-1.2-1.8-1.9-2.9c3.6,0,7,0,10.5,0c0-3.4,0-6.6,0-10c-4.4,0-8.9,0-13.4,0c0-1.4,0-2.7,0-4c4.5,0,8.9,0,13.4,0
		c0-3.4,0-6.6,0-10c-3.5,0-6.9,0-10.8,0c1-1.5,1.7-2.7,2.6-3.9c0.1-0.2,0.7-0.2,1-0.2c2.4,0,4.8,0,7.3,0c0-1.7,0.2-3.3,0-4.9
		c-0.2-1.8,0.4-2.8,2.1-3.3c0.6-0.1,1.1-0.5,1.8-0.8c0,3,0,5.9,0,8.8c5.8,0,11.5,0,17.2,0C133.5,81.2,133.5,78.3,133.5,75z
		 M133.5,102.3c-5.6,0-11.1,0-16.5,0c-0.2,0-0.6,0.6-0.6,1c-0.1,2.6,0,5.3,0,7.9c0,0.9,0.3,1.2,1.2,1.2c5,0,10.1,0,15.1,0
		c0.3,0,0.6-0.1,1-0.1C133.5,108.9,133.5,105.7,133.5,102.3z M116.4,88.3c0,3.3,0,6.6,0,9.9c5.8,0,11.4,0,17,0c0-3.4,0-6.6,0-9.9
		C127.7,88.3,122.1,88.3,116.4,88.3z"/>
</g>
</svg>
