<?xml version="1.0" encoding="utf-8"?>
<!-- Generator: Adobe Illustrator 18.0.0, SVG Export Plug-In . SVG Version: 6.00 Build 0)  -->
<!DOCTYPE svg PUBLIC "-//W3C//DTD SVG 1.1//EN" "http://www.w3.org/Graphics/SVG/1.1/DTD/svg11.dtd">
<svg version="1.1" id="Слой_1" xmlns="http://www.w3.org/2000/svg" xmlns:xlink="http://www.w3.org/1999/xlink" x="0px" y="0px"
	 width="250px" height="200px" viewBox="0 0 250 200" enable-background="new 0 0 250 200" xml:space="preserve">
<g>
	<g>
		<g>
			<path d="M120.6,146.2c0-29.8,0-59.4,0-89.1c-3.4,0.6-6.3,2.1-8.8,4.3c-1.9,1.7-3.7,3.5-5.6,5.3c-3.7,3.7-7.7,7.1-12.8,9.1
				c1.2,2.3,2.3,4.6,3.4,6.9c4.5,9,9,18.1,13.6,27.1c0.4,0.8,0.8,1.5,1.8,1.8c1.7,0.6,2.2,2.7,1,4.1c-2.3,3-4.7,6-7.3,8.6
				c-1,1-3,1.2-4.6,1.4c-7.4,0.8-14.9,0.8-22.4,0.1c-0.9-0.1-1.8-0.2-2.7-0.4c-1.2-0.2-2.2-0.7-3-1.7c-2-2.5-4.1-5-6.2-7.5
				c-1.6-2-1.1-3.9,1.2-4.9c0.3-0.1,0.7-0.4,0.8-0.7C74.6,99.8,79.9,89,85.3,78.2c0.1-0.1,0.1-0.3,0.1-0.6c-0.8,0-1.5,0-2.3,0
				c-2.5,0-4.3-1.6-4.4-3.9c-0.1-2.5,1.6-4.3,4.1-4.5c1.6-0.1,3.2-0.2,4.7-0.5c4.1-0.7,7.3-3,10.2-5.7c3.1-2.9,6-6,9.3-8.6
				c2.1-1.7,4.7-2.9,7.1-4.2c3.1-1.6,6.4-3,9.6-4.6c0.7-0.4,1.3-0.4,2,0c3.7,1.8,7.4,3.5,11.1,5.2c4.1,1.9,7.4,4.8,10.6,7.8
				c2.7,2.5,5.3,5.1,8.2,7.4c2.9,2.3,6.3,3.1,10,3.2c0.8,0,1.6,0,2.3,0.2c2,0.5,3.3,2.5,3,4.6c-0.2,2-1.9,3.6-4,3.6
				c-0.9,0-1.7,0-2.8,0c0.4,0.9,0.7,1.6,1.1,2.3c5,10,10,20,15,30c0.3,0.6,0.9,1.2,1.6,1.5c1.6,0.9,2.3,2.8,1.1,4.3
				c-2.3,3-4.7,6-7.3,8.6c-1,1-2.9,1.2-4.4,1.4c-7.6,0.9-15.3,0.8-22.9,0.1c-2.6-0.3-4.8-0.9-6.4-3.3c-1.5-2.3-3.5-4.2-5.2-6.3
				c-1.5-1.9-1-3.9,1.2-4.8c0.3-0.1,0.7-0.4,0.9-0.7c5.8-11.5,11.5-22.9,17.2-34.4c0-0.1,0-0.2,0.1-0.4c-6.4-2.4-10.9-7.3-15.5-11.9
				c-3-3-6.4-5.6-10.7-6.6c-0.2,0-0.4-0.1-0.5-0.1c-0.1,0-0.2,0-0.3,0.1c0,29.6,0,59.2,0,89c0.5,0,1,0,1.4,0c7.1,0,14.1,0,21.2,0
				c0.8,0,1.6,0,2.3,0.2c2,0.5,3.3,2.5,3,4.5c-0.3,2.2-2,3.8-4.3,3.8c-4.8,0-9.7,0-14.5,0c-13.6,0-27.2,0-40.7,0
				c-1,0-2.2-0.3-3.1-0.8c-1.6-0.9-2.1-2.9-1.6-4.5c0.6-1.9,2-3,4-3c7.4,0,14.9,0,22.3,0C119.7,146.2,120.1,146.2,120.6,146.2z
				 M108,111.5c-0.1-0.3-0.1-0.4-0.2-0.5c-5.6-11.1-11.1-22.3-16.7-33.4c-0.4-0.8-0.9-0.9-1.5-0.5c-0.5,0.3-0.9,0.7-1.1,1.2
				C83.3,88.6,78.1,99,72.9,109.4c-0.3,0.6-0.6,1.3-1,2C84,112.5,96,112.5,108,111.5z M178,111.5c-0.1-0.2-0.1-0.4-0.2-0.6
				c-5.5-11-11-22-16.5-33c-0.2-0.5-1-0.9-1.6-1c-0.3-0.1-0.8,0.6-1,1c-5.4,10.8-10.8,21.5-16.2,32.3c-0.2,0.4-0.4,0.8-0.6,1.2
				C154,112.5,166,112.5,178,111.5z"/>
		</g>
		<g>
			<path fill="#FFFFFF" d="M82.5,103.2c0.1-0.1,0.2-0.2,0.3-0.3c0.5-0.5,1-1,1.6-1.6c0.1-0.1,0.3-0.2,0.5-0.2c1,0,2,0,3,0
				c0.3,0,0.3,0.1,0.2,0.3c-0.5,0.8-1,1.7-1.5,2.5c-0.1,0.1-0.3,0.3-0.4,0.3c-0.7,0.2-1.5,0.4-2.2,0.6c-0.2,0.1-0.3,0.1-0.2,0.4
				c0.2,0.5,0.3,1,0.4,1.6c0.1,0.2,0.1,0.3,0.4,0.2c0.5-0.2,1.1-0.3,1.6-0.4c0.2-0.1,0.4,0,0.4,0.2c0.1,0.5,0.3,1,0.4,1.6
				c0.1,0.2,0.2,0.3,0.4,0.2c0.5-0.1,1-0.3,1.5-0.4c0.2-0.1,0.3-0.1,0.2-0.4c-0.2-0.7-0.4-1.5-0.6-2.2c0-0.2,0-0.4,0.1-0.6
				c0.5-0.9,1-1.7,1.5-2.5c0.2-0.3,0.2-0.3,0.4,0c0.5,0.8,1,1.6,1.4,2.4c0.1,0.1,0.1,0.3,0.1,0.5c-0.2,0.7-0.4,1.5-0.6,2.2
				c-0.1,0.2,0,0.3,0.2,0.4c0.5,0.1,1,0.3,1.5,0.4c0.2,0.1,0.3,0,0.4-0.2c0.1-0.5,0.3-1,0.4-1.5c0.1-0.3,0.1-0.3,0.5-0.3
				c0.5,0.1,1,0.3,1.5,0.4c0.2,0.1,0.3,0,0.4-0.2c0.1-0.5,0.3-1,0.4-1.5c0.1-0.2,0-0.3-0.2-0.4c-0.7-0.2-1.5-0.4-2.2-0.6
				c-0.2-0.1-0.4-0.2-0.5-0.4c-0.4-0.8-0.9-1.6-1.4-2.4c-0.2-0.3-0.1-0.4,0.2-0.4c1,0,1.9,0,2.9,0c0.2,0,0.4,0.1,0.5,0.2
				c0.5,0.5,1,1,1.6,1.6c0.1,0.1,0.2,0.2,0.3,0.3c0.4-0.5,0.9-0.9,1.3-1.4c0.2-0.2,0.2-0.3,0-0.4c-0.4-0.4-0.8-0.8-1.2-1.2
				c-0.2-0.2-0.2-0.3,0-0.5c0.4-0.4,0.8-0.8,1.2-1.2c0.1-0.1,0.1-0.3,0-0.4c-0.4-0.4-0.8-0.8-1.1-1.1c-0.2-0.2-0.3-0.2-0.4,0
				c-0.5,0.5-1.1,1.1-1.6,1.6c-0.1,0.2-0.3,0.2-0.5,0.2c-1,0-2,0-2.9,0c-0.3,0-0.4,0-0.2-0.3c0.5-0.9,1-1.7,1.5-2.6
				c0.1-0.2,0.3-0.3,0.5-0.4c0.7-0.2,1.5-0.4,2.2-0.6c0.2-0.1,0.3-0.2,0.2-0.3c-0.1-0.5-0.3-1-0.4-1.6C96,93,95.9,92.9,95.7,93
				c-0.5,0.1-1,0.3-1.6,0.4c-0.2,0.1-0.3,0-0.4-0.2c-0.1-0.5-0.3-1.1-0.4-1.6c-0.1-0.2-0.2-0.3-0.4-0.2c-0.5,0.1-1,0.3-1.5,0.4
				c-0.3,0.1-0.3,0.2-0.3,0.4c0.2,0.7,0.4,1.5,0.6,2.2c0,0.2,0,0.4-0.1,0.5c-0.5,0.9-1,1.7-1.5,2.5c-0.2,0.3-0.2,0.3-0.4,0
				c-0.5-0.9-1-1.8-1.6-2.7c-0.1-0.1-0.1-0.3-0.1-0.5c0.2-0.7,0.4-1.5,0.6-2.2c0.1-0.2,0-0.4-0.2-0.4c-0.5-0.1-1-0.3-1.5-0.4
				c-0.2-0.1-0.3,0-0.4,0.2c-0.1,0.5-0.3,1-0.4,1.5c-0.1,0.3-0.1,0.4-0.5,0.3c-0.5-0.1-1-0.3-1.6-0.4c-0.2-0.1-0.3,0-0.3,0.2
				c-0.1,0.5-0.3,1-0.4,1.5c-0.1,0.3,0,0.4,0.3,0.4c0.7,0.2,1.5,0.4,2.2,0.6c0.1,0,0.3,0.2,0.4,0.3c0.5,0.9,1.1,1.8,1.6,2.7
				c0.2,0.3,0.1,0.4-0.2,0.4c-1,0-2,0-3,0c-0.2,0-0.4-0.1-0.5-0.2c-0.5-0.6-1.1-1.1-1.6-1.6c-0.1-0.1-0.3-0.2-0.4,0
				c-0.4,0.4-0.8,0.8-1.1,1.1c-0.2,0.2-0.1,0.3,0,0.4c0.4,0.4,0.7,0.8,1.1,1.1c0.3,0.3,0.3,0.3,0,0.5c-0.4,0.4-0.8,0.8-1.1,1.1
				c-0.1,0.1-0.1,0.2-0.1,0.3C81.5,102.2,82,102.7,82.5,103.2z"/>
			<path d="M82.5,103.2c-0.5-0.5-1-0.9-1.4-1.4c0,0,0-0.2,0.1-0.3c0.4-0.4,0.8-0.8,1.1-1.1c0.3-0.3,0.3-0.3,0-0.5
				c-0.4-0.4-0.7-0.8-1.1-1.1c-0.2-0.1-0.2-0.3,0-0.4c0.4-0.4,0.8-0.8,1.1-1.1c0.1-0.1,0.3-0.1,0.4,0c0.5,0.5,1.1,1.1,1.6,1.6
				c0.1,0.2,0.3,0.2,0.5,0.2c1,0,2,0,3,0c0.3,0,0.4-0.1,0.2-0.4c-0.5-0.9-1-1.8-1.6-2.7c-0.1-0.1-0.2-0.2-0.4-0.3
				c-0.7-0.2-1.5-0.4-2.2-0.6c-0.3-0.1-0.3-0.2-0.3-0.4c0.1-0.5,0.3-1,0.4-1.5c0-0.2,0.1-0.3,0.3-0.2c0.5,0.1,1,0.3,1.6,0.4
				c0.3,0.1,0.4,0.1,0.5-0.3c0.1-0.5,0.3-1,0.4-1.5c0.1-0.2,0.1-0.3,0.4-0.2c0.5,0.2,1,0.3,1.5,0.4c0.3,0.1,0.3,0.2,0.2,0.4
				c-0.2,0.7-0.4,1.5-0.6,2.2c0,0.2,0,0.4,0.1,0.5c0.5,0.9,1,1.8,1.6,2.7c0.2,0.3,0.2,0.3,0.4,0c0.5-0.8,1-1.7,1.5-2.5
				c0.1-0.1,0.1-0.3,0.1-0.5c-0.2-0.7-0.4-1.5-0.6-2.2c-0.1-0.3,0-0.4,0.3-0.4c0.5-0.1,1-0.3,1.5-0.4c0.2-0.1,0.3,0,0.4,0.2
				c0.1,0.5,0.3,1.1,0.4,1.6c0.1,0.2,0.2,0.3,0.4,0.2c0.5-0.2,1-0.3,1.6-0.4c0.2-0.1,0.3,0,0.4,0.2c0.1,0.5,0.3,1,0.4,1.6
				c0.1,0.2,0,0.3-0.2,0.3c-0.7,0.2-1.5,0.4-2.2,0.6c-0.2,0.1-0.4,0.2-0.5,0.4c-0.5,0.9-1,1.7-1.5,2.6c-0.2,0.3-0.1,0.3,0.2,0.3
				c1,0,2,0,2.9,0c0.2,0,0.4-0.1,0.5-0.2c0.5-0.5,1.1-1.1,1.6-1.6c0.2-0.2,0.3-0.2,0.4,0c0.4,0.4,0.8,0.8,1.1,1.1
				c0.2,0.1,0.1,0.3,0,0.4c-0.4,0.4-0.8,0.8-1.2,1.2c-0.2,0.2-0.2,0.3,0,0.5c0.4,0.4,0.8,0.8,1.2,1.2c0.2,0.2,0.2,0.3,0,0.4
				c-0.4,0.4-0.9,0.9-1.3,1.4c-0.1-0.1-0.2-0.2-0.3-0.3c-0.5-0.5-1-1-1.6-1.6c-0.2-0.2-0.3-0.2-0.5-0.2c-1,0-1.9,0-2.9,0
				c-0.4,0-0.4,0.1-0.2,0.4c0.5,0.8,0.9,1.6,1.4,2.4c0.1,0.2,0.3,0.3,0.5,0.4c0.7,0.2,1.5,0.4,2.2,0.6c0.2,0.1,0.3,0.1,0.2,0.4
				c-0.1,0.5-0.3,1-0.4,1.5c-0.1,0.3-0.2,0.3-0.4,0.2c-0.5-0.1-1-0.3-1.5-0.4c-0.3-0.1-0.4-0.1-0.5,0.3c-0.1,0.5-0.3,1-0.4,1.5
				c-0.1,0.2-0.2,0.3-0.4,0.2c-0.5-0.1-1-0.3-1.5-0.4c-0.2-0.1-0.3-0.2-0.2-0.4c0.2-0.7,0.4-1.5,0.6-2.2c0-0.2,0-0.4-0.1-0.5
				c-0.5-0.8-0.9-1.6-1.4-2.4c-0.2-0.3-0.2-0.3-0.4,0c-0.5,0.8-1,1.7-1.5,2.5c-0.1,0.2-0.1,0.4-0.1,0.6c0.2,0.8,0.4,1.5,0.6,2.2
				c0.1,0.2,0,0.3-0.2,0.4c-0.5,0.1-1,0.3-1.5,0.4c-0.2,0.1-0.3,0-0.4-0.2c-0.1-0.5-0.3-1-0.4-1.6c-0.1-0.2-0.2-0.3-0.4-0.2
				c-0.5,0.2-1.1,0.3-1.6,0.4c-0.2,0.1-0.3,0-0.4-0.2c-0.1-0.5-0.3-1-0.4-1.6c-0.1-0.2,0-0.3,0.2-0.4c0.7-0.2,1.5-0.4,2.2-0.6
				c0.2,0,0.3-0.2,0.4-0.3c0.5-0.8,1-1.7,1.5-2.5c0.1-0.3,0.1-0.3-0.2-0.3c-1,0-2,0-3,0c-0.2,0-0.4,0.1-0.5,0.2
				c-0.5,0.5-1,1-1.6,1.6C82.7,103,82.6,103.1,82.5,103.2z"/>
		</g>
	</g>
	<g>
		<path fill="#FFFFFF" d="M160.1,92.2c0,0.5,0,0.9,0,1.4c0,0.1,0,0.3,0.1,0.4c0.1,0.2,0.3,0.3,0.6,0.2c0.2,0,0.4-0.3,0.4-0.6
			c0-1,0-2,0-3c0-0.3-0.2-0.6-0.5-0.6c-0.3,0-0.5,0.2-0.5,0.6C160.1,91.3,160.1,91.7,160.1,92.2z M152.4,101.5c0.4,0,0.9,0,1.3,0
			c0.1,0,0.3,0,0.4-0.1c0.2-0.1,0.2-0.4,0.2-0.6c0-0.2-0.3-0.4-0.5-0.4c-0.9,0-1.8,0-2.8,0c-0.3,0-0.5,0.2-0.5,0.5
			c0,0.4,0.2,0.6,0.6,0.6C151.6,101.5,152,101.5,152.4,101.5z M168.7,101.5c0.4,0,0.9,0,1.3,0c0.1,0,0.3,0,0.4-0.1
			c0.2-0.1,0.2-0.4,0.2-0.6c-0.1-0.3-0.3-0.4-0.5-0.4c-0.9,0-1.8,0-2.8,0c-0.3,0-0.5,0.2-0.5,0.5c0,0.3,0.2,0.6,0.6,0.6
			C167.8,101.5,168.2,101.5,168.7,101.5z M160.1,109.6c0,0.5,0,1,0,1.4c0,0.1,0,0.3,0.1,0.4c0.1,0.2,0.4,0.3,0.6,0.2
			c0.2-0.1,0.3-0.3,0.3-0.6c0-1,0-2,0-3c0-0.3-0.2-0.6-0.5-0.6c-0.3,0-0.5,0.2-0.6,0.6C160.1,108.7,160.1,109.2,160.1,109.6z
			 M153.9,93.1c-0.2,0-0.4,0.1-0.5,0.3c-0.1,0.2,0,0.5,0.1,0.7c0.6,0.7,1.3,1.4,1.9,2.1c0.2,0.2,0.5,0.2,0.6,0.1
			c0.4-0.2,0.3-0.7,0.1-0.9c-0.6-0.7-1.3-1.4-1.9-2.1C154.1,93.2,154,93.2,153.9,93.1z M167.8,93.7c0-0.3-0.1-0.4-0.3-0.5
			c-0.2-0.1-0.4,0-0.6,0.1c-0.7,0.7-1.3,1.4-2,2.1c-0.2,0.2-0.2,0.5-0.1,0.7c0.2,0.4,0.6,0.4,0.9,0.1c0.6-0.7,1.3-1.3,1.9-2
			C167.7,94,167.8,93.9,167.8,93.7z M153.8,108.8c0.1-0.1,0.3-0.1,0.4-0.2c0.6-0.7,1.3-1.4,1.9-2c0.2-0.2,0.2-0.6,0-0.8
			c-0.2-0.2-0.5-0.2-0.8,0c-0.1,0.1-0.3,0.3-0.4,0.4c-0.5,0.5-1,1.1-1.5,1.6c-0.2,0.2-0.2,0.4-0.1,0.7
			C153.4,108.6,153.6,108.7,153.8,108.8z M167.8,108.2c-0.1-0.1-0.1-0.3-0.2-0.4c-0.6-0.7-1.3-1.4-1.9-2.1c-0.2-0.2-0.6-0.3-0.8,0
			c-0.2,0.2-0.2,0.6,0,0.8c0.2,0.2,0.3,0.4,0.5,0.5c0.5,0.5,0.9,1,1.4,1.5c0.2,0.2,0.4,0.3,0.6,0.2
			C167.7,108.6,167.8,108.4,167.8,108.2z"/>
		<path d="M160.6,106.1c-2.7,0-4.8-2.3-4.8-5.2c0-2.8,2.1-5.1,4.9-5.1c2.6,0,4.8,2.2,4.7,5.3C165.3,103.8,163.3,106.1,160.6,106.1z
			 M160.6,105c2.1,0,3.7-1.8,3.8-3.8c0.1-2.6-1.8-4.2-3.5-4.3c-2.4-0.1-3.9,1.9-4,3.8C156.7,103.2,158.6,105.1,160.6,105z"/>
		<path d="M160.1,92.2c0-0.5,0-1,0-1.4c0-0.4,0.2-0.6,0.5-0.6c0.3,0,0.5,0.2,0.5,0.6c0,1,0,2,0,3c0,0.3-0.2,0.5-0.4,0.6
			c-0.2,0-0.4,0-0.6-0.2c-0.1-0.1-0.1-0.3-0.1-0.4C160,93.2,160.1,92.7,160.1,92.2z"/>
		<path d="M152.4,101.5c-0.4,0-0.9,0-1.3,0c-0.4,0-0.6-0.2-0.6-0.6c0-0.3,0.2-0.5,0.5-0.5c0.9,0,1.8,0,2.8,0c0.2,0,0.5,0.2,0.5,0.4
			c0,0.2,0,0.5-0.2,0.6c-0.1,0.1-0.3,0.1-0.4,0.1C153.3,101.5,152.9,101.5,152.4,101.5z"/>
		<path d="M168.7,101.5c-0.4,0-0.9,0-1.3,0c-0.4,0-0.6-0.2-0.6-0.6c0-0.3,0.2-0.5,0.5-0.5c0.9,0,1.8,0,2.8,0c0.2,0,0.4,0.1,0.5,0.4
			c0.1,0.2,0,0.5-0.2,0.6c-0.1,0.1-0.3,0.1-0.4,0.1C169.6,101.5,169.1,101.5,168.7,101.5z"/>
		<path d="M160.1,109.6c0-0.5,0-0.9,0-1.4c0-0.4,0.2-0.6,0.6-0.6c0.3,0,0.5,0.2,0.5,0.6c0,1,0,2,0,3c0,0.3-0.1,0.5-0.3,0.6
			c-0.2,0.1-0.4,0-0.6-0.2c-0.1-0.1-0.1-0.3-0.1-0.4C160,110.6,160.1,110.1,160.1,109.6z"/>
		<path d="M153.9,93.1c0.1,0.1,0.3,0.1,0.4,0.2c0.6,0.7,1.3,1.4,1.9,2.1c0.2,0.3,0.3,0.7-0.1,0.9c-0.2,0.1-0.4,0-0.6-0.1
			c-0.7-0.7-1.3-1.4-1.9-2.1c-0.2-0.2-0.2-0.4-0.1-0.7C153.5,93.2,153.6,93.1,153.9,93.1z"/>
		<path d="M167.8,93.7c-0.1,0.1-0.1,0.3-0.2,0.4c-0.6,0.7-1.2,1.4-1.9,2c-0.3,0.3-0.7,0.3-0.9-0.1c-0.1-0.2-0.1-0.5,0.1-0.7
			c0.6-0.7,1.3-1.4,2-2.1c0.2-0.2,0.4-0.2,0.6-0.1C167.7,93.3,167.8,93.5,167.8,93.7z"/>
		<path d="M153.8,108.8c-0.2,0-0.4-0.1-0.5-0.3c-0.1-0.3,0-0.5,0.1-0.7c0.5-0.6,1-1.1,1.5-1.6c0.1-0.1,0.2-0.3,0.4-0.4
			c0.2-0.2,0.6-0.3,0.8,0c0.2,0.2,0.2,0.6,0,0.8c-0.6,0.7-1.3,1.4-1.9,2C154.1,108.6,154,108.7,153.8,108.8z"/>
		<path d="M167.8,108.2c0,0.3-0.1,0.4-0.3,0.5c-0.2,0.1-0.5,0-0.6-0.2c-0.5-0.5-0.9-1-1.4-1.5c-0.2-0.2-0.3-0.4-0.5-0.5
			c-0.2-0.2-0.2-0.6,0-0.8c0.2-0.2,0.5-0.2,0.8,0c0.6,0.7,1.3,1.4,1.9,2.1C167.7,107.9,167.8,108,167.8,108.2z"/>
	</g>
</g>
</svg>
