<?xml version="1.0" encoding="utf-8"?>
<!-- Generator: Adobe Illustrator 18.0.0, SVG Export Plug-In . SVG Version: 6.00 Build 0)  -->
<!DOCTYPE svg PUBLIC "-//W3C//DTD SVG 1.1//EN" "http://www.w3.org/Graphics/SVG/1.1/DTD/svg11.dtd">
<svg version="1.1" id="Режим_изоляции"
	 xmlns="http://www.w3.org/2000/svg" xmlns:xlink="http://www.w3.org/1999/xlink" x="0px" y="0px" width="250px" height="200px"
	 viewBox="0 0 250 200" enable-background="new 0 0 250 200" xml:space="preserve">
<g>
	<g>
		<path d="M39.2,89.7c-2.1-0.1-2.4-1.3-3.4-1.6c-1,0.9-0.5,2.2-0.5,3.2c0,18.9,0.1,37.7,0.2,56.6c0,1.2-0.8,3.2,1,3.5
			c1.5,0.3,2.3-1.6,3.2-2.6c0.7-0.8,0.5-1.9,0.5-2.8c-0.2-17.9-0.2-35.8-0.7-53.7c-0.1-2.8,0.6-3.5,3.1-4.3
			c3.9-1.3,7.8-2.4,11.7-3.7c4.2-1.4,8-0.5,11.7,0.7c4.9,1.6,8.3,0.6,11.7-3.3C83.5,75.2,90,69.3,96.2,63c1.7-1.7,2.5-1.5,3.6,0.5
			c2.7,4.9,5.6,9.6,8.3,14.5c0.9,1.7,1.8,2.1,3.7,1.3c5.1-2.3,10.3-4.3,15.4-6.6c3.8-1.7,7.8-2.7,11.9-3c4.5-0.4,8.8-1.8,13.2-2.4
			c2-0.2,3.3,0.5,4.5,1.9c9,10.6,18.1,21.1,27,31.7c1.3,1.6,2.3,1.8,4.2,0.8c2.5-1.3,4.6-2.8,6.3-5.1c1.5-2,3.3-3.9,5.4-5.4
			c8-5.4,11.3-14,15.3-22.1c3.2-6.5,3-6.3,9.1-2.5c3.6,2.2,4.7,4.8,4.7,9c-0.2,23,0,45.9,0,68.9c0,1.1,0.6,2.6-0.8,3.1
			c-1.1,0.4-1.9-0.8-2.7-1.4c-6.2-4.9-12.5-9.7-18.5-14.9c-4.6-4-8.1-9-12-13.6c-2.8-3.3-5.4-6.7-8-10.1c-1.1-1.4-2-1.5-3.7-0.8
			c-6.8,3-12.4,7.8-18.3,12.1c-3.5,2.6-7.1,5.2-10.6,7.9c-1.6,1.2-3.2,1.4-5.2,0.9c-12-2.7-20-10.9-27.5-19.8
			c-5.4-6.3-7.1-14.5-10.9-21.6c-2-3.8-1.9-4.1-5.4-1.4c-6.9,5.5-12.9,11.9-18.3,18.9c-3.5,4.6-6.3,9.6-9.6,14.3
			c-4.6,6.5-9.5,12.6-17.1,16.4c-7.9,4.1-15,9.5-20.8,16.4c-1.7,2-3.1,2.1-5.2,0.8c-2.4-1.5-5-2.7-7.6-3.9c-1.2-0.6-1.7-1.4-1.7-2.7
			c-0.1-22.5-0.3-45-0.5-67.4c0-0.6-0.3-1.5,0.6-1.8c0.7-0.3,1.3,0,1.8,0.5C30.7,80.7,34.7,85,39.2,89.7z M76.3,118.2
			c-1.5-0.8-1.4-2.2-1.4-3.6c0-9.2,0-18.5,0-27.7c-3.3-0.2-4.3,0.9-4.2,4c0.3,9.6,0.3,19.3,0.4,29c0,1,0.1,2,0.1,2.4
			C72.9,121,74.6,119.6,76.3,118.2c-0.1-1.2,0.7-2.1,1.4-2.9c2.1-2.6,2.5-5.6,2.4-8.8c-0.2-7.5-0.3-15-0.4-22.6
			c0-0.7,0.4-1.6-0.7-2.1c-1.2,1.3-3,2.1-3,4.4C76,97,76.2,107.6,76.3,118.2z M187.3,106.1c-0.4-0.9,0.9-2.7-0.7-2.4
			c-2.1,0.4-2.6-1-3.5-2c-9-10.4-17.9-20.9-26.9-31.4c-0.5-0.6-1-1.5-1.6-1.6c-1.1-0.2-3-1.6-2.8,1.3c0,0.8-0.3,1.4-1.1,1.5
			c-0.9,0.2-1.6-0.3-1.7-1.2c0-1.4-0.7-1.3-1.7-1c-1.3,0.3-2.7,0.6-4,0.8c-3.3,0.5-6.6,1.2-9.9,1.4c-2.5,0.1-1.2,2.5-2.4,3.3
			c-1.7,1-2.2-1.9-4.4-0.8c-4.9,2.6-10.2,4.5-15.3,6.6c-1.4,0.6-1.7,1.3-1.1,2.6c1.5,3.2,3,6.4,4.4,9.6c0.5,1,1,1.3,2.2,1.2
			c1.5-0.1,2.3,1.3,1,2.3c-1.6,1.2-0.8,2.1-0.5,3.2c0.6,1.9,1.6,3.5,2.7,5.1c3.2,4.7,7.7,8.3,11.3,12.6c1.5,1.8,3.4,3.7,5.3,3.9
			c2.7,0.2,4,1.8,5.9,3c4.7,3,9.9,4.3,14.4-0.9c0.4-0.4,0.9-0.7,1.4-1.1c0.9-0.6,1.6-1.1,0.2-2c-0.8-0.5-0.6-1.4,0.1-2
			c0.7-0.6,1.7-0.5,2,0.3c0.6,1.7,1.4,1.2,2.2,0.4c0.7-0.7,2.5-1,0.7-2.5c-0.7-0.6-0.6-1.4,0.2-2c0.6-0.5,1.5-0.5,1.8,0.2
			c0.9,2.3,2,1,3,0.2c4.3-3.5,9-6.5,14.1-8.8C184.4,105,185.8,104.4,187.3,106.1z M222.6,142.6c0.7-0.7,0.5-1.6,0.5-2.3
			c0-23.4,0-46.9,0-70.3c0-0.6,0.1-1.2-0.1-1.7c-0.6-1.7-2.2-2.9-3.7-2.9c-1.3,0-0.6,1.9-0.6,3c0,22.8,0.2,45.7,0.1,68.5
			C218.8,139.9,220,141.5,222.6,142.6z M217.6,67.7c-0.3-0.1-0.5-0.1-0.8-0.2c-1.2,3.2-3.5,5.9-3.4,9.7c0.1,18.6,0.2,37.1,0.2,55.7
			c0,3.1,1.7,4.4,4.1,5.6C217.6,114.8,217.6,91.2,217.6,67.7z M25.4,77.7c0,1,0,1.6,0,2.1c0.1,20.3,0.2,40.6,0.3,60.9
			c0,1.4,0.1,2.7,0,4.1c0,2.1,1.7,2.8,3.1,2.8c1.4,0,0.7-1.7,0.7-2.6c0-20.2-0.1-40.4,0-60.6C29.6,81.2,28.5,79.2,25.4,77.7z
			 M227.6,108.1c-0.1,0-0.1,0-0.2,0c0-4.7,0-9.4,0-14.1c0-7.2-0.1-14.5,0-21.7c0-2-1.1-3.3-2.6-3.3c-1.6,0-0.7,1.9-0.7,2.8
			c-0.1,23.3,0,46.5,0,69.8c0,0.5-0.1,1,0,1.5c0.2,1.7,1.7,2.8,2.9,2.8c1.3,0.1,0.7-1.7,0.7-2.7
			C227.6,131.5,227.6,119.8,227.6,108.1z M30.7,82.8c0,3.2,0,6,0,8.8c0,18.2,0.1,36.3,0.1,54.5c0,2.1,0.6,3.8,2.6,3.8
			c1.9-0.1,0.9-2.1,0.9-3.2c0-19.1-0.1-38.3,0-57.4C34.3,86.5,33.5,84.6,30.7,82.8z M50.2,113.7c-0.2,0-0.3,0-0.5,0
			c0-8.2,0-16.4,0-24.6c0-0.8,0.6-2.3-1-2.2c-1.2,0.1-2.6,0.5-3,2c-0.2,0.8-0.1,1.7-0.1,2.6c0.2,15.8,0.3,31.6,0.6,47.4
			c0,1-0.8,2.9,0.7,2.8c1.3,0,3-1.1,3.3-2.9c0.1-0.8,0-1.6,0-2.3C50.2,128.9,50.2,121.3,50.2,113.7z M41,146.3
			c0.3,0.1,0.6,0.1,0.9,0.2c1.4-1.3,3.1-2.4,3.1-4.8c-0.2-16.9-0.3-33.7-0.5-50.6c0-0.7,0.4-2.1-1-2c-1.2,0.1-2.7,0.1-2.8,1.9
			c0,0.6,0,1.2,0,1.8c0.1,11.6,0.2,23.2,0.2,34.8C41,133.9,41,140.1,41,146.3z M55.3,111.2c-0.2,0-0.4,0-0.5,0c0-7.7,0-15.4,0-23.1
			c0-0.8,0.4-2.1-0.7-2.3c-0.9-0.2-2,0.2-2.7,0.7c-0.9,0.6-0.4,1.8-0.4,2.8c0.1,15.4,0.3,30.9,0.5,46.3c0,0.9-0.5,2.3,0.5,2.6
			c1,0.4,1.8-0.9,2.7-1.5c1.1-0.7,0.7-1.9,0.7-3C55.3,126.3,55.3,118.7,55.3,111.2z M64.9,108.6c-0.1,0-0.1,0-0.2,0
			c0-6.6-0.1-13.3,0-19.9c0-2-0.3-3.6-2.7-3.5c-2.4,0.1-1.2,2.1-1.2,3.1c0,13.8,0,27.5,0.1,41.3c0,0.9-0.6,2.4,0.7,2.5
			c1.3,0,2.9-0.7,3.2-2.4c0.1-0.7,0-1.4,0-2C64.9,121.3,64.9,115,64.9,108.6z M59.9,109.1c-0.1,0-0.2,0-0.4,0c0-7.4,0-14.9,0-22.3
			c0-0.9,0.3-2.1-1.1-2.3c-1-0.2-2.1,0.1-2.5,1.1c-0.3,0.6-0.3,1.5-0.3,2.3c0.2,14.9,0.3,29.7,0.6,44.6c0,0.8-0.7,2.4,0.8,2.3
			c1.1-0.1,2.5-0.6,2.9-2.1c0.2-0.6,0-1.4,0-2C59.9,123.4,59.9,116.3,59.9,109.1z M211.6,78.1c-1,2.1-2.8,3.7-2.8,5.9
			c0,15.4,0.2,30.9,0.2,46.3c0,0.4-0.1,0.8,0,1.2c0.6,1.3,1.7,2.5,2.9,2.4c1-0.1,0.5-1.7,0.5-2.6c-0.1-16.9-0.1-33.8-0.3-50.7
			C212.3,79.9,212.5,79.1,211.6,78.1z M207.8,85.8c-3.2,1.7-4.1,3.8-4.1,7.1c0.2,10.5,0.3,21.1,0,31.6c-0.1,3.3,1.7,4.4,4,6.3
			C207.8,115.5,207.8,100.8,207.8,85.8z M65.6,107.5c0.1,0,0.3,0,0.4,0c0,6.4,0,12.9,0,19.3c0,0.6-0.6,2.4,1,1.6
			c1.4-0.7,3.1-1.6,3.1-3.8c-0.2-12-0.3-24-0.4-36c0-2-1.4-2.2-2.7-2.3c-1.9-0.2-1.3,1.3-1.3,2.2C65.6,94.8,65.6,101.2,65.6,107.5z
			 M202.6,90.5c-3.2,1.4-4.1,3.5-4,6.5c0.2,6.9,0.3,13.9,0.1,20.8c-0.1,3.3,1.5,5.1,3.9,7.2C202.6,113.3,202.6,102.1,202.6,90.5z
			 M85.1,77.1c-3.3,1.4-4.5,3.3-4.4,6.3c0.3,7.5,0.1,15,0.2,22.6c0,1-0.3,2.1,0.6,3.4c1.8-3,3.9-5.4,3.7-9.3
			C84.8,92.5,85.1,84.8,85.1,77.1z M90.6,95.8c0.4,0.1,0.8,0.2,1.2,0.2c1-1.8,3.5-2.3,3.4-5.3c-0.4-6.9-0.4-13.8-0.6-20.7
			c0-1,0.3-2.1-0.8-3.1c-1.1,1.5-3.2,2.2-3.2,4.1C90.6,79.2,90.6,87.5,90.6,95.8z M95.5,90.7c3.7-1.4,4.8-3.4,4.6-6.6
			c-0.3-5.1-0.1-10.2-0.1-15.2c0-1.1,0.1-2.2-0.4-3.2c-0.5-0.9-0.7-2.5-1.9-2.3c-1.3,0.2-2.2,1.5-2.2,3.1
			C95.5,74.6,95.5,82.6,95.5,90.7z M90,72.3c-3.5,1.3-4.4,3.3-4.3,6.2c0.3,7,0.3,14,0.4,21c0,0.8-0.4,1.7,0.5,2.4
			c3.4-3.1,3.4-3.1,3.3-7.5C90,87,90,79.7,90,72.3z M197.6,94.8c-2.7,2.1-3.9,4-3.7,6.9c0.2,4,0,8,0,12c0,2.6,1.8,3.9,3.7,5.7
			C197.6,111,197.6,103.2,197.6,94.8z M101.3,86c2.7-1.3,4.1-2.8,3.4-5.6c-0.3-1.5-0.1-3.1-0.1-4.7c0-2.6-1.6-4.3-3.3-6.8
			C101.3,75.1,101.3,80.4,101.3,86z M192.9,113.2c0-3.5,0.1-6.5,0-9.5c0-1,0.6-2.4-0.6-2.8c-1.1-0.4-2.1,0.8-3.1,1.3
			c-0.8,0.5-0.6,1.3-0.7,2.1C188,108,189.8,110.6,192.9,113.2z M106,82.5c3-1.6,2.9-2.7,0-4.9C106,79.2,106,80.7,106,82.5z"/>
		<path d="M136.9,102.4c-0.8-0.2-1.4-0.7-1.2-1.6c0.2-0.9,0.8-1.3,1.7-1.2c0.7,0.1,1.2,0.7,1.2,1.4
			C138.4,102,137.8,102.4,136.9,102.4z"/>
		<path d="M158.7,79.6c-0.1,0.8-0.6,1.2-1.4,1.2c-0.9,0-1.5-0.6-1.4-1.5c0.1-0.8,0.6-1.3,1.4-1.3C158.2,78.1,158.7,78.7,158.7,79.6z
			"/>
		<path d="M142.2,96.7c-0.1,0.8-0.6,1.3-1.4,1.2c-0.9,0-1.4-0.6-1.3-1.5c0.1-0.8,0.6-1.3,1.4-1.3C141.7,95.1,142.1,95.7,142.2,96.7z
			"/>
		<path d="M158.4,88.3c0,0.9-0.5,1.5-1.3,1.5c-0.9,0-1.4-0.5-1.5-1.4c0-0.8,0.5-1.3,1.2-1.4C157.6,87,158.2,87.4,158.4,88.3z"/>
		<path d="M147.5,74.6c-0.1,0.9-0.6,1.4-1.5,1.4c-0.7,0-1.3-0.4-1.3-1.2c-0.1-0.9,0.4-1.5,1.3-1.6C146.8,73.2,147.3,73.7,147.5,74.6
			z"/>
		<path d="M155.7,75.2c-0.1,0.9-0.6,1.4-1.5,1.4c-0.8,0-1.2-0.5-1.3-1.3c-0.1-0.9,0.5-1.5,1.3-1.5C155.1,73.8,155.6,74.4,155.7,75.2
			z"/>
		<path d="M141.6,80.1c-0.9,0-1.5-0.5-1.5-1.4c0-0.8,0.5-1.3,1.3-1.3c0.9-0.1,1.5,0.5,1.5,1.4C142.9,79.4,142.4,79.9,141.6,80.1z"/>
		<path d="M113.9,80.8c0.9,0.1,1.4,0.5,1.5,1.3c0.1,0.9-0.5,1.5-1.4,1.5c-0.8,0-1.3-0.5-1.4-1.2C112.5,81.4,113.1,81,113.9,80.8z"/>
		<path d="M147.4,82.8c-0.2,1-0.7,1.5-1.6,1.4c-0.8-0.1-1.2-0.6-1.2-1.4c0-0.8,0.5-1.3,1.3-1.4C146.8,81.5,147.2,82.1,147.4,82.8z"
			/>
		<path d="M154.8,83.4c-0.1,0.9-0.5,1.4-1.4,1.4c-0.8,0-1.3-0.4-1.4-1.2c-0.1-0.9,0.4-1.5,1.3-1.6C154.2,82,154.7,82.5,154.8,83.4z"
			/>
		<path d="M161.4,85.8c-0.9-0.2-1.5-0.7-1.4-1.6c0.1-0.9,0.7-1.4,1.6-1.2c0.7,0.1,1.2,0.6,1.1,1.4C162.8,85.3,162.1,85.7,161.4,85.8
			z"/>
		<path d="M117.2,85.1c0.9,0,1.5,0.5,1.5,1.4c0,0.8-0.5,1.3-1.3,1.4c-0.8,0.1-1.3-0.3-1.5-1.1C115.8,85.9,116.3,85.3,117.2,85.1z"/>
		<path d="M125.1,88.4c-0.9-0.1-1.5-0.5-1.5-1.4c0-0.9,0.6-1.4,1.5-1.4c0.8,0,1.2,0.5,1.3,1.3C126.5,87.7,126,88.2,125.1,88.4z"/>
		<path d="M130.6,91.6c0,0.9-0.5,1.5-1.4,1.5c-0.7,0-1.3-0.4-1.4-1.2c-0.1-0.9,0.4-1.5,1.2-1.6C129.9,90.2,130.4,90.7,130.6,91.6z"
			/>
		<path d="M134.7,87.5c-0.1,0.9-0.5,1.4-1.3,1.5c-0.9,0.1-1.5-0.5-1.5-1.4c0-0.8,0.5-1.3,1.3-1.4C134.1,86.2,134.5,86.8,134.7,87.5z
			"/>
		<path d="M139.9,88.5c0.1-1,0.7-1.5,1.5-1.4c0.7,0.1,1.2,0.5,1.3,1.3c0,0.9-0.5,1.5-1.4,1.5C140.4,89.9,140,89.3,139.9,88.5z"/>
		<path d="M165.3,90.2c-0.8-0.1-1.3-0.6-1.2-1.4c0-0.9,0.6-1.5,1.5-1.4c0.8,0.1,1.3,0.6,1.3,1.4C166.8,89.7,166.2,90.2,165.3,90.2z"
			/>
		<path d="M121.6,93c-0.8,0-1.4-0.4-1.5-1.1c-0.2-0.9,0.3-1.5,1.2-1.6c0.8-0.1,1.3,0.3,1.5,1.1C123,92.2,122.4,92.7,121.6,93z"/>
		<path d="M134,96.9c-0.2,0.8-0.6,1.4-1.6,1.3c-0.9-0.1-1.3-0.7-1.2-1.6c0.1-0.8,0.6-1.2,1.4-1.2C133.5,95.5,134,96,134,96.9z"/>
		<path d="M145,90.8c0.8,0.1,1.3,0.6,1.3,1.4c0,0.9-0.6,1.5-1.5,1.4c-0.9-0.1-1.4-0.7-1.2-1.6C143.7,91.1,144.2,90.8,145,90.8z"/>
		<path d="M170.5,93.2c-0.1,0.9-0.6,1.4-1.5,1.3c-0.9-0.1-1.4-0.7-1.3-1.6c0.1-0.7,0.6-1.2,1.4-1.2C170,91.8,170.5,92.3,170.5,93.2z
			"/>
		<path d="M150.9,96.2c0,0.8-0.4,1.3-1.2,1.5c-0.9,0.2-1.5-0.3-1.6-1.2c-0.1-0.8,0.3-1.3,1.1-1.5C150.1,94.9,150.7,95.4,150.9,96.2z
			"/>
		<path d="M174.5,98.2c-0.2,0.9-0.6,1.4-1.4,1.4c-0.9,0-1.5-0.6-1.4-1.5c0.1-0.8,0.6-1.3,1.3-1.3C174,96.8,174.4,97.5,174.5,98.2z"
			/>
		<path d="M128.7,101.8c-0.9-0.2-1.5-0.6-1.4-1.6c0.1-0.8,0.6-1.2,1.4-1.2c0.9,0,1.4,0.6,1.4,1.5C130,101.4,129.5,101.7,128.7,101.8
			z"/>
		<path d="M161.1,103c-1.1,0-1.7-0.5-1.7-1.4c0-0.8,0.5-1.3,1.3-1.4c0.8-0.1,1.3,0.3,1.5,1.1C162.4,102.2,161.8,102.7,161.1,103z"/>
		<path d="M170.4,102.1c-0.1,0.9-0.6,1.4-1.5,1.4c-0.9,0-1.4-0.6-1.3-1.5c0.1-0.8,0.5-1.2,1.3-1.3
			C169.8,100.7,170.2,101.3,170.4,102.1z"/>
		<path d="M177.2,103.9c-1-0.1-1.5-0.6-1.4-1.5c0-0.8,0.5-1.3,1.3-1.3c0.9,0,1.5,0.5,1.5,1.4C178.5,103.3,177.9,103.7,177.2,103.9z"
			/>
		<path d="M153.7,110.2c-0.2,0.9-0.7,1.3-1.6,1.2c-0.7-0.1-1.2-0.6-1.2-1.4c0-0.9,0.6-1.4,1.5-1.4
			C153.2,108.7,153.7,109.3,153.7,110.2z"/>
		<path d="M124.4,106.4c-0.8-0.2-1.4-0.6-1.4-1.5c0-0.9,0.6-1.4,1.5-1.3c0.7,0.1,1.2,0.5,1.2,1.3
			C125.8,105.8,125.3,106.2,124.4,106.4z"/>
		<path d="M165.9,106.3c-0.1,0.8-0.4,1.3-1.2,1.4c-0.9,0.1-1.6-0.4-1.6-1.3c0-0.9,0.6-1.4,1.5-1.4
			C165.4,105,165.8,105.5,165.9,106.3z"/>
		<path d="M173,105.5c0.9,0.2,1.5,0.6,1.4,1.5c-0.1,0.9-0.7,1.3-1.6,1.2c-0.8-0.1-1.2-0.6-1.2-1.4C171.6,106,172.2,105.6,173,105.5z
			"/>
		<path d="M128.4,107.3c0.9,0.3,1.5,0.7,1.3,1.7c-0.2,0.7-0.7,1.2-1.5,1.1c-0.9-0.1-1.4-0.7-1.2-1.6
			C127.1,107.6,127.7,107.3,128.4,107.3z"/>
		<path d="M136.4,107.9c0.8,0.1,1.4,0.6,1.3,1.5c-0.1,0.7-0.5,1.2-1.3,1.2c-0.9,0-1.5-0.5-1.5-1.4
			C134.9,108.4,135.5,107.9,136.4,107.9z"/>
		<path d="M144.3,108.3c0.9,0,1.5,0.5,1.5,1.4c0,0.9-0.5,1.4-1.4,1.4c-0.7,0-1.2-0.5-1.3-1.2C142.9,108.9,143.4,108.5,144.3,108.3z"
			/>
		<path d="M147.9,124.8c-0.8-0.1-1.3-0.5-1.4-1.3c-0.1-0.9,0.5-1.5,1.4-1.5c0.9,0,1.4,0.6,1.4,1.5
			C149.2,124.4,148.7,124.7,147.9,124.8z"/>
		<path d="M161.6,110.6c-0.2,0.8-0.7,1.3-1.6,1.3c-0.8-0.1-1.2-0.6-1.2-1.3c0-0.9,0.5-1.5,1.4-1.4
			C161,109.1,161.5,109.7,161.6,110.6z"/>
		<path d="M168.3,109.6c0.9,0.2,1.5,0.6,1.4,1.5c-0.1,0.9-0.7,1.3-1.6,1.3c-0.8-0.1-1.2-0.6-1.2-1.3
			C166.9,110.1,167.5,109.7,168.3,109.6z"/>
		<path d="M149.7,113.9c0,0.8-0.4,1.3-1.2,1.5c-0.9,0.2-1.5-0.3-1.6-1.2c-0.1-0.8,0.4-1.3,1.1-1.5C149,112.5,149.5,113,149.7,113.9z
			"/>
		<path d="M136.3,119.4c-0.9-0.1-1.5-0.6-1.4-1.5c0-0.9,0.6-1.4,1.5-1.3c0.8,0,1.2,0.5,1.2,1.3C137.7,118.8,137.2,119.3,136.3,119.4
			z"/>
		<path d="M145.2,118.3c-0.1,0.8-0.6,1.3-1.4,1.2c-0.9,0-1.5-0.6-1.4-1.5c0.1-0.8,0.6-1.3,1.4-1.3
			C144.7,116.7,145.2,117.3,145.2,118.3z"/>
		<path d="M139.7,73.9c-0.2,0.8-0.7,1.4-1.6,1.2c-0.9-0.1-1.3-0.8-1.1-1.6c0.1-0.8,0.7-1.2,1.4-1.1C139.3,72.4,139.7,73,139.7,73.9z
			"/>
		<path d="M129.5,84.2c-1,0-1.5-0.5-1.5-1.4c0-0.8,0.5-1.3,1.3-1.3c1-0.1,1.5,0.5,1.5,1.4C130.7,83.5,130.2,84,129.5,84.2z"/>
		<path d="M137.3,93.4c-0.9-0.2-1.4-0.7-1.3-1.6c0.1-0.9,0.7-1.4,1.6-1.2c0.7,0.1,1.2,0.6,1.1,1.4C138.7,92.9,138.2,93.3,137.3,93.4
			z"/>
		<path d="M125.6,76.9c0.8,0,1.3,0.4,1.5,1.1c0.2,0.9-0.3,1.5-1.2,1.6c-0.8,0.1-1.3-0.3-1.5-1.1C124.2,77.6,124.8,77.1,125.6,76.9z"
			/>
		<path d="M122.8,82.6c-0.2,0.8-0.7,1.2-1.4,1.2c-0.9,0-1.4-0.6-1.3-1.5c0.1-0.8,0.6-1.3,1.4-1.2C122.3,81.1,122.8,81.6,122.8,82.6z
			"/>
		<path d="M142.1,104.9c-0.1,1-0.5,1.5-1.4,1.6c-0.8,0.1-1.3-0.4-1.4-1.1c-0.2-0.9,0.3-1.5,1.2-1.6
			C141.3,103.6,141.8,104.2,142.1,104.9z"/>
		<path d="M148.2,104.6c0.9,0,1.5,0.5,1.5,1.4c0,0.9-0.5,1.4-1.4,1.5c-0.7,0-1.3-0.5-1.4-1.2C146.9,105.3,147.4,104.8,148.2,104.6z"
			/>
		<path d="M155.8,107.5c-0.9-0.2-1.3-0.8-1.2-1.7c0.1-0.8,0.7-1.2,1.5-1.1c0.8,0.1,1.3,0.6,1.2,1.4
			C157.3,107,156.7,107.5,155.8,107.5z"/>
		<path d="M150.9,87c-0.2,1-0.7,1.5-1.6,1.4c-0.8-0.1-1.2-0.6-1.2-1.4c0-0.8,0.4-1.3,1.2-1.4C150.3,85.6,150.7,86.2,150.9,87z"/>
		<path d="M156.4,98.5c-0.9-0.1-1.4-0.6-1.3-1.4c0-0.9,0.5-1.5,1.5-1.4c0.8,0.1,1.3,0.6,1.3,1.3C157.8,98,157.2,98.5,156.4,98.5z"/>
		<path d="M164.7,98.8c-0.9-0.1-1.4-0.6-1.4-1.5c0.1-0.8,0.6-1.2,1.4-1.2c0.8,0,1.3,0.4,1.4,1.2C166.1,98.2,165.6,98.7,164.7,98.8z"
			/>
		<path d="M153.3,91c1,0,1.5,0.5,1.6,1.4c0,0.8-0.5,1.3-1.2,1.4c-0.8,0.1-1.3-0.3-1.5-1.1C152,91.8,152.5,91.2,153.3,91z"/>
		<path d="M120.6,100.8c-0.8-0.1-1.2-0.6-1.2-1.4c0-0.9,0.6-1.5,1.5-1.4c0.8,0.1,1.3,0.6,1.3,1.4
			C122.1,100.3,121.5,100.8,120.6,100.8z"/>
		<path d="M162.8,92.6c-0.1,0.9-0.6,1.5-1.5,1.4c-0.9-0.1-1.4-0.7-1.3-1.6c0.1-0.8,0.6-1.2,1.3-1.3
			C162.2,91.2,162.7,91.7,162.8,92.6z"/>
		<path d="M149.6,80.3c-0.8-0.1-1.3-0.4-1.4-1.2c-0.1-0.9,0.4-1.6,1.3-1.6c0.9,0,1.4,0.6,1.4,1.5C150.9,79.9,150.3,80.2,149.6,80.3z
			"/>
		<path d="M146.2,101.6c-0.2,0.8-0.7,1.4-1.6,1.3c-0.8-0.1-1.2-0.6-1.2-1.4c0-0.9,0.6-1.4,1.6-1.3
			C145.7,100.3,146,100.8,146.2,101.6z"/>
		<path d="M132.2,112.8c0.9,0.2,1.4,0.7,1.3,1.6c-0.1,0.7-0.6,1.2-1.3,1.2c-0.9,0-1.4-0.5-1.4-1.5
			C130.7,113.3,131.3,112.9,132.2,112.8z"/>
		<path d="M141.8,113.8c-0.2,0.9-0.6,1.4-1.4,1.4c-0.9,0-1.5-0.6-1.4-1.5c0.1-0.9,0.7-1.3,1.7-1.2
			C141.5,112.6,141.8,113.2,141.8,113.8z"/>
		<path d="M152.7,100.1c0.9,0,1.5,0.4,1.5,1.3c0,0.8-0.4,1.3-1.1,1.4c-0.9,0.2-1.5-0.3-1.6-1.2C151.3,100.7,151.9,100.2,152.7,100.1
			z"/>
		<path d="M158,114.9c-0.2,0.9-0.6,1.4-1.6,1.4c-0.8-0.1-1.2-0.6-1.2-1.4c0-0.9,0.6-1.5,1.5-1.4C157.5,113.6,157.9,114.1,158,114.9z
			"/>
		<path d="M137.8,81.6c0.9,0.2,1.4,0.6,1.4,1.6c-0.1,0.8-0.6,1.2-1.4,1.2c-0.9,0-1.4-0.6-1.4-1.5C136.5,82,137,81.6,137.8,81.6z"/>
		<path d="M134.9,78.3c-0.2,0.9-0.6,1.4-1.4,1.3c-0.9,0-1.5-0.6-1.4-1.5c0.1-0.8,0.6-1.2,1.4-1.2C134.4,76.9,134.8,77.6,134.9,78.3z
			"/>
		<path d="M153.2,119c-0.2,0.9-0.6,1.4-1.6,1.4c-0.8-0.1-1.2-0.6-1.2-1.4c0-0.9,0.6-1.4,1.5-1.4C152.7,117.7,153.1,118.2,153.2,119z
			"/>
		<path d="M124.6,97.7c-0.9-0.1-1.5-0.6-1.4-1.5c0.1-0.9,0.7-1.4,1.6-1.3c0.8,0.1,1.2,0.6,1.2,1.3C126.1,97.1,125.6,97.6,124.6,97.7
			z"/>
		<path d="M133.5,104.2c-0.1,1-0.7,1.5-1.5,1.4c-0.9-0.1-1.4-0.7-1.2-1.6c0.1-0.7,0.6-1.2,1.4-1.2
			C133,102.9,133.4,103.5,133.5,104.2z"/>
	</g>
</g>
</svg>
