<?xml version="1.0" encoding="utf-8"?>
<!-- Generator: Adobe Illustrator 18.0.0, SVG Export Plug-In . SVG Version: 6.00 Build 0)  -->
<!DOCTYPE svg PUBLIC "-//W3C//DTD SVG 1.1//EN" "http://www.w3.org/Graphics/SVG/1.1/DTD/svg11.dtd">
<svg version="1.1" id="Слой_1" xmlns="http://www.w3.org/2000/svg" xmlns:xlink="http://www.w3.org/1999/xlink" x="0px" y="0px"
	 width="250px" height="200px" viewBox="0 0 250 200" enable-background="new 0 0 250 200" xml:space="preserve">
<g>
	<path fill="#FFFFFF" d="M173,46.7c-0.1-0.1-0.2-0.1-0.3-0.2c-1.4,2.4-2.8,4.8-4.2,7.2c-0.7,1.2-1.5,2.2-2.7,3
		c-1.6,1.1-3.2,2.5-4.5,4c-1.5,1.6-2.9,3.4-2.7,5.9c0.1,1.6,1.8,4.3,2.8,4.6c2.8,0.8,6-0.7,7-3.5c1.1-3,1.5-6.1,0.9-9.3
		c-0.3-1.6-0.1-3,0.6-4.5C171,51.4,172,49,173,46.7z M148.9,58.6c-0.1,0.2-0.3,0.5-0.4,0.7c-0.5,2.8-1.3,5.6-1.5,8.4
		c-0.2,3.6,0.4,7.1,3.5,9.6c1.8,1.4,3.7,1.6,5.6,0.5c1.4-0.9,2-2.8,1.5-4.9c-0.8-3.2-2.8-5.6-5-7.8
		C150.8,63.3,149.5,61.3,148.9,58.6z M126.1,104c-1.5,4-2.5,8-2.3,12.2c0.1,2.7,1.2,5.1,3.2,6.9c1.5,1.4,3.8,1.7,5.5,0.7
		c1.5-0.9,2.3-2.8,1.7-4.9c-0.4-1.5-1.1-2.9-1.8-4.3c-0.5-1-1.3-1.9-2-2.7C128.4,109.6,126.3,107.3,126.1,104z M178.4,70.4
		c-0.2,0-0.4-0.1-0.4,0c-2.4,1.9-5.1,2.2-8,2.3c-2.8,0.1-5.7,0.6-8.2,2.2c-1.6,1-2.6,2.4-2.3,4.3c0.3,1.9,1.9,3.3,3.9,3.6
		c2.4,0.4,4.6-0.2,6.6-1.6C173.8,78.4,176.2,74.5,178.4,70.4z M167.2,94.2c-1.6,0.6-3.3,1.4-5.1,1.8c-1.7,0.4-3.5,0-5.1,0.4
		c-2.3,0.5-4.6,1.2-6.8,2.1c-1.6,0.7-2.4,2.3-2,4.1c0.4,1.8,1.5,3.1,3.4,3.5c2.9,0.6,5.6-0.2,7.9-2
		C162.9,101.4,165.2,97.8,167.2,94.2z M144,69.3c-0.1,0.3-0.3,0.5-0.3,0.8c-0.8,3-1.8,5.9-2.3,9c-0.6,3.6,0.1,7,3,9.6
		c1.5,1.4,3.8,1.6,5.5,0.6c1.4-0.8,2.1-2.8,1.7-4.7c-0.7-3.3-2.5-5.9-4.6-8.5C145.4,74.1,144.2,71.9,144,69.3z M173,82.6
		c-2.3,1.6-4.9,2.1-7.6,1.9c-0.8,0-1.6-0.1-2.4,0c-2.5,0.2-5.1,0.5-7.3,2c-1.6,1.1-2.3,2.6-1.9,4.3c0.4,1.8,1.9,3.3,3.7,3.5
		c2.5,0.3,4.8-0.1,6.9-1.5C168.2,90.2,170.7,86.5,173,82.6z M161.9,105.9c-2.6,1.9-5.6,2-8.6,2c-0.7,0-1.4-0.1-2.1,0.1
		c-2.1,0.6-4.3,1-6.3,1.9c-1.7,0.7-2.4,2.3-2.1,4.2c0.3,1.7,1.4,3,3.1,3.4c3.1,0.8,6,0,8.4-1.9C157.6,112.9,159.9,109.6,161.9,105.9
		z M156.6,118.1c-2.7,1.8-5.6,1.8-8.6,1.6c-2.9-0.2-5.8,0-8.5,1.4c-1.6,0.8-2.7,2.1-2.6,4c0.1,1.9,1.5,3.4,3.4,4
		c2.6,0.7,5,0.3,7.2-1.1C151.4,125.5,154.2,122,156.6,118.1z M138.6,81c-1.7,3.5-2.8,7.1-3.2,10.9c-0.3,3.2,0.5,6.1,2.9,8.4
		c1.3,1.3,3.5,1.6,5.1,0.9c1.7-0.8,2.2-2.2,2.2-4c-0.1-3-1.5-5.5-3.1-7.8C140.6,86.8,138.6,84.4,138.6,81z M132.6,92
		c-1.8,4.3-3.2,8.7-2.9,13.5c0.2,2.5,1.3,4.5,3.1,6.2c2.3,2.1,6,1.3,6.8-1.4c0.3-1.1,0.4-2.5,0-3.5c-1.1-2.5-2.3-4.9-3.8-7.1
		C134.1,97.3,132.5,95.1,132.6,92z M75.1,79.4c-0.1,0.1-0.2,0.2-0.4,0.3c0.8,1.5,1.6,3,2.5,4.4c1,1.5,1.1,3.2,1.4,4.9
		c0.5,2.3,1.1,4.6,2,6.7c0.9,2,2.8,2.6,5.4,2.2c1.8-0.3,2.1-1.8,2.5-3.2c0.5-1.7-0.2-3.1-1.3-4.3c-1.9-2.1-4.2-3.5-6.8-4.7
		c-0.7-0.3-1.4-0.9-1.9-1.5C77.4,82.7,76.3,81,75.1,79.4z M90.4,128c2.2,3,4.6,5.8,7.9,7.4c1.4,0.7,3.1,1,4.7,1
		c2.4,0.1,4.1-1.6,4.3-3.6c0.2-1.8-1.1-3.5-3.5-3.9c-1.9-0.3-3.9-0.5-5.9-0.3C95.4,128.8,92.8,129.1,90.4,128z M84.6,118.3
		c-0.1,0.1-0.1,0.2-0.2,0.4c1.6,1.7,3,3.5,4.7,5.1c2.4,2.3,5.1,3.9,8.6,3.5c1.9-0.2,3.5-1.5,3.8-3.4c0.3-1.5-0.7-3.2-2.5-3.7
		c-2.2-0.6-4.5-1-6.7-0.9C89.7,119.5,87.1,119.8,84.6,118.3z M96.3,137.7c2.3,2.9,4.9,5.4,8.1,7c1.8,0.9,3.7,1.1,5.7,0.6
		c1.8-0.5,3.1-1.8,3.2-3.6c0.1-1.8-0.7-3.1-2.8-3.6c-1.8-0.4-3.8-0.5-5.7-0.4C102,138,99.2,139.2,96.3,137.7z M78.6,109.3
		c-0.1,0.1-0.1,0.3-0.2,0.4c1.6,1.6,3.1,3.3,4.8,4.8c2.4,2.2,5.1,3.7,8.5,3.2c2-0.2,3.7-1.7,3.9-3.6c0.2-1.4-0.9-3.1-2.7-3.6
		c-1.8-0.5-3.7-0.7-5.5-0.7C84.4,110,81.4,111,78.6,109.3z M119.8,121.6c-0.1,2.3-1,4.3-2.3,6.2c-1.5,2.1-2.7,4.4-3,7
		c-0.2,1.7,0.4,3.3,1.7,4c1.4,0.8,3.3,0.5,4.5-0.7c1.4-1.4,2.2-3.1,2.3-5.1C123.1,128.8,121.5,125.2,119.8,121.6z M100.8,94.2
		c0.1,2.5-0.9,4.5-2.2,6.5c-0.5,0.7-1,1.5-1.2,2.3c-0.5,1.8-1.1,3.7-1.2,5.5c-0.1,2.5,2.2,3.8,4.6,3c2.3-0.8,4.1-4.2,3.7-7.3
		C104,100.6,102.7,97.3,100.8,94.2z M106.7,103.4c0.2,2.8-1.2,4.9-2.2,7.2c-0.9,2.1-1.6,4.3-2,6.6c-0.3,1.8,0.9,3.2,2.3,3.7
		c1.3,0.4,3.3,0,4.1-1.3c0.8-1.4,1.6-3,1.7-4.6C111,110.7,108.8,107,106.7,103.4z M113.3,112.5c-0.4,1.5-0.6,2.9-1.1,4.1
		c-0.5,1.3-1.4,2.4-1.9,3.6c-0.7,1.7-1.3,3.5-1.7,5.3c-0.5,2.8,1.5,4.8,4.1,4.4c1.4-0.2,2.4-1.1,3.1-2.3c1.1-1.9,1.4-3.9,1-6.1
		C116.1,118.2,115,115.3,113.3,112.5z M94.1,84.8c0.3,2.7-1,4.8-2,7.1c-0.9,2.1-1.5,4.3-1.8,6.6c-0.3,2.1,0.7,3.4,2.4,3.8
		c1.7,0.5,3.6-0.2,4.4-2.1c0.6-1.4,1.1-3.1,1.1-4.6C98.2,91.6,96.2,88.2,94.1,84.8z M72.6,99.5c-0.1,0.1-0.2,0.3-0.3,0.4
		c2,2.1,3.9,4.3,6,6.3c1.8,1.7,3.9,2.5,6.4,2.5c2.4,0,4.3-1.3,4.6-3.3c0.3-1.8-1-3.7-3.3-4.2c-2-0.4-4.1-0.7-6.1-0.6
		C77.3,100.8,74.9,100.8,72.6,99.5z M125.4,139.8c1,0.4,2,0.8,2.7,1.1c3-3.6,5.7-7,8.5-10.4c-2.2-1.3-4.4-2.7-6.8-4.1
		C129.5,131.3,127.4,135.4,125.4,139.8z M124,152.2c-1.4-3.7-2.6-7.2-4-10.8c-1.9,1-3.8,2.1-5.5,2.9c2.6,3.1,5.1,6.1,7.7,9.2
		C122.8,153.1,123.4,152.6,124,152.2z M168.3,70.6c1.8,0.5,2.9,0,3.7-1.6c1.8-3.8,3.7-7.6,5.6-11.4c0.1-0.2,0.1-0.4,0.2-0.6
		c-0.1,0-0.1,0-0.2-0.1C174.5,61.5,171.4,66,168.3,70.6z M155.8,65.2c2-5.6,4-11.1,6-16.5c-0.8,1-1.6,2.1-2,3.3
		c-1,3.2-2.5,6-4.5,8.6C153.9,62.7,154,63.3,155.8,65.2z M71.7,88.4c-0.1,0-0.1,0.1-0.2,0.1c0.1,0.2,0.1,0.4,0.3,0.6
		c1.8,2.9,3.6,5.8,5.3,8.7c0.8,1.4,1.8,1.7,3.2,1C77.5,95.3,74.6,91.9,71.7,88.4z M89.9,92.1c1.2-1,1.3-2.1,0.4-3.4
		c-1.9-2.8-3.7-5.7-5.6-8.5c-0.1-0.2-0.3-0.2-0.7-0.5C86.1,83.9,88,88,89.9,92.1z"/>
	<path d="M173,46.7c-1,2.4-2,4.8-3.1,7.1c-0.7,1.5-0.9,2.9-0.6,4.5c0.6,3.2,0.1,6.3-0.9,9.3c-1,2.8-4.1,4.4-7,3.5
		c-1.1-0.3-2.7-3-2.8-4.6c-0.2-2.5,1.2-4.2,2.7-5.9c1.3-1.5,2.9-2.8,4.5-4c1.2-0.8,2-1.8,2.7-3c1.4-2.4,2.8-4.8,4.2-7.2
		C172.8,46.5,172.9,46.6,173,46.7z"/>
	<path d="M148.9,58.6c0.6,2.7,1.9,4.7,3.8,6.5c2.2,2.2,4.2,4.7,5,7.8c0.5,2.1-0.1,4-1.5,4.9c-1.9,1.1-3.8,0.9-5.6-0.5
		c-3.1-2.5-3.7-6-3.5-9.6c0.2-2.8,0.9-5.6,1.5-8.4C148.6,59,148.8,58.8,148.9,58.6z"/>
	<path d="M126.1,104c0.2,3.3,2.2,5.6,4.2,8c0.7,0.9,1.5,1.7,2,2.7c0.7,1.4,1.4,2.8,1.8,4.3c0.6,2.1-0.1,4-1.7,4.9
		c-1.7,1-3.9,0.7-5.5-0.7c-2-1.9-3.1-4.2-3.2-6.9C123.6,112,124.7,108,126.1,104z"/>
	<path d="M178.4,70.4c-2.3,4.1-4.6,8-8.5,10.8c-2,1.4-4.2,1.9-6.6,1.6c-2.1-0.3-3.7-1.7-3.9-3.6c-0.3-1.9,0.7-3.3,2.3-4.3
		c2.5-1.6,5.3-2.1,8.2-2.2c2.9-0.1,5.7-0.4,8-2.3C178.1,70.3,178.2,70.4,178.4,70.4z"/>
	<path d="M167.2,94.2c-2,3.5-4.3,7.2-7.8,9.9c-2.3,1.8-4.9,2.6-7.9,2c-1.9-0.4-3-1.7-3.4-3.5c-0.4-1.8,0.4-3.4,2-4.1
		c2.2-1,4.5-1.6,6.8-2.1c1.7-0.4,3.5,0,5.1-0.4C163.9,95.6,165.6,94.8,167.2,94.2z"/>
	<path d="M144,69.3c0.2,2.7,1.3,4.8,2.9,6.8c2.1,2.5,3.9,5.2,4.6,8.5c0.4,1.9-0.3,3.9-1.7,4.7c-1.7,1-3.9,0.8-5.5-0.6
		c-2.9-2.6-3.6-6-3-9.6c0.5-3,1.5-6,2.3-9C143.7,69.7,143.9,69.5,144,69.3z"/>
	<path d="M173,82.6c-2.3,3.9-4.8,7.6-8.6,10.2c-2.1,1.4-4.4,1.8-6.9,1.5c-1.8-0.2-3.4-1.7-3.7-3.5c-0.4-1.7,0.3-3.2,1.9-4.3
		c2.2-1.5,4.8-1.8,7.3-2c0.8-0.1,1.6-0.1,2.4,0C168.1,84.7,170.6,84.2,173,82.6z"/>
	<path d="M161.9,105.9c-2,3.7-4.3,7-7.6,9.6c-2.5,2-5.3,2.8-8.4,1.9c-1.7-0.5-2.8-1.7-3.1-3.4c-0.3-1.9,0.4-3.4,2.1-4.2
		c2-0.8,4.2-1.3,6.3-1.9c0.7-0.2,1.4-0.1,2.1-0.1C156.3,107.9,159.3,107.8,161.9,105.9z"/>
	<path d="M156.6,118.1c-2.4,3.8-5.1,7.4-9,9.8c-2.2,1.4-4.7,1.8-7.2,1.1c-1.9-0.5-3.4-2.1-3.4-4c-0.1-1.9,1-3.2,2.6-4
		c2.7-1.3,5.6-1.6,8.5-1.4C151,119.9,153.9,119.9,156.6,118.1z"/>
	<path d="M138.6,81c0.1,3.4,2,5.8,3.8,8.3c1.6,2.3,3.1,4.8,3.1,7.8c0,1.8-0.5,3.2-2.2,4c-1.6,0.7-3.8,0.4-5.1-0.9
		c-2.3-2.3-3.2-5.2-2.9-8.4C135.7,88.1,136.9,84.5,138.6,81z"/>
	<path d="M132.6,92c-0.1,3.1,1.6,5.3,3.2,7.7c1.5,2.2,2.7,4.6,3.8,7.1c0.4,1,0.3,2.4,0,3.5c-0.8,2.7-4.5,3.5-6.8,1.4
		c-1.8-1.6-2.9-3.7-3.1-6.2C129.3,100.7,130.7,96.3,132.6,92z"/>
	<path d="M75.1,79.4c1.2,1.6,2.3,3.3,3.5,4.8c0.5,0.6,1.2,1.1,1.9,1.5c2.5,1.2,4.9,2.6,6.8,4.7c1.1,1.2,1.8,2.7,1.3,4.3
		c-0.4,1.3-0.7,2.9-2.5,3.2c-2.7,0.4-4.6-0.1-5.4-2.2c-0.9-2.1-1.6-4.4-2-6.7c-0.3-1.7-0.4-3.4-1.4-4.9c-0.9-1.4-1.7-3-2.5-4.4
		C74.9,79.6,75,79.5,75.1,79.4z"/>
	<path d="M90.4,128c2.5,1.2,5,0.8,7.6,0.6c1.9-0.2,4,0,5.9,0.3c2.4,0.4,3.7,2.1,3.5,3.9c-0.2,2.1-1.9,3.7-4.3,3.6
		c-1.6,0-3.3-0.3-4.7-1C94.9,133.8,92.5,131,90.4,128z"/>
	<path d="M84.6,118.3c2.4,1.5,5,1.2,7.7,1c2.2-0.1,4.5,0.3,6.7,0.9c1.9,0.5,2.8,2.3,2.5,3.7c-0.4,1.9-1.9,3.1-3.8,3.4
		c-3.5,0.4-6.2-1.2-8.6-3.5c-1.7-1.6-3.1-3.4-4.7-5.1C84.5,118.5,84.5,118.4,84.6,118.3z"/>
	<path d="M96.3,137.7c2.9,1.5,5.8,0.3,8.6,0.1c1.9-0.1,3.8,0,5.7,0.4c2.1,0.5,2.9,1.8,2.8,3.6c-0.1,1.7-1.4,3.1-3.2,3.6
		c-2,0.5-3.9,0.3-5.7-0.6C101.2,143.1,98.5,140.6,96.3,137.7z"/>
	<path d="M78.6,109.3c2.9,1.8,5.8,0.7,8.8,0.7c1.8,0,3.7,0.2,5.5,0.7c1.8,0.5,2.9,2.2,2.7,3.6c-0.3,1.9-2,3.4-3.9,3.6
		c-3.4,0.4-6.1-1.1-8.5-3.2c-1.7-1.5-3.2-3.2-4.8-4.8C78.4,109.5,78.5,109.4,78.6,109.3z"/>
	<path d="M119.8,121.6c1.8,3.6,3.3,7.2,3.1,11.2c-0.1,2-0.9,3.7-2.3,5.1c-1.2,1.2-3.1,1.5-4.5,0.7c-1.2-0.7-1.9-2.3-1.7-4
		c0.4-2.6,1.6-4.9,3-7C118.7,125.9,119.7,124,119.8,121.6z"/>
	<path d="M100.8,94.2c1.9,3.1,3.2,6.5,3.7,10.1c0.4,3.1-1.4,6.5-3.7,7.3c-2.4,0.8-4.6-0.5-4.6-3c0.1-1.9,0.7-3.7,1.2-5.5
		c0.2-0.8,0.7-1.6,1.2-2.3C99.9,98.7,100.9,96.6,100.8,94.2z"/>
	<path d="M106.7,103.4c2.1,3.6,4.2,7.3,3.9,11.6c-0.1,1.6-0.9,3.2-1.7,4.6c-0.8,1.3-2.8,1.7-4.1,1.3c-1.4-0.5-2.6-1.9-2.3-3.7
		c0.4-2.2,1.1-4.5,2-6.6C105.5,108.3,106.9,106.1,106.7,103.4z"/>
	<path d="M113.3,112.5c1.7,2.8,2.8,5.8,3.4,8.9c0.4,2.2,0.1,4.2-1,6.1c-0.7,1.2-1.7,2.1-3.1,2.3c-2.6,0.5-4.6-1.6-4.1-4.4
		c0.3-1.8,1-3.6,1.7-5.3c0.5-1.3,1.4-2.4,1.9-3.6C112.7,115.3,112.9,114,113.3,112.5z"/>
	<path d="M94.1,84.8c2.1,3.4,4.1,6.8,4.1,10.8c0,1.5-0.5,3.2-1.1,4.6c-0.8,1.8-2.7,2.5-4.4,2.1c-1.7-0.5-2.7-1.7-2.4-3.8
		c0.3-2.2,1-4.5,1.8-6.6C93.1,89.7,94.4,87.5,94.1,84.8z"/>
	<path d="M72.6,99.5c2.3,1.4,4.7,1.4,7.3,1.2c2-0.2,4.1,0.1,6.1,0.6c2.4,0.5,3.7,2.4,3.3,4.2c-0.4,2-2.2,3.3-4.6,3.3
		c-2.5,0-4.7-0.9-6.4-2.5c-2.1-2-4-4.2-6-6.3C72.4,99.7,72.5,99.6,72.6,99.5z"/>
	<path d="M125.4,139.8c2-4.4,4.1-8.5,4.5-13.4c2.3,1.4,4.6,2.8,6.8,4.1c-2.8,3.4-5.6,6.8-8.5,10.4
		C127.4,140.6,126.4,140.2,125.4,139.8z"/>
	<path d="M124,152.2c-0.6,0.4-1.2,0.9-1.8,1.3c-2.6-3.1-5.1-6.1-7.7-9.2c1.6-0.9,3.5-1.9,5.5-2.9C121.4,145,122.6,148.5,124,152.2z"
		/>
	<path d="M168.3,70.6c3.1-4.6,6.2-9.1,9.3-13.7c0.1,0,0.1,0,0.2,0.1c-0.1,0.2-0.1,0.4-0.2,0.6c-1.9,3.8-3.8,7.5-5.6,11.4
		C171.2,70.6,170.1,71.1,168.3,70.6z"/>
	<path d="M155.8,65.2c-1.8-1.9-1.9-2.5-0.4-4.6c1.9-2.7,3.5-5.5,4.5-8.6c0.4-1.2,1.2-2.3,2-3.3C159.8,54.1,157.8,59.6,155.8,65.2z"
		/>
	<path d="M71.7,88.4c2.9,3.5,5.7,6.9,8.6,10.4c-1.4,0.7-2.4,0.3-3.2-1c-1.7-2.9-3.6-5.8-5.3-8.7c-0.1-0.2-0.2-0.4-0.3-0.6
		C71.6,88.5,71.7,88.4,71.7,88.4z"/>
	<path d="M89.9,92.1C88,88,86.1,83.9,84,79.6c0.4,0.3,0.6,0.4,0.7,0.5c1.9,2.8,3.7,5.7,5.6,8.5C91.2,90,91,91.1,89.9,92.1z"/>
</g>
</svg>
